<?xml version="1.0" encoding="UTF-8" standalone="no"?>
<!DOCTYPE svg PUBLIC "-//W3C//DTD SVG 1.1//EN"
 "http://www.w3.org/Graphics/SVG/1.1/DTD/svg11.dtd">
<!-- Generated by graphviz version 2.43.0 (0)
 -->
<!-- Title: hive::models::GameRules::validateMove Pages: 1 -->
<svg width="847pt" height="499pt"
 viewBox="0.00 0.00 847.00 498.68" xmlns="http://www.w3.org/2000/svg" xmlns:xlink="http://www.w3.org/1999/xlink">
<g id="graph0" class="graph" transform="scale(1 1) rotate(0) translate(4 494.68)">
<title>hive::models::GameRules::validateMove</title>
<!-- Node1 -->
<g id="Node000001" class="node">
<title>Node1</title>
<g id="a_Node000001"><a xlink:title="Validates a move according to its type.">
<polygon fill="#999999" stroke="#666666" points="142,-375.4 0,-375.4 0,-345.4 142,-345.4 142,-375.4"/>
<text text-anchor="start" x="8" y="-363.4" font-family="Helvetica,sans-Serif" font-size="10.00">hive::models::GameRules</text>
<text text-anchor="middle" x="71" y="-352.4" font-family="Helvetica,sans-Serif" font-size="10.00">::validateMove</text>
</a>
</g>
</g>
<!-- Node2 -->
<g id="Node000002" class="node">
<title>Node2</title>
<g id="a_Node000002"><a xlink:href="classhive_1_1models_1_1Move.html#ac5abd320c5ed007fe9d62b4c46ebb7cc" target="_top" xlink:title="Retrieves the piece involved in the move.">
<polygon fill="white" stroke="#666666" points="499.5,-407.4 386.5,-407.4 386.5,-377.4 499.5,-377.4 499.5,-407.4"/>
<text text-anchor="start" x="394.5" y="-395.4" font-family="Helvetica,sans-Serif" font-size="10.00">hive::models::Move</text>
<text text-anchor="middle" x="443" y="-384.4" font-family="Helvetica,sans-Serif" font-size="10.00">::getPiece</text>
</a>
</g>
</g>
<!-- Node1&#45;&gt;Node2 -->
<g id="edge1_Node000001_Node000002" class="edge">
<title>Node1&#45;&gt;Node2</title>
<g id="a_edge1_Node000001_Node000002"><a xlink:title=" ">
<path fill="none" stroke="#63b8ff" d="M98.44,-375.51C119.3,-386.52 149.52,-400.49 178,-406.4 244.49,-420.21 322.32,-413.38 376.16,-405.16"/>
<polygon fill="#63b8ff" stroke="#63b8ff" points="376.93,-408.58 386.26,-403.55 375.84,-401.66 376.93,-408.58"/>
</a>
</g>
</g>
<!-- Node3 -->
<g id="Node000003" class="node">
<title>Node3</title>
<g id="a_Node000003"><a xlink:href="classhive_1_1models_1_1Move.html#a049a2f8ca126c3304852c182de9cb574" target="_top" xlink:title="Retrieves the player who made the move.">
<polygon fill="white" stroke="#666666" points="499.5,-359.4 386.5,-359.4 386.5,-329.4 499.5,-329.4 499.5,-359.4"/>
<text text-anchor="start" x="394.5" y="-347.4" font-family="Helvetica,sans-Serif" font-size="10.00">hive::models::Move</text>
<text text-anchor="middle" x="443" y="-336.4" font-family="Helvetica,sans-Serif" font-size="10.00">::getPlayer</text>
</a>
</g>
</g>
<!-- Node1&#45;&gt;Node3 -->
<g id="edge2_Node000001_Node000003" class="edge">
<title>Node1&#45;&gt;Node3</title>
<g id="a_edge2_Node000001_Node000003"><a xlink:title=" ">
<path fill="none" stroke="#63b8ff" d="M142.03,-357.38C209.35,-354.46 310.31,-350.1 376.18,-347.25"/>
<polygon fill="#63b8ff" stroke="#63b8ff" points="376.6,-350.74 386.44,-346.81 376.3,-343.74 376.6,-350.74"/>
</a>
</g>
</g>
<!-- Node4 -->
<g id="Node000004" class="node">
<title>Node4</title>
<g id="a_Node000004"><a xlink:href="classhive_1_1models_1_1Move.html#ac7e11d589ea05e87aad566e3ae31692f" target="_top" xlink:title="Retrieves the type of the move.">
<polygon fill="white" stroke="#666666" points="313.5,-397.4 200.5,-397.4 200.5,-367.4 313.5,-367.4 313.5,-397.4"/>
<text text-anchor="start" x="208.5" y="-385.4" font-family="Helvetica,sans-Serif" font-size="10.00">hive::models::Move</text>
<text text-anchor="middle" x="257" y="-374.4" font-family="Helvetica,sans-Serif" font-size="10.00">::getType</text>
</a>
</g>
</g>
<!-- Node1&#45;&gt;Node4 -->
<g id="edge3_Node000001_Node000004" class="edge">
<title>Node1&#45;&gt;Node4</title>
<g id="a_edge3_Node000001_Node000004"><a xlink:title=" ">
<path fill="none" stroke="#63b8ff" d="M142.09,-368.78C157.92,-370.68 174.66,-372.68 190.3,-374.55"/>
<polygon fill="#63b8ff" stroke="#63b8ff" points="190.06,-378.04 200.4,-375.76 190.89,-371.09 190.06,-378.04"/>
</a>
</g>
</g>
<!-- Node5 -->
<g id="Node000005" class="node">
<title>Node5</title>
<g id="a_Node000005"><a xlink:href="classhive_1_1models_1_1GameRules.html#a01eb724a216dedf1f8b7677f89e73c0c" target="_top" xlink:title="Enforces the rule that the queen must be placed by the fourth turn.">
<polygon fill="white" stroke="#666666" points="336,-490.4 178,-490.4 178,-460.4 336,-460.4 336,-490.4"/>
<text text-anchor="start" x="186" y="-478.4" font-family="Helvetica,sans-Serif" font-size="10.00">hive::models::GameRules</text>
<text text-anchor="middle" x="257" y="-467.4" font-family="Helvetica,sans-Serif" font-size="10.00">::isQueenPlacementRequired</text>
</a>
</g>
</g>
<!-- Node1&#45;&gt;Node5 -->
<g id="edge4_Node000001_Node000005" class="edge">
<title>Node1&#45;&gt;Node5</title>
<g id="a_edge4_Node000001_Node000005"><a xlink:title=" ">
<path fill="none" stroke="#63b8ff" d="M89.95,-375.61C110.4,-392.5 145.25,-419.93 178,-439.4 188.01,-445.36 199.18,-451.03 209.86,-456.04"/>
<polygon fill="#63b8ff" stroke="#63b8ff" points="208.53,-459.28 219.08,-460.26 211.45,-452.92 208.53,-459.28"/>
</a>
</g>
</g>
<!-- Node7 -->
<g id="Node000007" class="node">
<title>Node7</title>
<g id="a_Node000007"><a xlink:href="classhive_1_1models_1_1GameRules.html#afe688c8e8c742ccf08a21fdebcb75e4b" target="_top" xlink:title="Validates a MOVE&#45;type move.">
<polygon fill="white" stroke="#666666" points="328,-311.4 186,-311.4 186,-281.4 328,-281.4 328,-311.4"/>
<text text-anchor="start" x="194" y="-299.4" font-family="Helvetica,sans-Serif" font-size="10.00">hive::models::GameRules</text>
<text text-anchor="middle" x="257" y="-288.4" font-family="Helvetica,sans-Serif" font-size="10.00">::validateMoveType</text>
</a>
</g>
</g>
<!-- Node1&#45;&gt;Node7 -->
<g id="edge6_Node000001_Node000007" class="edge">
<title>Node1&#45;&gt;Node7</title>
<g id="a_edge6_Node000001_Node000007"><a xlink:title=" ">
<path fill="none" stroke="#63b8ff" d="M115.14,-345.4C141.46,-336.24 175.3,-324.47 203.21,-314.77"/>
<polygon fill="#63b8ff" stroke="#63b8ff" points="204.52,-318.02 212.81,-311.43 202.22,-311.41 204.52,-318.02"/>
</a>
</g>
</g>
<!-- Node12 -->
<g id="Node000012" class="node">
<title>Node12</title>
<g id="a_Node000012"><a xlink:href="classhive_1_1models_1_1GameRules.html#a274494ae501490148c2233171d8bb65d" target="_top" xlink:title="Validates a PLACE&#45;type move.">
<polygon fill="white" stroke="#666666" points="328,-263.4 186,-263.4 186,-233.4 328,-233.4 328,-263.4"/>
<text text-anchor="start" x="194" y="-251.4" font-family="Helvetica,sans-Serif" font-size="10.00">hive::models::GameRules</text>
<text text-anchor="middle" x="257" y="-240.4" font-family="Helvetica,sans-Serif" font-size="10.00">::validatePlaceType</text>
</a>
</g>
</g>
<!-- Node1&#45;&gt;Node12 -->
<g id="edge12_Node000001_Node000012" class="edge">
<title>Node1&#45;&gt;Node12</title>
<g id="a_edge12_Node000001_Node000012"><a xlink:title=" ">
<path fill="none" stroke="#63b8ff" d="M86.39,-345.19C105.58,-325.74 141.39,-292.2 178,-272.4 181.31,-270.61 184.77,-268.94 188.32,-267.37"/>
<polygon fill="#63b8ff" stroke="#63b8ff" points="189.93,-270.49 197.87,-263.47 187.29,-264.01 189.93,-270.49"/>
</a>
</g>
</g>
<!-- Node6 -->
<g id="Node000006" class="node">
<title>Node6</title>
<g id="a_Node000006"><a xlink:href="classhive_1_1models_1_1Player.html#a60cbac742776f742e55b07f131801fc1" target="_top" xlink:title="Retrieves the total number of pieces owned by the player.">
<polygon fill="white" stroke="#666666" points="667.5,-361.4 551.5,-361.4 551.5,-331.4 667.5,-331.4 667.5,-361.4"/>
<text text-anchor="start" x="559.5" y="-349.4" font-family="Helvetica,sans-Serif" font-size="10.00">hive::models::Player</text>
<text text-anchor="middle" x="609.5" y="-338.4" font-family="Helvetica,sans-Serif" font-size="10.00">::getPieceCount</text>
</a>
</g>
</g>
<!-- Node5&#45;&gt;Node6 -->
<g id="edge5_Node000005_Node000006" class="edge">
<title>Node5&#45;&gt;Node6</title>
<g id="a_edge5_Node000005_Node000006"><a xlink:title=" ">
<path fill="none" stroke="#63b8ff" d="M336.13,-488.24C389.13,-493.19 459.25,-492.16 514,-464.4 553.58,-444.34 582.1,-399.31 596.9,-371.04"/>
<polygon fill="#63b8ff" stroke="#63b8ff" points="600.18,-372.32 601.56,-361.81 593.93,-369.16 600.18,-372.32"/>
</a>
</g>
</g>
<!-- Node7&#45;&gt;Node3 -->
<g id="edge8_Node000007_Node000003" class="edge">
<title>Node7&#45;&gt;Node3</title>
<g id="a_edge8_Node000007_Node000003"><a xlink:title=" ">
<path fill="none" stroke="#63b8ff" d="M315.71,-311.46C335.01,-316.49 356.65,-322.14 376.49,-327.32"/>
<polygon fill="#63b8ff" stroke="#63b8ff" points="375.82,-330.76 386.38,-329.89 377.59,-323.98 375.82,-330.76"/>
</a>
</g>
</g>
<!-- Node8 -->
<g id="Node000008" class="node">
<title>Node8</title>
<g id="a_Node000008"><a xlink:href="classhive_1_1models_1_1Move.html#a45c99c5cf9be5c5f1fab0b13bae554b8" target="_top" xlink:title="Retrieves the starting position of the piece.">
<polygon fill="white" stroke="#666666" points="499.5,-455.4 386.5,-455.4 386.5,-425.4 499.5,-425.4 499.5,-455.4"/>
<text text-anchor="start" x="394.5" y="-443.4" font-family="Helvetica,sans-Serif" font-size="10.00">hive::models::Move</text>
<text text-anchor="middle" x="443" y="-432.4" font-family="Helvetica,sans-Serif" font-size="10.00">::getFrom</text>
</a>
</g>
</g>
<!-- Node7&#45;&gt;Node8 -->
<g id="edge7_Node000007_Node000008" class="edge">
<title>Node7&#45;&gt;Node8</title>
<g id="a_edge7_Node000007_Node000008"><a xlink:title=" ">
<path fill="none" stroke="#63b8ff" d="M280.91,-311.42C297.46,-322.99 319.67,-340.06 336,-358.4 356.17,-381.07 348.27,-397.5 372,-416.4 373.76,-417.8 375.6,-419.12 377.5,-420.37"/>
<polygon fill="#63b8ff" stroke="#63b8ff" points="375.82,-423.43 386.23,-425.36 379.29,-417.36 375.82,-423.43"/>
</a>
</g>
</g>
<!-- Node9 -->
<g id="Node000009" class="node">
<title>Node9</title>
<g id="a_Node000009"><a xlink:href="classhive_1_1models_1_1Move.html#accb38544e44b75c7e512d40372ac7831" target="_top" xlink:title="Retrieves the target position of the piece.">
<polygon fill="white" stroke="#666666" points="499.5,-263.4 386.5,-263.4 386.5,-233.4 499.5,-233.4 499.5,-263.4"/>
<text text-anchor="start" x="394.5" y="-251.4" font-family="Helvetica,sans-Serif" font-size="10.00">hive::models::Move</text>
<text text-anchor="middle" x="443" y="-240.4" font-family="Helvetica,sans-Serif" font-size="10.00">::getTo</text>
</a>
</g>
</g>
<!-- Node7&#45;&gt;Node9 -->
<g id="edge9_Node000007_Node000009" class="edge">
<title>Node7&#45;&gt;Node9</title>
<g id="a_edge9_Node000007_Node000009"><a xlink:title=" ">
<path fill="none" stroke="#63b8ff" d="M315.71,-281.35C335.01,-276.31 356.65,-270.67 376.49,-265.49"/>
<polygon fill="#63b8ff" stroke="#63b8ff" points="377.59,-268.82 386.38,-262.91 375.82,-262.05 377.59,-268.82"/>
</a>
</g>
</g>
<!-- Node10 -->
<g id="Node000010" class="node">
<title>Node10</title>
<g id="a_Node000010"><a xlink:href="classhive_1_1models_1_1Board.html#a46282da1d7c235347de43646fa4e5dd9" target="_top" xlink:title="Retrieves the top piece at a specific hex location.">
<polygon fill="white" stroke="#666666" points="500,-215.4 386,-215.4 386,-185.4 500,-185.4 500,-215.4"/>
<text text-anchor="start" x="394" y="-203.4" font-family="Helvetica,sans-Serif" font-size="10.00">hive::models::Board</text>
<text text-anchor="middle" x="443" y="-192.4" font-family="Helvetica,sans-Serif" font-size="10.00">::getTopPiece</text>
</a>
</g>
</g>
<!-- Node7&#45;&gt;Node10 -->
<g id="edge10_Node000007_Node000010" class="edge">
<title>Node7&#45;&gt;Node10</title>
<g id="a_edge10_Node000007_Node000010"><a xlink:title=" ">
<path fill="none" stroke="#63b8ff" d="M320.19,-281.31C325.76,-278.77 331.13,-275.83 336,-272.4 357.81,-257.06 350.43,-240.09 372,-224.4 374.05,-222.92 376.19,-221.52 378.41,-220.2"/>
<polygon fill="#63b8ff" stroke="#63b8ff" points="380.06,-223.28 387.26,-215.51 376.78,-217.1 380.06,-223.28"/>
</a>
</g>
</g>
<!-- Node11 -->
<g id="Node000011" class="node">
<title>Node11</title>
<g id="a_Node000011"><a xlink:href="classhive_1_1models_1_1Board.html#a73e7cb8c98d471ff351ce0baafb48d03" target="_top" xlink:title="Checks if a hex location is occupied by any pieces.">
<polygon fill="white" stroke="#666666" points="500,-311.4 386,-311.4 386,-281.4 500,-281.4 500,-311.4"/>
<text text-anchor="start" x="394" y="-299.4" font-family="Helvetica,sans-Serif" font-size="10.00">hive::models::Board</text>
<text text-anchor="middle" x="443" y="-288.4" font-family="Helvetica,sans-Serif" font-size="10.00">::isOccupied</text>
</a>
</g>
</g>
<!-- Node7&#45;&gt;Node11 -->
<g id="edge11_Node000007_Node000011" class="edge">
<title>Node7&#45;&gt;Node11</title>
<g id="a_edge11_Node000007_Node000011"><a xlink:title=" ">
<path fill="none" stroke="#63b8ff" d="M328.09,-296.4C343.75,-296.4 360.31,-296.4 375.81,-296.4"/>
<polygon fill="#63b8ff" stroke="#63b8ff" points="375.82,-299.9 385.82,-296.4 375.82,-292.9 375.82,-299.9"/>
</a>
</g>
</g>
<!-- Node12&#45;&gt;Node2 -->
<g id="edge15_Node000012_Node000002" class="edge">
<title>Node12&#45;&gt;Node2</title>
<g id="a_edge15_Node000012_Node000002"><a xlink:title=" ">
<path fill="none" stroke="#63b8ff" d="M323.95,-263.58C328.31,-266.09 332.39,-269 336,-272.4 369.18,-303.64 339.32,-336.64 372,-368.4 373.68,-370.04 375.48,-371.57 377.38,-372.99"/>
<polygon fill="#63b8ff" stroke="#63b8ff" points="375.86,-376.17 386.18,-378.58 379.61,-370.26 375.86,-376.17"/>
</a>
</g>
</g>
<!-- Node12&#45;&gt;Node3 -->
<g id="edge16_Node000012_Node000003" class="edge">
<title>Node12&#45;&gt;Node3</title>
<g id="a_edge16_Node000012_Node000003"><a xlink:title=" ">
<path fill="none" stroke="#63b8ff" d="M320.19,-263.5C325.76,-266.03 331.13,-268.98 336,-272.4 357.81,-287.74 350.43,-304.72 372,-320.4 374.05,-321.89 376.19,-323.29 378.41,-324.61"/>
<polygon fill="#63b8ff" stroke="#63b8ff" points="376.78,-327.71 387.26,-329.3 380.06,-321.52 376.78,-327.71"/>
</a>
</g>
</g>
<!-- Node12&#45;&gt;Node9 -->
<g id="edge17_Node000012_Node000009" class="edge">
<title>Node12&#45;&gt;Node9</title>
<g id="a_edge17_Node000012_Node000009"><a xlink:title=" ">
<path fill="none" stroke="#63b8ff" d="M328.09,-248.4C343.92,-248.4 360.66,-248.4 376.3,-248.4"/>
<polygon fill="#63b8ff" stroke="#63b8ff" points="376.4,-251.9 386.4,-248.4 376.4,-244.9 376.4,-251.9"/>
</a>
</g>
</g>
<!-- Node12&#45;&gt;Node10 -->
<g id="edge18_Node000012_Node000010" class="edge">
<title>Node12&#45;&gt;Node10</title>
<g id="a_edge18_Node000012_Node000010"><a xlink:title=" ">
<path fill="none" stroke="#63b8ff" d="M315.71,-233.35C334.83,-228.36 356.25,-222.77 375.94,-217.64"/>
<polygon fill="#63b8ff" stroke="#63b8ff" points="376.96,-220.99 385.75,-215.08 375.19,-214.21 376.96,-220.99"/>
</a>
</g>
</g>
<!-- Node12&#45;&gt;Node11 -->
<g id="edge19_Node000012_Node000011" class="edge">
<title>Node12&#45;&gt;Node11</title>
<g id="a_edge19_Node000012_Node000011"><a xlink:title=" ">
<path fill="none" stroke="#63b8ff" d="M315.71,-263.46C334.83,-268.45 356.25,-274.03 375.94,-279.17"/>
<polygon fill="#63b8ff" stroke="#63b8ff" points="375.19,-282.59 385.75,-281.73 376.96,-275.82 375.19,-282.59"/>
</a>
</g>
</g>
<!-- Node13 -->
<g id="Node000013" class="node">
<title>Node13</title>
<g id="a_Node000013"><a xlink:href="classhive_1_1models_1_1GameRules.html#a1b166e6772b05d46e2c175627fe8e823" target="_top" xlink:title="Checks if the player can add a specific piece type according to the maximum limit.">
<polygon fill="white" stroke="#666666" points="514,-167.4 372,-167.4 372,-137.4 514,-137.4 514,-167.4"/>
<text text-anchor="start" x="380" y="-155.4" font-family="Helvetica,sans-Serif" font-size="10.00">hive::models::GameRules</text>
<text text-anchor="middle" x="443" y="-144.4" font-family="Helvetica,sans-Serif" font-size="10.00">::canAddPiece</text>
</a>
</g>
</g>
<!-- Node12&#45;&gt;Node13 -->
<g id="edge13_Node000012_Node000013" class="edge">
<title>Node12&#45;&gt;Node13</title>
<g id="a_edge13_Node000012_Node000013"><a xlink:title=" ">
<path fill="none" stroke="#63b8ff" d="M278.58,-233.33C300.78,-217.57 337.59,-192.89 372,-176.4 375.78,-174.59 379.73,-172.85 383.75,-171.2"/>
<polygon fill="#63b8ff" stroke="#63b8ff" points="385.18,-174.4 393.21,-167.49 382.62,-167.88 385.18,-174.4"/>
</a>
</g>
</g>
<!-- Node14 -->
<g id="Node000014" class="node">
<title>Node14</title>
<g id="a_Node000014"><a xlink:href="classhive_1_1models_1_1Board.html#a5d547cf394c28d4801fb6e6cfe4eb5e9" target="_top" xlink:title="Retrieves all hexes surrounding a specific hex location.">
<polygon fill="white" stroke="#666666" points="500,-101.4 386,-101.4 386,-71.4 500,-71.4 500,-101.4"/>
<text text-anchor="start" x="394" y="-89.4" font-family="Helvetica,sans-Serif" font-size="10.00">hive::models::Board</text>
<text text-anchor="middle" x="443" y="-78.4" font-family="Helvetica,sans-Serif" font-size="10.00">::neighbors</text>
</a>
</g>
</g>
<!-- Node12&#45;&gt;Node14 -->
<g id="edge20_Node000012_Node000014" class="edge">
<title>Node12&#45;&gt;Node14</title>
<g id="a_edge20_Node000012_Node000014"><a xlink:title=" ">
<path fill="none" stroke="#63b8ff" d="M270.19,-233.11C289.9,-209 330.75,-161.47 372,-128.4 381.85,-120.51 393.32,-113.02 404.09,-106.62"/>
<polygon fill="#63b8ff" stroke="#63b8ff" points="406.02,-109.55 412.92,-101.51 402.51,-103.49 406.02,-109.55"/>
</a>
</g>
</g>
<!-- Node20 -->
<g id="Node000020" class="node">
<title>Node20</title>
<g id="a_Node000020"><a xlink:href="classhive_1_1models_1_1Board.html#afab2afbd4b7466185c8937755928f364" target="_top" xlink:title="Gets the total number of pieces on the board.">
<polygon fill="white" stroke="#666666" points="500,-53.4 386,-53.4 386,-23.4 500,-23.4 500,-53.4"/>
<text text-anchor="start" x="394" y="-41.4" font-family="Helvetica,sans-Serif" font-size="10.00">hive::models::Board</text>
<text text-anchor="middle" x="443" y="-30.4" font-family="Helvetica,sans-Serif" font-size="10.00">::pieceCount</text>
</a>
</g>
</g>
<!-- Node12&#45;&gt;Node20 -->
<g id="edge30_Node000012_Node000020" class="edge">
<title>Node12&#45;&gt;Node20</title>
<g id="a_edge30_Node000012_Node000020"><a xlink:title=" ">
<path fill="none" stroke="#63b8ff" d="M263.2,-233.19C276.02,-197.96 312.45,-110.13 372,-62.4 373.75,-61 375.59,-59.68 377.49,-58.43"/>
<polygon fill="#63b8ff" stroke="#63b8ff" points="379.28,-61.44 386.21,-53.42 375.8,-55.37 379.28,-61.44"/>
</a>
</g>
</g>
<!-- Node13&#45;&gt;Node6 -->
<g id="edge14_Node000013_Node000006" class="edge">
<title>Node13&#45;&gt;Node6</title>
<g id="a_edge14_Node000013_Node000006"><a xlink:title=" ">
<path fill="none" stroke="#63b8ff" d="M500.29,-167.42C505.2,-169.97 509.86,-172.94 514,-176.4 560.9,-215.66 588.74,-284.46 601.01,-321.35"/>
<polygon fill="#63b8ff" stroke="#63b8ff" points="597.81,-322.83 604.2,-331.29 604.48,-320.7 597.81,-322.83"/>
</a>
</g>
</g>
<!-- Node14&#45;&gt;Node14 -->
<g id="edge29_Node000014_Node000014" class="edge">
<title>Node14&#45;&gt;Node14</title>
<g id="a_edge29_Node000014_Node000014"><a xlink:title=" ">
<path fill="none" stroke="#63b8ff" d="M413.82,-101.68C407.34,-110.81 417.06,-119.4 443,-119.4 458.4,-119.4 468.09,-116.37 472.06,-112"/>
<polygon fill="#63b8ff" stroke="#63b8ff" points="475.56,-111.72 472.18,-101.68 468.56,-111.64 475.56,-111.72"/>
</a>
</g>
</g>
<!-- Node15 -->
<g id="Node000015" class="node">
<title>Node15</title>
<g id="a_Node000015"><a xlink:href="namespacehive_1_1models_1_1enums.html#a43af89b8a126e31344db8c8cafc8cf3f" target="_top" xlink:title="Retrieves all possible directions in an array.">
<polygon fill="white" stroke="#666666" points="669,-53.4 550,-53.4 550,-23.4 669,-23.4 669,-53.4"/>
<text text-anchor="start" x="558" y="-41.4" font-family="Helvetica,sans-Serif" font-size="10.00">hive::models::enums</text>
<text text-anchor="middle" x="609.5" y="-30.4" font-family="Helvetica,sans-Serif" font-size="10.00">::getAllDirections</text>
</a>
</g>
</g>
<!-- Node14&#45;&gt;Node15 -->
<g id="edge21_Node000014_Node000015" class="edge">
<title>Node14&#45;&gt;Node15</title>
<g id="a_edge21_Node000014_Node000015"><a xlink:title=" ">
<path fill="none" stroke="#63b8ff" d="M495.6,-71.35C511.98,-66.57 530.26,-61.23 547.25,-56.28"/>
<polygon fill="#63b8ff" stroke="#63b8ff" points="548.47,-59.57 557.09,-53.41 546.51,-52.85 548.47,-59.57"/>
</a>
</g>
</g>
<!-- Node16 -->
<g id="Node000016" class="node">
<title>Node16</title>
<g id="a_Node000016"><a xlink:href="classhive_1_1models_1_1Hex.html#a94e250128565af8fbae3c988af319bbf" target="_top" xlink:title="Retrieves the x&#45;coordinate of the hex cell.">
<polygon fill="white" stroke="#666666" points="839,-164.9 705,-164.9 705,-145.9 839,-145.9 839,-164.9"/>
<text text-anchor="middle" x="772" y="-152.9" font-family="Helvetica,sans-Serif" font-size="10.00">hive::models::Hex::getX</text>
</a>
</g>
</g>
<!-- Node14&#45;&gt;Node16 -->
<g id="edge22_Node000014_Node000016" class="edge">
<title>Node14&#45;&gt;Node16</title>
<g id="a_edge22_Node000014_Node000016"><a xlink:title=" ">
<path fill="none" stroke="#63b8ff" d="M477.73,-101.42C498.25,-109.97 525.2,-120.19 550,-126.4 597.43,-138.3 651.89,-145.51 694.88,-149.77"/>
<polygon fill="#63b8ff" stroke="#63b8ff" points="694.69,-153.27 704.98,-150.74 695.36,-146.31 694.69,-153.27"/>
</a>
</g>
</g>
<!-- Node17 -->
<g id="Node000017" class="node">
<title>Node17</title>
<g id="a_Node000017"><a xlink:href="classhive_1_1models_1_1Hex.html#a18c77d5b702f072962352f4d84ccca4d" target="_top" xlink:title="Retrieves the y&#45;coordinate of the hex cell.">
<polygon fill="white" stroke="#666666" points="838.5,-116.9 705.5,-116.9 705.5,-97.9 838.5,-97.9 838.5,-116.9"/>
<text text-anchor="middle" x="772" y="-104.9" font-family="Helvetica,sans-Serif" font-size="10.00">hive::models::Hex::getY</text>
</a>
</g>
</g>
<!-- Node14&#45;&gt;Node17 -->
<g id="edge23_Node000014_Node000017" class="edge">
<title>Node14&#45;&gt;Node17</title>
<g id="a_edge23_Node000014_Node000017"><a xlink:title=" ">
<path fill="none" stroke="#63b8ff" d="M499.72,-101.46C515.82,-105.15 533.5,-108.56 550,-110.4 598.01,-115.77 652.26,-115.13 694.99,-113.1"/>
<polygon fill="#63b8ff" stroke="#63b8ff" points="695.22,-116.59 705.03,-112.58 694.87,-109.6 695.22,-116.59"/>
</a>
</g>
</g>
<!-- Node18 -->
<g id="Node000018" class="node">
<title>Node18</title>
<g id="a_Node000018"><a xlink:href="classhive_1_1models_1_1Hex.html#a6fb2c3680c7bddfddaeff4e356650552" target="_top" xlink:title="Retrieves the z&#45;coordinate of the hex cell.">
<polygon fill="white" stroke="#666666" points="839,-52.9 705,-52.9 705,-33.9 839,-33.9 839,-52.9"/>
<text text-anchor="middle" x="772" y="-40.9" font-family="Helvetica,sans-Serif" font-size="10.00">hive::models::Hex::getZ</text>
</a>
</g>
</g>
<!-- Node14&#45;&gt;Node18 -->
<g id="edge24_Node000014_Node000018" class="edge">
<title>Node14&#45;&gt;Node18</title>
<g id="a_edge24_Node000014_Node000018"><a xlink:title=" ">
<path fill="none" stroke="#63b8ff" d="M498.74,-71.3C504.13,-68.75 509.32,-65.8 514,-62.4 535.57,-46.72 526.15,-26.33 550,-14.4 613.07,17.13 698.32,-10.92 742.23,-29.71"/>
<polygon fill="#63b8ff" stroke="#63b8ff" points="740.89,-32.94 751.45,-33.78 743.72,-26.54 740.89,-32.94"/>
</a>
</g>
</g>
<!-- Node19 -->
<g id="Node000019" class="node">
<title>Node19</title>
<g id="a_Node000019"><a xlink:href="classhive_1_1models_1_1Board.html#adb2633e6c0842bf0ed582c81015e7cb4" target="_top" xlink:title="Retrieves the neighboring hex in the given direction.">
<polygon fill="white" stroke="#666666" points="666.5,-101.4 552.5,-101.4 552.5,-71.4 666.5,-71.4 666.5,-101.4"/>
<text text-anchor="start" x="560.5" y="-89.4" font-family="Helvetica,sans-Serif" font-size="10.00">hive::models::Board</text>
<text text-anchor="middle" x="609.5" y="-78.4" font-family="Helvetica,sans-Serif" font-size="10.00">::neighbor</text>
</a>
</g>
</g>
<!-- Node14&#45;&gt;Node19 -->
<g id="edge25_Node000014_Node000019" class="edge">
<title>Node14&#45;&gt;Node19</title>
<g id="a_edge25_Node000014_Node000019"><a xlink:title=" ">
<path fill="none" stroke="#63b8ff" d="M500.15,-86.4C513.71,-86.4 528.32,-86.4 542.29,-86.4"/>
<polygon fill="#63b8ff" stroke="#63b8ff" points="542.32,-89.9 552.32,-86.4 542.32,-82.9 542.32,-89.9"/>
</a>
</g>
</g>
<!-- Node19&#45;&gt;Node16 -->
<g id="edge26_Node000019_Node000016" class="edge">
<title>Node19&#45;&gt;Node16</title>
<g id="a_edge26_Node000019_Node000016"><a xlink:title=" ">
<path fill="none" stroke="#63b8ff" d="M645.72,-101.55C673.67,-113.56 712.38,-130.2 739.34,-141.79"/>
<polygon fill="#63b8ff" stroke="#63b8ff" points="738.14,-145.09 748.71,-145.82 740.9,-138.65 738.14,-145.09"/>
</a>
</g>
</g>
<!-- Node19&#45;&gt;Node17 -->
<g id="edge27_Node000019_Node000017" class="edge">
<title>Node19&#45;&gt;Node17</title>
<g id="a_edge27_Node000019_Node000017"><a xlink:title=" ">
<path fill="none" stroke="#63b8ff" d="M666.64,-93.75C675.89,-94.96 685.62,-96.23 695.27,-97.49"/>
<polygon fill="#63b8ff" stroke="#63b8ff" points="694.89,-100.98 705.26,-98.8 695.8,-94.03 694.89,-100.98"/>
</a>
</g>
</g>
<!-- Node19&#45;&gt;Node18 -->
<g id="edge28_Node000019_Node000018" class="edge">
<title>Node19&#45;&gt;Node18</title>
<g id="a_edge28_Node000019_Node000018"><a xlink:title=" ">
<path fill="none" stroke="#63b8ff" d="M666.64,-71.36C685.86,-66.21 707.11,-60.52 725.4,-55.62"/>
<polygon fill="#63b8ff" stroke="#63b8ff" points="726.46,-58.96 735.22,-52.99 724.65,-52.2 726.46,-58.96"/>
</a>
</g>
</g>
</g>
</svg>
