<?xml version="1.0" encoding="UTF-8" standalone="no"?>
<!DOCTYPE svg PUBLIC "-//W3C//DTD SVG 1.1//EN"
 "http://www.w3.org/Graphics/SVG/1.1/DTD/svg11.dtd">
<!-- Generated by graphviz version 2.43.0 (0)
 -->
<!-- Title: hive::models::strategies::MoveStrategy Pages: 1 -->
<svg width="170pt" height="509pt"
 viewBox="0.00 0.00 170.00 509.00" xmlns="http://www.w3.org/2000/svg" xmlns:xlink="http://www.w3.org/1999/xlink">
<g id="graph0" class="graph" transform="scale(1 1) rotate(0) translate(4 505)">
<title>hive::models::strategies::MoveStrategy</title>
<!-- Node1 -->
<g id="Node000001" class="node">
<title>Node1</title>
<g id="a_Node000001"><a xlink:title="Abstract class defining the movement strategy for game pieces.">
<polygon fill="#999999" stroke="transparent" points="162,-165 0,-165 0,0 162,0 162,-165"/>
<text text-anchor="start" x="22" y="-152.5" font-family="Helvetica,sans-Serif" font-size="10.00">hive::models::strategies</text>
<text text-anchor="start" x="43.5" y="-141.5" font-family="Helvetica,sans-Serif" font-size="10.00">::MoveStrategy</text>
<text text-anchor="start" x="79" y="-126.5" font-family="Helvetica,sans-Serif" font-size="10.00"> </text>
<text text-anchor="start" x="4" y="-111.5" font-family="Helvetica,sans-Serif" font-size="10.00">+</text>
<text text-anchor="start" x="17" y="-111.5" font-family="Helvetica,sans-Serif" font-size="10.00">MoveStrategy()</text>
<text text-anchor="start" x="4" y="-96.5" font-family="Helvetica,sans-Serif" font-size="10.00">+</text>
<text text-anchor="start" x="17" y="-96.5" font-family="Helvetica,sans-Serif" font-size="10.00">~MoveStrategy()</text>
<text text-anchor="start" x="4" y="-81.5" font-family="Helvetica,sans-Serif" font-size="10.00">+</text>
<text text-anchor="start" x="17" y="-81.5" font-family="Helvetica,sans-Serif" font-size="10.00">getPossibleMoves()</text>
<text text-anchor="start" x="4" y="-66.5" font-family="Helvetica,sans-Serif" font-size="10.00">+</text>
<text text-anchor="start" x="17" y="-66.5" font-family="Helvetica,sans-Serif" font-size="10.00">getPossibleMoves()</text>
<text text-anchor="start" x="4" y="-51.5" font-family="Helvetica,sans-Serif" font-size="10.00">+</text>
<text text-anchor="start" x="17" y="-51.5" font-family="Helvetica,sans-Serif" font-size="10.00">hasPiece()</text>
<text text-anchor="start" x="4" y="-36.5" font-family="Helvetica,sans-Serif" font-size="10.00">+</text>
<text text-anchor="start" x="17" y="-36.5" font-family="Helvetica,sans-Serif" font-size="10.00">getPiece()</text>
<text text-anchor="start" x="4" y="-21.5" font-family="Helvetica,sans-Serif" font-size="10.00">+</text>
<text text-anchor="start" x="17" y="-21.5" font-family="Helvetica,sans-Serif" font-size="10.00">validatePieceOwnership()</text>
<text text-anchor="start" x="4" y="-6.5" font-family="Helvetica,sans-Serif" font-size="10.00">#</text>
<text text-anchor="start" x="17" y="-6.5" font-family="Helvetica,sans-Serif" font-size="10.00">isHiveConnectedAfterMove()</text>
<polygon fill="#666666" stroke="#666666" points="0,-136.5 0,-136.5 162,-136.5 162,-136.5 0,-136.5"/>
<polygon fill="#666666" stroke="#666666" points="0,-121.5 0,-121.5 162,-121.5 162,-121.5 0,-121.5"/>
<polygon fill="none" stroke="#666666" points="0,0 0,-165 162,-165 162,0 0,0"/>
</a>
</g>
</g>
<!-- Node2 -->
<g id="Node000002" class="node">
<title>Node2</title>
<g id="a_Node000002"><a xlink:href="classhive_1_1models_1_1Piece.html" target="_top" xlink:title="Base class representing a generic game piece in the Hive game.">
<polygon fill="white" stroke="transparent" points="137.5,-501 24.5,-501 24.5,-212 137.5,-212 137.5,-501"/>
<text text-anchor="start" x="33.5" y="-488.5" font-family="Helvetica,sans-Serif" font-size="10.00">hive::models::Piece</text>
<text text-anchor="start" x="29" y="-473.5" font-family="Helvetica,sans-Serif" font-size="10.00">#</text>
<text text-anchor="start" x="42" y="-473.5" font-family="Helvetica,sans-Serif" font-size="10.00">id</text>
<text text-anchor="start" x="29" y="-458.5" font-family="Helvetica,sans-Serif" font-size="10.00">#</text>
<text text-anchor="start" x="42" y="-458.5" font-family="Helvetica,sans-Serif" font-size="10.00">type</text>
<text text-anchor="start" x="29" y="-443.5" font-family="Helvetica,sans-Serif" font-size="10.00">#</text>
<text text-anchor="start" x="42" y="-443.5" font-family="Helvetica,sans-Serif" font-size="10.00">moveStrategy</text>
<text text-anchor="start" x="29" y="-428.5" font-family="Helvetica,sans-Serif" font-size="10.00">#</text>
<text text-anchor="start" x="42" y="-428.5" font-family="Helvetica,sans-Serif" font-size="10.00">owner</text>
<text text-anchor="start" x="29" y="-413.5" font-family="Helvetica,sans-Serif" font-size="10.00">#</text>
<text text-anchor="start" x="42" y="-413.5" font-family="Helvetica,sans-Serif" font-size="10.00">position</text>
<text text-anchor="start" x="29" y="-398.5" font-family="Helvetica,sans-Serif" font-size="10.00">#</text>
<text text-anchor="start" x="42" y="-398.5" font-family="Helvetica,sans-Serif" font-size="10.00">pieceNextId</text>
<text text-anchor="start" x="29" y="-383.5" font-family="Helvetica,sans-Serif" font-size="10.00">+</text>
<text text-anchor="start" x="42" y="-383.5" font-family="Helvetica,sans-Serif" font-size="10.00">~Piece()</text>
<text text-anchor="start" x="29" y="-368.5" font-family="Helvetica,sans-Serif" font-size="10.00">+</text>
<text text-anchor="start" x="42" y="-368.5" font-family="Helvetica,sans-Serif" font-size="10.00">Piece()</text>
<text text-anchor="start" x="29" y="-353.5" font-family="Helvetica,sans-Serif" font-size="10.00">+</text>
<text text-anchor="start" x="42" y="-353.5" font-family="Helvetica,sans-Serif" font-size="10.00">operator=()</text>
<text text-anchor="start" x="29" y="-338.5" font-family="Helvetica,sans-Serif" font-size="10.00">+</text>
<text text-anchor="start" x="42" y="-338.5" font-family="Helvetica,sans-Serif" font-size="10.00">Piece()</text>
<text text-anchor="start" x="29" y="-323.5" font-family="Helvetica,sans-Serif" font-size="10.00">+</text>
<text text-anchor="start" x="42" y="-323.5" font-family="Helvetica,sans-Serif" font-size="10.00">operator=()</text>
<text text-anchor="start" x="29" y="-308.5" font-family="Helvetica,sans-Serif" font-size="10.00">+</text>
<text text-anchor="start" x="42" y="-308.5" font-family="Helvetica,sans-Serif" font-size="10.00">getId()</text>
<text text-anchor="start" x="29" y="-293.5" font-family="Helvetica,sans-Serif" font-size="10.00">+</text>
<text text-anchor="start" x="42" y="-293.5" font-family="Helvetica,sans-Serif" font-size="10.00">getType()</text>
<text text-anchor="start" x="29" y="-278.5" font-family="Helvetica,sans-Serif" font-size="10.00">+</text>
<text text-anchor="start" x="42" y="-278.5" font-family="Helvetica,sans-Serif" font-size="10.00">getMoveStrategy()</text>
<text text-anchor="start" x="29" y="-263.5" font-family="Helvetica,sans-Serif" font-size="10.00">+</text>
<text text-anchor="start" x="42" y="-263.5" font-family="Helvetica,sans-Serif" font-size="10.00">getOwner()</text>
<text text-anchor="start" x="29" y="-248.5" font-family="Helvetica,sans-Serif" font-size="10.00">+</text>
<text text-anchor="start" x="42" y="-248.5" font-family="Helvetica,sans-Serif" font-size="10.00">getPosition()</text>
<text text-anchor="start" x="42" y="-233.5" font-family="Helvetica,sans-Serif" font-size="10.00">and 9 more...</text>
<text text-anchor="start" x="29" y="-218.5" font-family="Helvetica,sans-Serif" font-size="10.00">#</text>
<text text-anchor="start" x="42" y="-218.5" font-family="Helvetica,sans-Serif" font-size="10.00">Piece()</text>
<polygon fill="#666666" stroke="#666666" points="25,-483.5 25,-483.5 138,-483.5 138,-483.5 25,-483.5"/>
<polygon fill="#666666" stroke="#666666" points="25,-393.5 25,-393.5 40,-393.5 40,-393.5 25,-393.5"/>
<polygon fill="#666666" stroke="#666666" points="40,-393.5 40,-393.5 138,-393.5 138,-393.5 40,-393.5"/>
<polygon fill="none" stroke="#666666" points="24.5,-212 24.5,-501 137.5,-501 137.5,-212 24.5,-212"/>
</a>
</g>
</g>
<!-- Node2&#45;&gt;Node1 -->
<g id="edge1_Node000001_Node000002" class="edge">
<title>Node2&#45;&gt;Node1</title>
<g id="a_edge1_Node000001_Node000002"><a xlink:title=" ">
<path fill="none" stroke="#63b8ff" d="M81,-211.93C81,-200.33 81,-188.81 81,-177.7"/>
<polygon fill="none" stroke="#63b8ff" points="81,-177.34 77,-171.34 81,-165.34 85,-171.34 81,-177.34"/>
</a>
</g>
<text text-anchor="middle" x="100" y="-186" font-family="Helvetica,sans-Serif" font-size="10.00" fill="grey"> #piece</text>
</g>
</g>
</svg>
