<?xml version="1.0" encoding="UTF-8" standalone="no"?>
<!DOCTYPE svg PUBLIC "-//W3C//DTD SVG 1.1//EN"
 "http://www.w3.org/Graphics/SVG/1.1/DTD/svg11.dtd">
<!-- Generated by graphviz version 2.43.0 (0)
 -->
<!-- Title: hive::models::Board::neighborsNotOccupied Pages: 1 -->
<svg width="640pt" height="86pt"
 viewBox="0.00 0.00 640.00 86.00" xmlns="http://www.w3.org/2000/svg" xmlns:xlink="http://www.w3.org/1999/xlink">
<g id="graph0" class="graph" transform="scale(1 1) rotate(0) translate(4 82)">
<title>hive::models::Board::neighborsNotOccupied</title>
<!-- Node1 -->
<g id="Node000001" class="node">
<title>Node1</title>
<g id="a_Node000001"><a xlink:title="Retrieves all hexes surrounding a specific hex location that are available.">
<polygon fill="#999999" stroke="#666666" points="632,-54 499,-54 499,-24 632,-24 632,-54"/>
<text text-anchor="start" x="507" y="-42" font-family="Helvetica,sans-Serif" font-size="10.00">hive::models::Board</text>
<text text-anchor="middle" x="565.5" y="-31" font-family="Helvetica,sans-Serif" font-size="10.00">::neighborsNotOccupied</text>
</a>
</g>
</g>
<!-- Node2 -->
<g id="Node000002" class="node">
<title>Node2</title>
<g id="a_Node000002"><a xlink:href="classhive_1_1models_1_1strategies_1_1SpiderMoveStrategy.html#ac18634300b493661ce8b86d6431bee58" target="_top" xlink:title="Recursively explores the reachable positions for the Spider.">
<polygon fill="white" stroke="#666666" points="463,-54 251,-54 251,-24 463,-24 463,-54"/>
<text text-anchor="start" x="259" y="-42" font-family="Helvetica,sans-Serif" font-size="10.00">hive::models::strategies</text>
<text text-anchor="middle" x="357" y="-31" font-family="Helvetica,sans-Serif" font-size="10.00">::SpiderMoveStrategy::spiderExploration</text>
</a>
</g>
</g>
<!-- Node1&#45;&gt;Node2 -->
<g id="edge1_Node000001_Node000002" class="edge">
<title>Node1&#45;&gt;Node2</title>
<g id="a_edge1_Node000001_Node000002"><a xlink:title=" ">
<path fill="none" stroke="#63b8ff" d="M488.78,-39C480.38,-39 471.72,-39 463.05,-39"/>
<polygon fill="#63b8ff" stroke="#63b8ff" points="488.88,-42.5 498.88,-39 488.88,-35.5 488.88,-42.5"/>
</a>
</g>
</g>
<!-- Node2&#45;&gt;Node2 -->
<g id="edge4_Node000002_Node000002" class="edge">
<title>Node2&#45;&gt;Node2</title>
<g id="a_edge4_Node000002_Node000002"><a xlink:title=" ">
<path fill="none" stroke="#63b8ff" d="M393.41,-64.6C388.43,-68.97 376.3,-72 357,-72 324.5,-72 312.31,-63.41 320.44,-54.28"/>
<polygon fill="#63b8ff" stroke="#63b8ff" points="396.91,-64.33 393.56,-54.28 389.91,-64.22 396.91,-64.33"/>
</a>
</g>
</g>
<!-- Node3 -->
<g id="Node000003" class="node">
<title>Node3</title>
<g id="a_Node000003"><a xlink:href="classhive_1_1models_1_1strategies_1_1SpiderMoveStrategy.html#a36c03d48c53daa99e5b6c5dcd1045e52" target="_top" xlink:title="Calculates the possible moves for the Spider piece.">
<polygon fill="white" stroke="#666666" points="215,-78 0,-78 0,-48 215,-48 215,-78"/>
<text text-anchor="start" x="8" y="-66" font-family="Helvetica,sans-Serif" font-size="10.00">hive::models::strategies</text>
<text text-anchor="middle" x="107.5" y="-55" font-family="Helvetica,sans-Serif" font-size="10.00">::SpiderMoveStrategy::getPossibleMoves</text>
</a>
</g>
</g>
<!-- Node2&#45;&gt;Node3 -->
<g id="edge2_Node000002_Node000003" class="edge">
<title>Node2&#45;&gt;Node3</title>
<g id="a_edge2_Node000002_Node000003"><a xlink:title=" ">
<path fill="none" stroke="#63b8ff" d="M240.48,-50.2C232.09,-51.02 223.64,-51.83 215.31,-52.64"/>
<polygon fill="#63b8ff" stroke="#63b8ff" points="241.06,-53.66 250.68,-49.21 240.39,-46.69 241.06,-53.66"/>
</a>
</g>
</g>
<!-- Node4 -->
<g id="Node000004" class="node">
<title>Node4</title>
<g id="a_Node000004"><a xlink:href="classhive_1_1models_1_1strategies_1_1SpiderMoveStrategy.html#a7bf42d7c9c3effd582ea0b38745be80d" target="_top" xlink:title=" ">
<polygon fill="white" stroke="#666666" points="215,-30 0,-30 0,0 215,0 215,-30"/>
<text text-anchor="start" x="8" y="-18" font-family="Helvetica,sans-Serif" font-size="10.00">hive::models::strategies</text>
<text text-anchor="middle" x="107.5" y="-7" font-family="Helvetica,sans-Serif" font-size="10.00">::SpiderMoveStrategy::getPossibleMoves</text>
</a>
</g>
</g>
<!-- Node2&#45;&gt;Node4 -->
<g id="edge3_Node000002_Node000004" class="edge">
<title>Node2&#45;&gt;Node4</title>
<g id="a_edge3_Node000002_Node000004"><a xlink:title=" ">
<path fill="none" stroke="#63b8ff" d="M240.48,-27.8C232.09,-26.98 223.64,-26.17 215.31,-25.36"/>
<polygon fill="#63b8ff" stroke="#63b8ff" points="240.39,-31.31 250.68,-28.79 241.06,-24.34 240.39,-31.31"/>
</a>
</g>
</g>
</g>
</svg>
