<?xml version="1.0" encoding="UTF-8" standalone="no"?>
<!DOCTYPE svg PUBLIC "-//W3C//DTD SVG 1.1//EN"
 "http://www.w3.org/Graphics/SVG/1.1/DTD/svg11.dtd">
<!-- Generated by graphviz version 2.43.0 (0)
 -->
<!-- Title: hive::models::Move::getPlayer Pages: 1 -->
<svg width="2107pt" height="459pt"
 viewBox="0.00 0.00 2107.00 459.17" xmlns="http://www.w3.org/2000/svg" xmlns:xlink="http://www.w3.org/1999/xlink">
<g id="graph0" class="graph" transform="scale(1 1) rotate(0) translate(4 455.17)">
<title>hive::models::Move::getPlayer</title>
<!-- Node1 -->
<g id="Node000001" class="node">
<title>Node1</title>
<g id="a_Node000001"><a xlink:title="Retrieves the player who made the move.">
<polygon fill="#999999" stroke="#666666" points="2099,-176.03 1986,-176.03 1986,-146.03 2099,-146.03 2099,-176.03"/>
<text text-anchor="start" x="1994" y="-164.03" font-family="Helvetica,sans-Serif" font-size="10.00">hive::models::Move</text>
<text text-anchor="middle" x="2042.5" y="-153.03" font-family="Helvetica,sans-Serif" font-size="10.00">::getPlayer</text>
</a>
</g>
</g>
<!-- Node2 -->
<g id="Node000002" class="node">
<title>Node2</title>
<g id="a_Node000002"><a xlink:href="classhive_1_1models_1_1Move.html#ac96a1f192d6f14594b7ab1a0d048855a" target="_top" xlink:title="Executes the move on the specified game board.">
<polygon fill="white" stroke="#666666" points="1757.5,-134.03 1644.5,-134.03 1644.5,-104.03 1757.5,-104.03 1757.5,-134.03"/>
<text text-anchor="start" x="1652.5" y="-122.03" font-family="Helvetica,sans-Serif" font-size="10.00">hive::models::Move</text>
<text text-anchor="middle" x="1701" y="-111.03" font-family="Helvetica,sans-Serif" font-size="10.00">::execute</text>
</a>
</g>
</g>
<!-- Node1&#45;&gt;Node2 -->
<g id="edge1_Node000001_Node000002" class="edge">
<title>Node1&#45;&gt;Node2</title>
<g id="a_edge1_Node000001_Node000002"><a xlink:title=" ">
<path fill="none" stroke="#63b8ff" d="M1981.25,-143.55C1970.9,-141.03 1960.19,-138.72 1950,-137.03 1884.42,-126.15 1807.99,-121.84 1757.5,-120.14"/>
<polygon fill="#63b8ff" stroke="#63b8ff" points="1980.49,-146.97 1991.04,-146.02 1982.2,-140.18 1980.49,-146.97"/>
</a>
</g>
</g>
<!-- Node20 -->
<g id="Node000020" class="node">
<title>Node20</title>
<g id="a_Node000020"><a xlink:href="classhive_1_1models_1_1Move.html#a0ee33acafca8c73d6e100b7fbe28747c" target="_top" xlink:title="Undoes the move on the specified game board.">
<polygon fill="white" stroke="#666666" points="1935.5,-90.03 1822.5,-90.03 1822.5,-60.03 1935.5,-60.03 1935.5,-90.03"/>
<text text-anchor="start" x="1830.5" y="-78.03" font-family="Helvetica,sans-Serif" font-size="10.00">hive::models::Move</text>
<text text-anchor="middle" x="1879" y="-67.03" font-family="Helvetica,sans-Serif" font-size="10.00">::undo</text>
</a>
</g>
</g>
<!-- Node1&#45;&gt;Node20 -->
<g id="edge24_Node000001_Node000020" class="edge">
<title>Node1&#45;&gt;Node20</title>
<g id="a_edge24_Node000001_Node000020"><a xlink:title=" ">
<path fill="none" stroke="#63b8ff" d="M2010.91,-140.21C1993.48,-128.8 1970.98,-114.82 1950,-104.03 1940.41,-99.1 1929.78,-94.35 1919.76,-90.17"/>
<polygon fill="#63b8ff" stroke="#63b8ff" points="2009.27,-143.32 2019.54,-145.92 2013.13,-137.48 2009.27,-143.32"/>
</a>
</g>
</g>
<!-- Node21 -->
<g id="Node000021" class="node">
<title>Node21</title>
<g id="a_Node000021"><a xlink:href="classhive_1_1models_1_1GameRules.html#af4639bd9adac498eff29a16e03fc8165" target="_top" xlink:title="Validates a move according to its type.">
<polygon fill="white" stroke="#666666" points="1772,-223.03 1630,-223.03 1630,-193.03 1772,-193.03 1772,-223.03"/>
<text text-anchor="start" x="1638" y="-211.03" font-family="Helvetica,sans-Serif" font-size="10.00">hive::models::GameRules</text>
<text text-anchor="middle" x="1701" y="-200.03" font-family="Helvetica,sans-Serif" font-size="10.00">::validateMove</text>
</a>
</g>
</g>
<!-- Node1&#45;&gt;Node21 -->
<g id="edge25_Node000001_Node000021" class="edge">
<title>Node1&#45;&gt;Node21</title>
<g id="a_edge25_Node000001_Node000021"><a xlink:title=" ">
<path fill="none" stroke="#63b8ff" d="M2021.28,-183.64C2004.23,-200.88 1978.16,-223.28 1950,-233.03 1881.1,-256.89 1795.46,-238.51 1744.96,-223.16"/>
<polygon fill="#63b8ff" stroke="#63b8ff" points="2024.07,-185.79 2028.45,-176.14 2019.01,-180.95 2024.07,-185.79"/>
</a>
</g>
</g>
<!-- Node29 -->
<g id="Node000029" class="node">
<title>Node29</title>
<g id="a_Node000029"><a xlink:href="classhive_1_1models_1_1GameRules.html#afe688c8e8c742ccf08a21fdebcb75e4b" target="_top" xlink:title="Validates a MOVE&#45;type move.">
<polygon fill="white" stroke="#666666" points="1950,-224.03 1808,-224.03 1808,-194.03 1950,-194.03 1950,-224.03"/>
<text text-anchor="start" x="1816" y="-212.03" font-family="Helvetica,sans-Serif" font-size="10.00">hive::models::GameRules</text>
<text text-anchor="middle" x="1879" y="-201.03" font-family="Helvetica,sans-Serif" font-size="10.00">::validateMoveType</text>
</a>
</g>
</g>
<!-- Node1&#45;&gt;Node29 -->
<g id="edge47_Node000001_Node000029" class="edge">
<title>Node1&#45;&gt;Node29</title>
<g id="a_edge47_Node000001_Node000029"><a xlink:title=" ">
<path fill="none" stroke="#63b8ff" d="M1981.18,-178.96C1964.49,-183.92 1946.55,-189.25 1930.48,-194.03"/>
<polygon fill="#63b8ff" stroke="#63b8ff" points="1982.26,-182.29 1990.84,-176.09 1980.26,-175.58 1982.26,-182.29"/>
</a>
</g>
</g>
<!-- Node30 -->
<g id="Node000030" class="node">
<title>Node30</title>
<g id="a_Node000030"><a xlink:href="classhive_1_1models_1_1GameRules.html#a274494ae501490148c2233171d8bb65d" target="_top" xlink:title="Validates a PLACE&#45;type move.">
<polygon fill="white" stroke="#666666" points="1950,-176.03 1808,-176.03 1808,-146.03 1950,-146.03 1950,-176.03"/>
<text text-anchor="start" x="1816" y="-164.03" font-family="Helvetica,sans-Serif" font-size="10.00">hive::models::GameRules</text>
<text text-anchor="middle" x="1879" y="-153.03" font-family="Helvetica,sans-Serif" font-size="10.00">::validatePlaceType</text>
</a>
</g>
</g>
<!-- Node1&#45;&gt;Node30 -->
<g id="edge49_Node000001_Node000030" class="edge">
<title>Node1&#45;&gt;Node30</title>
<g id="a_edge49_Node000001_Node000030"><a xlink:title=" ">
<path fill="none" stroke="#63b8ff" d="M1975.79,-161.03C1967.37,-161.03 1958.72,-161.03 1950.23,-161.03"/>
<polygon fill="#63b8ff" stroke="#63b8ff" points="1975.92,-164.53 1985.92,-161.03 1975.92,-157.53 1975.92,-164.53"/>
</a>
</g>
</g>
<!-- Node3 -->
<g id="Node000003" class="node">
<title>Node3</title>
<g id="a_Node000003"><a xlink:href="classhive_1_1models_1_1Game.html#a8c86b067e124d8b323c77d37397ae2ad" target="_top" xlink:title="Executes a move for the current player.">
<polygon fill="white" stroke="#666666" points="1571,-134.03 1456,-134.03 1456,-104.03 1571,-104.03 1571,-134.03"/>
<text text-anchor="start" x="1464" y="-122.03" font-family="Helvetica,sans-Serif" font-size="10.00">hive::models::Game</text>
<text text-anchor="middle" x="1513.5" y="-111.03" font-family="Helvetica,sans-Serif" font-size="10.00">::executeMove</text>
</a>
</g>
</g>
<!-- Node2&#45;&gt;Node3 -->
<g id="edge2_Node000002_Node000003" class="edge">
<title>Node2&#45;&gt;Node3</title>
<g id="a_edge2_Node000002_Node000003"><a xlink:title=" ">
<path fill="none" stroke="#63b8ff" d="M1634.09,-119.03C1613.5,-119.03 1590.97,-119.03 1571.08,-119.03"/>
<polygon fill="#63b8ff" stroke="#63b8ff" points="1634.34,-122.53 1644.34,-119.03 1634.34,-115.53 1634.34,-122.53"/>
</a>
</g>
</g>
<!-- Node4 -->
<g id="Node000004" class="node">
<title>Node4</title>
<g id="a_Node000004"><a xlink:href="classhive_1_1controllers_1_1cli_1_1CLIController.html#afddc0cdff435f4c4379eda9707aec1e2" target="_top" xlink:title=" ">
<polygon fill="white" stroke="#666666" points="1354.5,-82.53 1251.5,-82.53 1251.5,-41.53 1354.5,-41.53 1354.5,-82.53"/>
<text text-anchor="start" x="1259.5" y="-70.53" font-family="Helvetica,sans-Serif" font-size="10.00">hive::controllers::</text>
<text text-anchor="start" x="1259.5" y="-59.53" font-family="Helvetica,sans-Serif" font-size="10.00">cli::CLIController::</text>
<text text-anchor="middle" x="1303" y="-48.53" font-family="Helvetica,sans-Serif" font-size="10.00">movePiece</text>
</a>
</g>
</g>
<!-- Node3&#45;&gt;Node4 -->
<g id="edge3_Node000003_Node000004" class="edge">
<title>Node3&#45;&gt;Node4</title>
<g id="a_edge3_Node000003_Node000004"><a xlink:title=" ">
<path fill="none" stroke="#63b8ff" d="M1447.51,-101.26C1417.6,-93.09 1382.64,-83.53 1354.71,-75.89"/>
<polygon fill="#63b8ff" stroke="#63b8ff" points="1446.88,-104.72 1457.45,-103.98 1448.72,-97.97 1446.88,-104.72"/>
</a>
</g>
</g>
<!-- Node9 -->
<g id="Node000009" class="node">
<title>Node9</title>
<g id="a_Node000009"><a xlink:href="classGameWindow.html#a56419355dbf68fa9e8240bf4f630352e" target="_top" xlink:title=" ">
<polygon fill="white" stroke="#666666" points="946,-263.53 802,-263.53 802,-244.53 946,-244.53 946,-263.53"/>
<text text-anchor="middle" x="874" y="-251.53" font-family="Helvetica,sans-Serif" font-size="10.00">GameWindow::movePiece</text>
</a>
</g>
</g>
<!-- Node3&#45;&gt;Node9 -->
<g id="edge8_Node000003_Node000009" class="edge">
<title>Node3&#45;&gt;Node9</title>
<g id="a_edge8_Node000003_Node000009"><a xlink:title=" ">
<path fill="none" stroke="#63b8ff" d="M1449.66,-136.7C1432.63,-141.27 1414.15,-146.02 1397,-150.03 1227.15,-189.7 1024,-227.41 928.98,-244.48"/>
<polygon fill="#63b8ff" stroke="#63b8ff" points="1450.76,-140.03 1459.5,-134.04 1448.93,-133.27 1450.76,-140.03"/>
</a>
</g>
</g>
<!-- Node18 -->
<g id="Node000018" class="node">
<title>Node18</title>
<g id="a_Node000018"><a xlink:href="classGameWindow.html#a379160a41f8d7e154cde54cec0c13393" target="_top" xlink:title=" ">
<polygon fill="white" stroke="#666666" points="547,-225.53 404,-225.53 404,-206.53 547,-206.53 547,-225.53"/>
<text text-anchor="middle" x="475.5" y="-213.53" font-family="Helvetica,sans-Serif" font-size="10.00">GameWindow::placePiece</text>
</a>
</g>
</g>
<!-- Node3&#45;&gt;Node18 -->
<g id="edge23_Node000003_Node000018" class="edge">
<title>Node3&#45;&gt;Node18</title>
<g id="a_edge23_Node000003_Node000018"><a xlink:title=" ">
<path fill="none" stroke="#63b8ff" d="M1490.83,-96.6C1469.22,-75.83 1433.99,-46.1 1397,-32.03 1264.25,18.47 1220.53,-6.03 1078.5,-6.03 1078.5,-6.03 1078.5,-6.03 873,-6.03 744.51,-6.03 701.82,-9.7 593,-78.03 538.3,-112.38 496.2,-180.81 481.84,-206.23"/>
<polygon fill="#63b8ff" stroke="#63b8ff" points="1488.57,-99.29 1498.16,-103.8 1493.48,-94.3 1488.57,-99.29"/>
</a>
</g>
</g>
<!-- Node19 -->
<g id="Node000019" class="node">
<title>Node19</title>
<g id="a_Node000019"><a xlink:href="classhive_1_1controllers_1_1cli_1_1CLIController.html#a10a8cd7f81a293a29f121c62cb42044f" target="_top" xlink:title=" ">
<polygon fill="white" stroke="#666666" points="1354.5,-141.53 1251.5,-141.53 1251.5,-100.53 1354.5,-100.53 1354.5,-141.53"/>
<text text-anchor="start" x="1259.5" y="-129.53" font-family="Helvetica,sans-Serif" font-size="10.00">hive::controllers::</text>
<text text-anchor="start" x="1259.5" y="-118.53" font-family="Helvetica,sans-Serif" font-size="10.00">cli::CLIController::</text>
<text text-anchor="middle" x="1303" y="-107.53" font-family="Helvetica,sans-Serif" font-size="10.00">placePiece</text>
</a>
</g>
</g>
<!-- Node3&#45;&gt;Node19 -->
<g id="edge21_Node000003_Node000019" class="edge">
<title>Node3&#45;&gt;Node19</title>
<g id="a_edge21_Node000003_Node000019"><a xlink:title=" ">
<path fill="none" stroke="#63b8ff" d="M1445.58,-119.67C1416.07,-119.96 1381.97,-120.28 1354.64,-120.55"/>
<polygon fill="#63b8ff" stroke="#63b8ff" points="1445.84,-123.17 1455.8,-119.57 1445.77,-116.17 1445.84,-123.17"/>
</a>
</g>
</g>
<!-- Node5 -->
<g id="Node000005" class="node">
<title>Node5</title>
<g id="a_Node000005"><a xlink:href="classhive_1_1controllers_1_1cli_1_1CLIController.html#abdc584083fcdee33df53409497cac430" target="_top" xlink:title=" ">
<polygon fill="white" stroke="#666666" points="1129,-97.53 1026,-97.53 1026,-56.53 1129,-56.53 1129,-97.53"/>
<text text-anchor="start" x="1034" y="-85.53" font-family="Helvetica,sans-Serif" font-size="10.00">hive::controllers::</text>
<text text-anchor="start" x="1034" y="-74.53" font-family="Helvetica,sans-Serif" font-size="10.00">cli::CLIController::</text>
<text text-anchor="middle" x="1077.5" y="-63.53" font-family="Helvetica,sans-Serif" font-size="10.00">handleCommand</text>
</a>
</g>
</g>
<!-- Node4&#45;&gt;Node5 -->
<g id="edge4_Node000004_Node000005" class="edge">
<title>Node4&#45;&gt;Node5</title>
<g id="a_edge4_Node000004_Node000005"><a xlink:title=" ">
<path fill="none" stroke="#63b8ff" d="M1241.14,-66.12C1205.98,-68.48 1162.26,-71.41 1129.01,-73.64"/>
<polygon fill="#63b8ff" stroke="#63b8ff" points="1241.54,-69.6 1251.28,-65.43 1241.07,-62.61 1241.54,-69.6"/>
</a>
</g>
</g>
<!-- Node6 -->
<g id="Node000006" class="node">
<title>Node6</title>
<g id="a_Node000006"><a xlink:href="classhive_1_1controllers_1_1cli_1_1CLIController.html#af90a649a6748372a139ad3fd0957dadb" target="_top" xlink:title=" ">
<polygon fill="white" stroke="#666666" points="933.5,-112.03 814.5,-112.03 814.5,-82.03 933.5,-82.03 933.5,-112.03"/>
<text text-anchor="start" x="822.5" y="-100.03" font-family="Helvetica,sans-Serif" font-size="10.00">hive::controllers::</text>
<text text-anchor="middle" x="874" y="-89.03" font-family="Helvetica,sans-Serif" font-size="10.00">cli::CLIController::run</text>
</a>
</g>
</g>
<!-- Node5&#45;&gt;Node6 -->
<g id="edge5_Node000005_Node000006" class="edge">
<title>Node5&#45;&gt;Node6</title>
<g id="a_edge5_Node000005_Node000006"><a xlink:title=" ">
<path fill="none" stroke="#63b8ff" d="M1015.81,-83.05C989.83,-85.63 959.6,-88.63 933.83,-91.19"/>
<polygon fill="#63b8ff" stroke="#63b8ff" points="1016.31,-86.52 1025.91,-82.05 1015.62,-79.56 1016.31,-86.52"/>
</a>
</g>
</g>
<!-- Node8 -->
<g id="Node000008" class="node">
<title>Node8</title>
<g id="a_Node000008"><a xlink:href="classhive_1_1controllers_1_1cli_1_1CLIController.html#a477d6c1bf15f3024dde28b75d642753c" target="_top" xlink:title=" ">
<polygon fill="white" stroke="#666666" points="933.5,-64.03 814.5,-64.03 814.5,-34.03 933.5,-34.03 933.5,-64.03"/>
<text text-anchor="start" x="822.5" y="-52.03" font-family="Helvetica,sans-Serif" font-size="10.00">hive::controllers::</text>
<text text-anchor="middle" x="874" y="-41.03" font-family="Helvetica,sans-Serif" font-size="10.00">cli::CLIController::run</text>
</a>
</g>
</g>
<!-- Node5&#45;&gt;Node8 -->
<g id="edge7_Node000005_Node000008" class="edge">
<title>Node5&#45;&gt;Node8</title>
<g id="a_edge7_Node000005_Node000008"><a xlink:title=" ">
<path fill="none" stroke="#63b8ff" d="M1015.81,-68.6C989.83,-64.99 959.6,-60.79 933.83,-57.21"/>
<polygon fill="#63b8ff" stroke="#63b8ff" points="1015.53,-72.09 1025.91,-70 1016.49,-65.16 1015.53,-72.09"/>
</a>
</g>
</g>
<!-- Node7 -->
<g id="Node000007" class="node">
<title>Node7</title>
<g id="a_Node000007"><a xlink:href="main__cli_8cpp.html#a7114aa2dd6837734db57667a298dfcc4" target="_top" xlink:title=" ">
<polygon fill="white" stroke="#666666" points="700,-106.53 659,-106.53 659,-87.53 700,-87.53 700,-106.53"/>
<text text-anchor="middle" x="679.5" y="-94.53" font-family="Helvetica,sans-Serif" font-size="10.00">main</text>
</a>
</g>
</g>
<!-- Node6&#45;&gt;Node7 -->
<g id="edge6_Node000006_Node000007" class="edge">
<title>Node6&#45;&gt;Node7</title>
<g id="a_edge6_Node000006_Node000007"><a xlink:title=" ">
<path fill="none" stroke="#63b8ff" d="M804.22,-97.03C767.31,-97.03 724.52,-97.03 700.16,-97.03"/>
<polygon fill="#63b8ff" stroke="#63b8ff" points="804.46,-100.53 814.46,-97.03 804.46,-93.53 804.46,-100.53"/>
</a>
</g>
</g>
<!-- Node10 -->
<g id="Node000010" class="node">
<title>Node10</title>
<g id="a_Node000010"><a xlink:href="classGameWindow.html#ada8c32048b32506944bd7f10bca9d232" target="_top" xlink:title=" ">
<polygon fill="white" stroke="#666666" points="756.5,-301.53 602.5,-301.53 602.5,-282.53 756.5,-282.53 756.5,-301.53"/>
<text text-anchor="middle" x="679.5" y="-289.53" font-family="Helvetica,sans-Serif" font-size="10.00">GameWindow::displayBoard</text>
</a>
</g>
</g>
<!-- Node9&#45;&gt;Node10 -->
<g id="edge9_Node000009_Node000010" class="edge">
<title>Node9&#45;&gt;Node10</title>
<g id="a_edge9_Node000009_Node000010"><a xlink:title=" ">
<path fill="none" stroke="#63b8ff" d="M791.84,-263.38C760.68,-269.22 727.34,-276.45 705.36,-282.41"/>
<polygon fill="#63b8ff" stroke="#63b8ff" points="792.67,-266.78 801.87,-261.53 791.4,-259.9 792.67,-266.78"/>
</a>
</g>
</g>
<!-- Node10&#45;&gt;Node9 -->
<g id="edge13_Node000010_Node000009" class="edge">
<title>Node10&#45;&gt;Node9</title>
<g id="a_edge13_Node000010_Node000009"><a xlink:title=" ">
<path fill="none" stroke="#63b8ff" d="M766.71,-281.73C796.42,-276.06 827.43,-269.27 848.23,-263.62"/>
<polygon fill="#63b8ff" stroke="#63b8ff" points="765.88,-278.32 756.7,-283.61 767.17,-285.2 765.88,-278.32"/>
</a>
</g>
</g>
<!-- Node11 -->
<g id="Node000011" class="node">
<title>Node11</title>
<g id="a_Node000011"><a xlink:href="classGameWindow.html#ac53fea4b030b13de4f300ee04ced1c89" target="_top" xlink:title=" ">
<polygon fill="white" stroke="#666666" points="552.5,-324.03 398.5,-324.03 398.5,-294.03 552.5,-294.03 552.5,-324.03"/>
<text text-anchor="start" x="406.5" y="-312.03" font-family="Helvetica,sans-Serif" font-size="10.00">GameWindow::createDefaut</text>
<text text-anchor="middle" x="475.5" y="-301.03" font-family="Helvetica,sans-Serif" font-size="10.00">Config</text>
</a>
</g>
</g>
<!-- Node10&#45;&gt;Node11 -->
<g id="edge10_Node000010_Node000011" class="edge">
<title>Node10&#45;&gt;Node11</title>
<g id="a_edge10_Node000010_Node000011"><a xlink:title=" ">
<path fill="none" stroke="#63b8ff" d="M592.37,-299.28C579.12,-300.39 565.52,-301.54 552.51,-302.63"/>
<polygon fill="#63b8ff" stroke="#63b8ff" points="592.75,-302.76 602.42,-298.43 592.16,-295.78 592.75,-302.76"/>
</a>
</g>
</g>
<!-- Node14 -->
<g id="Node000014" class="node">
<title>Node14</title>
<g id="a_Node000014"><a xlink:href="classGameWindow.html#a3d2d2afbc20fe6f9c494556bfbf39d5b" target="_top" xlink:title=" ">
<polygon fill="white" stroke="#666666" points="556.5,-377.53 394.5,-377.53 394.5,-358.53 556.5,-358.53 556.5,-377.53"/>
<text text-anchor="middle" x="475.5" y="-365.53" font-family="Helvetica,sans-Serif" font-size="10.00">GameWindow::onRedoClicked</text>
</a>
</g>
</g>
<!-- Node10&#45;&gt;Node14 -->
<g id="edge14_Node000010_Node000014" class="edge">
<title>Node10&#45;&gt;Node14</title>
<g id="a_edge14_Node000010_Node000014"><a xlink:title=" ">
<path fill="none" stroke="#63b8ff" d="M643.47,-305.21C603.07,-320.41 537.66,-345.02 501.88,-358.48"/>
<polygon fill="#63b8ff" stroke="#63b8ff" points="644.79,-308.45 652.92,-301.66 642.32,-301.9 644.79,-308.45"/>
</a>
</g>
</g>
<!-- Node17 -->
<g id="Node000017" class="node">
<title>Node17</title>
<g id="a_Node000017"><a xlink:href="classGameWindow.html#a3f8581191baa90b0e963a80102c87be7" target="_top" xlink:title=" ">
<polygon fill="white" stroke="#666666" points="557,-433.53 394,-433.53 394,-414.53 557,-414.53 557,-433.53"/>
<text text-anchor="middle" x="475.5" y="-421.53" font-family="Helvetica,sans-Serif" font-size="10.00">GameWindow::onUndoClicked</text>
</a>
</g>
</g>
<!-- Node10&#45;&gt;Node17 -->
<g id="edge17_Node000010_Node000017" class="edge">
<title>Node10&#45;&gt;Node17</title>
<g id="a_edge17_Node000010_Node000017"><a xlink:title=" ">
<path fill="none" stroke="#63b8ff" d="M660.5,-308.3C637.6,-328.46 596.3,-363.08 557,-387.03 539.14,-397.92 517.53,-407.68 501.21,-414.44"/>
<polygon fill="#63b8ff" stroke="#63b8ff" points="662.92,-310.84 668.06,-301.57 658.27,-305.6 662.92,-310.84"/>
</a>
</g>
</g>
<!-- Node10&#45;&gt;Node18 -->
<g id="edge19_Node000010_Node000018" class="edge">
<title>Node10&#45;&gt;Node18</title>
<g id="a_edge19_Node000010_Node000018"><a xlink:title=" ">
<path fill="none" stroke="#63b8ff" d="M649.65,-279.97C632.83,-275.93 611.39,-271.43 593,-265.03 561.84,-254.19 528.33,-236.85 505.29,-225.62"/>
<polygon fill="#63b8ff" stroke="#63b8ff" points="648.89,-283.39 659.45,-282.44 650.6,-276.61 648.89,-283.39"/>
</a>
</g>
</g>
<!-- Node12 -->
<g id="Node000012" class="node">
<title>Node12</title>
<g id="a_Node000012"><a xlink:href="classMenu.html#ad623fdc5e77ed481a1611abfdf3c3129" target="_top" xlink:title=" ">
<polygon fill="white" stroke="#666666" points="358,-318.53 194,-318.53 194,-299.53 358,-299.53 358,-318.53"/>
<text text-anchor="middle" x="276" y="-306.53" font-family="Helvetica,sans-Serif" font-size="10.00">Menu::onStartTwoPlayerGame</text>
</a>
</g>
</g>
<!-- Node11&#45;&gt;Node12 -->
<g id="edge11_Node000011_Node000012" class="edge">
<title>Node11&#45;&gt;Node12</title>
<g id="a_edge11_Node000011_Node000012"><a xlink:title=" ">
<path fill="none" stroke="#63b8ff" d="M388.16,-309.03C378.23,-309.03 368.14,-309.03 358.28,-309.03"/>
<polygon fill="#63b8ff" stroke="#63b8ff" points="388.42,-312.53 398.42,-309.03 388.42,-305.53 388.42,-312.53"/>
</a>
</g>
</g>
<!-- Node13 -->
<g id="Node000013" class="node">
<title>Node13</title>
<g id="a_Node000013"><a xlink:href="classMenu.html#a81e517b62384dc184425757e6dba87d3" target="_top" xlink:title=" ">
<polygon fill="white" stroke="#666666" points="117.5,-318.53 40.5,-318.53 40.5,-299.53 117.5,-299.53 117.5,-318.53"/>
<text text-anchor="middle" x="79" y="-306.53" font-family="Helvetica,sans-Serif" font-size="10.00">Menu::Menu</text>
</a>
</g>
</g>
<!-- Node12&#45;&gt;Node13 -->
<g id="edge12_Node000012_Node000013" class="edge">
<title>Node12&#45;&gt;Node13</title>
<g id="a_edge12_Node000012_Node000013"><a xlink:title=" ">
<path fill="none" stroke="#63b8ff" d="M183.69,-309.03C160.37,-309.03 136.58,-309.03 117.68,-309.03"/>
<polygon fill="#63b8ff" stroke="#63b8ff" points="184,-312.53 194,-309.03 184,-305.53 184,-312.53"/>
</a>
</g>
</g>
<!-- Node15 -->
<g id="Node000015" class="node">
<title>Node15</title>
<g id="a_Node000015"><a xlink:href="classGameWindow.html#a5b3bcfd2cd2b6f07f0be351f114119db" target="_top" xlink:title=" ">
<polygon fill="white" stroke="#666666" points="340,-433.53 212,-433.53 212,-414.53 340,-414.53 340,-433.53"/>
<text text-anchor="middle" x="276" y="-421.53" font-family="Helvetica,sans-Serif" font-size="10.00">GameWindow::setupUI</text>
</a>
</g>
</g>
<!-- Node14&#45;&gt;Node15 -->
<g id="edge15_Node000014_Node000015" class="edge">
<title>Node14&#45;&gt;Node15</title>
<g id="a_edge15_Node000014_Node000015"><a xlink:title=" ">
<path fill="none" stroke="#63b8ff" d="M430.73,-380.44C394.44,-390.73 343.62,-405.14 310.51,-414.53"/>
<polygon fill="#63b8ff" stroke="#63b8ff" points="431.88,-383.75 440.55,-377.66 429.97,-377.02 431.88,-383.75"/>
</a>
</g>
</g>
<!-- Node16 -->
<g id="Node000016" class="node">
<title>Node16</title>
<g id="a_Node000016"><a xlink:href="classGameWindow.html#aba82e451e3ca31cb27b36faefeee8d6c" target="_top" xlink:title=" ">
<polygon fill="white" stroke="#666666" points="158,-433.53 0,-433.53 0,-414.53 158,-414.53 158,-433.53"/>
<text text-anchor="middle" x="79" y="-421.53" font-family="Helvetica,sans-Serif" font-size="10.00">GameWindow::GameWindow</text>
</a>
</g>
</g>
<!-- Node15&#45;&gt;Node16 -->
<g id="edge16_Node000015_Node000016" class="edge">
<title>Node15&#45;&gt;Node16</title>
<g id="a_edge16_Node000015_Node000016"><a xlink:title=" ">
<path fill="none" stroke="#63b8ff" d="M201.75,-424.03C187.53,-424.03 172.57,-424.03 158.19,-424.03"/>
<polygon fill="#63b8ff" stroke="#63b8ff" points="201.96,-427.53 211.96,-424.03 201.96,-420.53 201.96,-427.53"/>
</a>
</g>
</g>
<!-- Node17&#45;&gt;Node15 -->
<g id="edge18_Node000017_Node000015" class="edge">
<title>Node17&#45;&gt;Node15</title>
<g id="a_edge18_Node000017_Node000015"><a xlink:title=" ">
<path fill="none" stroke="#63b8ff" d="M383.73,-424.03C368.99,-424.03 354.01,-424.03 340.12,-424.03"/>
<polygon fill="#63b8ff" stroke="#63b8ff" points="383.88,-427.53 393.88,-424.03 383.88,-420.53 383.88,-427.53"/>
</a>
</g>
</g>
<!-- Node18&#45;&gt;Node10 -->
<g id="edge20_Node000018_Node000010" class="edge">
<title>Node18&#45;&gt;Node10</title>
<g id="a_edge20_Node000018_Node000010"><a xlink:title=" ">
<path fill="none" stroke="#63b8ff" d="M492.89,-232C514.93,-247.71 555.66,-270.04 593,-283.03 596.01,-284.08 599.1,-285.07 602.24,-286.01"/>
<polygon fill="#63b8ff" stroke="#63b8ff" points="494.73,-229 484.66,-225.72 490.49,-234.57 494.73,-229"/>
</a>
</g>
</g>
<!-- Node19&#45;&gt;Node5 -->
<g id="edge22_Node000019_Node000005" class="edge">
<title>Node19&#45;&gt;Node5</title>
<g id="a_edge22_Node000019_Node000005"><a xlink:title=" ">
<path fill="none" stroke="#63b8ff" d="M1241.14,-109.05C1205.98,-102.13 1162.26,-93.52 1129.01,-86.98"/>
<polygon fill="#63b8ff" stroke="#63b8ff" points="1240.8,-112.55 1251.28,-111.05 1242.15,-105.68 1240.8,-112.55"/>
</a>
</g>
</g>
<!-- Node21&#45;&gt;Node3 -->
<g id="edge26_Node000021_Node000003" class="edge">
<title>Node21&#45;&gt;Node3</title>
<g id="a_edge26_Node000021_Node000003"><a xlink:title=" ">
<path fill="none" stroke="#63b8ff" d="M1663.99,-187.94C1643.67,-176.88 1617.68,-163.17 1594,-152.03 1580.75,-145.8 1565.99,-139.5 1552.83,-134.1"/>
<polygon fill="#63b8ff" stroke="#63b8ff" points="1662.45,-191.09 1672.9,-192.82 1665.81,-184.95 1662.45,-191.09"/>
</a>
</g>
</g>
<!-- Node21&#45;&gt;Node4 -->
<g id="edge27_Node000021_Node000004" class="edge">
<title>Node21&#45;&gt;Node4</title>
<g id="a_edge27_Node000021_Node000004"><a xlink:title=" ">
<path fill="none" stroke="#63b8ff" d="M1674.24,-186.12C1660.54,-173.97 1643.73,-158.28 1630,-143.03 1612.16,-123.21 1617.14,-108.29 1594,-95.03 1519.15,-52.14 1415.59,-51.7 1354.62,-56.22"/>
<polygon fill="#63b8ff" stroke="#63b8ff" points="1672.08,-188.87 1681.9,-192.83 1676.69,-183.61 1672.08,-188.87"/>
</a>
</g>
</g>
<!-- Node21&#45;&gt;Node18 -->
<g id="edge40_Node000021_Node000018" class="edge">
<title>Node21&#45;&gt;Node18</title>
<g id="a_edge40_Node000021_Node000018"><a xlink:title=" ">
<path fill="none" stroke="#63b8ff" d="M1619.8,-204.79C1482.05,-199.37 1191.6,-188.62 946,-184.03 866.01,-182.54 846,-183.25 766,-183.03 689.11,-182.82 669.16,-172.45 593,-183.03 561.14,-187.46 525.75,-198.38 502.43,-206.45"/>
<polygon fill="#63b8ff" stroke="#63b8ff" points="1619.72,-208.29 1629.85,-205.18 1619.99,-201.29 1619.72,-208.29"/>
</a>
</g>
</g>
<!-- Node21&#45;&gt;Node19 -->
<g id="edge39_Node000021_Node000019" class="edge">
<title>Node21&#45;&gt;Node19</title>
<g id="a_edge39_Node000021_Node000019"><a xlink:title=" ">
<path fill="none" stroke="#63b8ff" d="M1621.54,-190.79C1542.3,-173.39 1422.24,-147.01 1354.73,-132.18"/>
<polygon fill="#63b8ff" stroke="#63b8ff" points="1620.96,-194.25 1631.47,-192.98 1622.46,-187.41 1620.96,-194.25"/>
</a>
</g>
</g>
<!-- Node22 -->
<g id="Node000022" class="node">
<title>Node22</title>
<g id="a_Node000022"><a xlink:href="classGameWindow.html#ad53954b7070a2f98fc8e4335e8ddeeed" target="_top" xlink:title=" ">
<polygon fill="white" stroke="#666666" points="1594,-266.03 1433,-266.03 1433,-236.03 1594,-236.03 1594,-266.03"/>
<text text-anchor="start" x="1441" y="-254.03" font-family="Helvetica,sans-Serif" font-size="10.00">GameWindow::onCreatePiece</text>
<text text-anchor="middle" x="1513.5" y="-243.03" font-family="Helvetica,sans-Serif" font-size="10.00">ButtonClicked</text>
</a>
</g>
</g>
<!-- Node21&#45;&gt;Node22 -->
<g id="edge28_Node000021_Node000022" class="edge">
<title>Node21&#45;&gt;Node22</title>
<g id="a_edge28_Node000021_Node000022"><a xlink:title=" ">
<path fill="none" stroke="#63b8ff" d="M1625.24,-225.36C1610.04,-228.88 1594.17,-232.56 1579.34,-236"/>
<polygon fill="#63b8ff" stroke="#63b8ff" points="1626.17,-228.74 1635.12,-223.07 1624.59,-221.92 1626.17,-228.74"/>
</a>
</g>
</g>
<!-- Node26 -->
<g id="Node000026" class="node">
<title>Node26</title>
<g id="a_Node000026"><a xlink:href="classGameWindow.html#a58e3b3ba09f1304cf4ff22a797146482" target="_top" xlink:title=" ">
<polygon fill="white" stroke="#666666" points="1393,-303.53 1213,-303.53 1213,-284.53 1393,-284.53 1393,-303.53"/>
<text text-anchor="middle" x="1303" y="-291.53" font-family="Helvetica,sans-Serif" font-size="10.00">GameWindow::updateValidMoves</text>
</a>
</g>
</g>
<!-- Node21&#45;&gt;Node26 -->
<g id="edge41_Node000021_Node000026" class="edge">
<title>Node21&#45;&gt;Node26</title>
<g id="a_edge41_Node000021_Node000026"><a xlink:title=" ">
<path fill="none" stroke="#63b8ff" d="M1674.16,-229.59C1653.78,-245.24 1623.89,-265.31 1594,-275.03 1528.99,-296.18 1451.55,-300.27 1393.06,-299.42"/>
<polygon fill="#63b8ff" stroke="#63b8ff" points="1676.59,-232.13 1682.29,-223.2 1672.27,-226.63 1676.59,-232.13"/>
</a>
</g>
</g>
<!-- Node23 -->
<g id="Node000023" class="node">
<title>Node23</title>
<g id="a_Node000023"><a xlink:href="classGameWindow.html#ab2f97f7781012c179cbb1b1454eb5294" target="_top" xlink:title=" ">
<polygon fill="white" stroke="#666666" points="1397,-266.03 1209,-266.03 1209,-236.03 1397,-236.03 1397,-266.03"/>
<text text-anchor="start" x="1217" y="-254.03" font-family="Helvetica,sans-Serif" font-size="10.00">GameWindow::createPieceCreation</text>
<text text-anchor="middle" x="1303" y="-243.03" font-family="Helvetica,sans-Serif" font-size="10.00">GroupBox</text>
</a>
</g>
</g>
<!-- Node22&#45;&gt;Node23 -->
<g id="edge29_Node000022_Node000023" class="edge">
<title>Node22&#45;&gt;Node23</title>
<g id="a_edge29_Node000022_Node000023"><a xlink:title=" ">
<path fill="none" stroke="#63b8ff" d="M1422.62,-251.03C1414.23,-251.03 1405.7,-251.03 1397.28,-251.03"/>
<polygon fill="#63b8ff" stroke="#63b8ff" points="1422.78,-254.53 1432.78,-251.03 1422.78,-247.53 1422.78,-254.53"/>
</a>
</g>
</g>
<!-- Node24 -->
<g id="Node000024" class="node">
<title>Node24</title>
<g id="a_Node000024"><a xlink:href="classGameWindow.html#a06b02213154df24f36631be44bbaa27f" target="_top" xlink:title=" ">
<polygon fill="white" stroke="#666666" points="1173,-328.03 982,-328.03 982,-298.03 1173,-298.03 1173,-328.03"/>
<text text-anchor="start" x="990" y="-316.03" font-family="Helvetica,sans-Serif" font-size="10.00">GameWindow::updatePieceCreation</text>
<text text-anchor="middle" x="1077.5" y="-305.03" font-family="Helvetica,sans-Serif" font-size="10.00">Buttons</text>
</a>
</g>
</g>
<!-- Node23&#45;&gt;Node24 -->
<g id="edge30_Node000023_Node000024" class="edge">
<title>Node23&#45;&gt;Node24</title>
<g id="a_edge30_Node000023_Node000024"><a xlink:title=" ">
<path fill="none" stroke="#63b8ff" d="M1235.73,-268.73C1226.74,-271.16 1217.64,-273.65 1209,-276.03 1183.24,-283.15 1154.67,-291.22 1130.84,-298.01"/>
<polygon fill="#63b8ff" stroke="#63b8ff" points="1236.67,-272.1 1245.41,-266.11 1234.84,-265.34 1236.67,-272.1"/>
</a>
</g>
</g>
<!-- Node24&#45;&gt;Node9 -->
<g id="edge34_Node000024_Node000009" class="edge">
<title>Node24&#45;&gt;Node9</title>
<g id="a_edge34_Node000024_Node000009"><a xlink:title=" ">
<path fill="none" stroke="#63b8ff" d="M1015.36,-295.13C979.92,-284.75 936.7,-272.1 907.66,-263.59"/>
<polygon fill="#63b8ff" stroke="#63b8ff" points="1014.55,-298.54 1025.13,-297.99 1016.52,-291.82 1014.55,-298.54"/>
</a>
</g>
</g>
<!-- Node24&#45;&gt;Node11 -->
<g id="edge31_Node000024_Node000011" class="edge">
<title>Node24&#45;&gt;Node11</title>
<g id="a_edge31_Node000024_Node000011"><a xlink:title=" ">
<path fill="none" stroke="#63b8ff" d="M971.8,-312.99C873.87,-312.86 723.52,-312.42 593,-311.03 579.95,-310.89 566.09,-310.7 552.64,-310.48"/>
<polygon fill="#63b8ff" stroke="#63b8ff" points="971.99,-316.49 982,-313 972,-309.49 971.99,-316.49"/>
</a>
</g>
</g>
<!-- Node24&#45;&gt;Node14 -->
<g id="edge35_Node000024_Node000014" class="edge">
<title>Node24&#45;&gt;Node14</title>
<g id="a_edge35_Node000024_Node000014"><a xlink:title=" ">
<path fill="none" stroke="#63b8ff" d="M971.56,-323.58C962.91,-324.42 954.31,-325.25 946,-326.03 809.33,-338.95 650.18,-352.97 556.69,-361.1"/>
<polygon fill="#63b8ff" stroke="#63b8ff" points="972.1,-327.04 981.71,-322.59 971.42,-320.07 972.1,-327.04"/>
</a>
</g>
</g>
<!-- Node24&#45;&gt;Node15 -->
<g id="edge38_Node000024_Node000015" class="edge">
<title>Node24&#45;&gt;Node15</title>
<g id="a_edge38_Node000024_Node000015"><a xlink:title=" ">
<path fill="none" stroke="#63b8ff" d="M1040.05,-332.72C1014.4,-345.84 978.9,-362.53 946,-373.03 710.4,-448.19 640.5,-462.92 394,-443.03 371.03,-441.18 345.76,-437.31 324.6,-433.54"/>
<polygon fill="#63b8ff" stroke="#63b8ff" points="1041.76,-335.77 1049.03,-328.06 1038.54,-329.55 1041.76,-335.77"/>
</a>
</g>
</g>
<!-- Node24&#45;&gt;Node17 -->
<g id="edge36_Node000024_Node000017" class="edge">
<title>Node24&#45;&gt;Node17</title>
<g id="a_edge36_Node000024_Node000017"><a xlink:title=" ">
<path fill="none" stroke="#63b8ff" d="M1011.47,-330.61C990.64,-335.93 967.43,-341.55 946,-346.03 804.26,-375.67 636.56,-401.28 544.86,-414.49"/>
<polygon fill="#63b8ff" stroke="#63b8ff" points="1012.36,-333.99 1021.17,-328.1 1010.62,-327.21 1012.36,-333.99"/>
</a>
</g>
</g>
<!-- Node24&#45;&gt;Node18 -->
<g id="edge37_Node000024_Node000018" class="edge">
<title>Node24&#45;&gt;Node18</title>
<g id="a_edge37_Node000024_Node000018"><a xlink:title=" ">
<path fill="none" stroke="#63b8ff" d="M1021.23,-293.99C1007.84,-288.22 993.95,-281.2 982,-273.03 963.06,-260.08 966.94,-245.4 946,-236.03 876.75,-205.03 660.28,-208.52 547.08,-212.75"/>
<polygon fill="#63b8ff" stroke="#63b8ff" points="1020.28,-297.38 1030.86,-297.97 1022.95,-290.91 1020.28,-297.38"/>
</a>
</g>
</g>
<!-- Node25 -->
<g id="Node000025" class="node">
<title>Node25</title>
<g id="a_Node000025"><a xlink:href="classGameWindow.html#a5674a14afc834df5cbf11c7d3a52d8d2" target="_top" xlink:title=" ">
<polygon fill="white" stroke="#666666" points="766,-264.53 593,-264.53 593,-245.53 766,-245.53 766,-264.53"/>
<text text-anchor="middle" x="679.5" y="-252.53" font-family="Helvetica,sans-Serif" font-size="10.00">GameWindow::enableAllButtons</text>
</a>
</g>
</g>
<!-- Node24&#45;&gt;Node25 -->
<g id="edge32_Node000024_Node000025" class="edge">
<title>Node24&#45;&gt;Node25</title>
<g id="a_edge32_Node000024_Node000025"><a xlink:title=" ">
<path fill="none" stroke="#63b8ff" d="M971.76,-297.83C920.57,-290.38 858.06,-281.27 802,-273.03 783.33,-270.29 763.05,-267.29 744.5,-264.54"/>
<polygon fill="#63b8ff" stroke="#63b8ff" points="971.45,-301.32 981.85,-299.29 972.45,-294.39 971.45,-301.32"/>
</a>
</g>
</g>
<!-- Node25&#45;&gt;Node18 -->
<g id="edge33_Node000025_Node000018" class="edge">
<title>Node25&#45;&gt;Node18</title>
<g id="a_edge33_Node000025_Node000018"><a xlink:title=" ">
<path fill="none" stroke="#63b8ff" d="M619.25,-243.59C589.53,-237.85 553.95,-230.99 525.75,-225.54"/>
<polygon fill="#63b8ff" stroke="#63b8ff" points="618.6,-247.03 629.09,-245.49 619.93,-240.16 618.6,-247.03"/>
</a>
</g>
</g>
<!-- Node27 -->
<g id="Node000027" class="node">
<title>Node27</title>
<g id="a_Node000027"><a xlink:href="classGameWindow.html#aa43f3cf42f2971b92ad2f9873412f422" target="_top" xlink:title=" ">
<polygon fill="white" stroke="#666666" points="1150.5,-390.53 1004.5,-390.53 1004.5,-371.53 1150.5,-371.53 1150.5,-390.53"/>
<text text-anchor="middle" x="1077.5" y="-378.53" font-family="Helvetica,sans-Serif" font-size="10.00">GameWindow::selectPiece</text>
</a>
</g>
</g>
<!-- Node26&#45;&gt;Node27 -->
<g id="edge42_Node000026_Node000027" class="edge">
<title>Node26&#45;&gt;Node27</title>
<g id="a_edge42_Node000026_Node000027"><a xlink:title=" ">
<path fill="none" stroke="#63b8ff" d="M1267.79,-307.35C1222.31,-325.05 1143.02,-355.91 1103.04,-371.48"/>
<polygon fill="#63b8ff" stroke="#63b8ff" points="1269.18,-310.56 1277.23,-303.67 1266.64,-304.04 1269.18,-310.56"/>
</a>
</g>
</g>
<!-- Node28 -->
<g id="Node000028" class="node">
<title>Node28</title>
<g id="a_Node000028"><a xlink:href="classGameWindow.html#adb55bf4d481961522203420bd111df94" target="_top" xlink:title=" ">
<polygon fill="white" stroke="#666666" points="1156.5,-263.53 998.5,-263.53 998.5,-244.53 1156.5,-244.53 1156.5,-263.53"/>
<text text-anchor="middle" x="1077.5" y="-251.53" font-family="Helvetica,sans-Serif" font-size="10.00">GameWindow::unselectPiece</text>
</a>
</g>
</g>
<!-- Node26&#45;&gt;Node28 -->
<g id="edge44_Node000026_Node000028" class="edge">
<title>Node26&#45;&gt;Node28</title>
<g id="a_edge44_Node000026_Node000028"><a xlink:title=" ">
<path fill="none" stroke="#63b8ff" d="M1238.53,-282.67C1204.79,-276.63 1163.79,-269.29 1131.73,-263.56"/>
<polygon fill="#63b8ff" stroke="#63b8ff" points="1238.29,-286.18 1248.75,-284.5 1239.52,-279.29 1238.29,-286.18"/>
</a>
</g>
</g>
<!-- Node27&#45;&gt;Node10 -->
<g id="edge43_Node000027_Node000010" class="edge">
<title>Node27&#45;&gt;Node10</title>
<g id="a_edge43_Node000027_Node000010"><a xlink:title=" ">
<path fill="none" stroke="#63b8ff" d="M1024.35,-369.31C945.1,-351.5 795.87,-317.96 722.87,-301.55"/>
<polygon fill="#63b8ff" stroke="#63b8ff" points="1023.6,-372.73 1034.12,-371.51 1025.13,-365.9 1023.6,-372.73"/>
</a>
</g>
</g>
<!-- Node28&#45;&gt;Node9 -->
<g id="edge45_Node000028_Node000009" class="edge">
<title>Node28&#45;&gt;Node9</title>
<g id="a_edge45_Node000028_Node000009"><a xlink:title=" ">
<path fill="none" stroke="#63b8ff" d="M988.17,-254.03C974.15,-254.03 959.8,-254.03 946.24,-254.03"/>
<polygon fill="#63b8ff" stroke="#63b8ff" points="988.31,-257.53 998.31,-254.03 988.31,-250.53 988.31,-257.53"/>
</a>
</g>
</g>
<!-- Node28&#45;&gt;Node18 -->
<g id="edge46_Node000028_Node000018" class="edge">
<title>Node28&#45;&gt;Node18</title>
<g id="a_edge46_Node000028_Node000018"><a xlink:title=" ">
<path fill="none" stroke="#63b8ff" d="M1049.45,-239.72C1023.68,-226.96 983.38,-209.2 946,-202.03 799.04,-173.83 621.53,-193.25 532.78,-206.51"/>
<polygon fill="#63b8ff" stroke="#63b8ff" points="1048.08,-242.95 1058.58,-244.34 1051.24,-236.7 1048.08,-242.95"/>
</a>
</g>
</g>
<!-- Node29&#45;&gt;Node21 -->
<g id="edge48_Node000029_Node000021" class="edge">
<title>Node29&#45;&gt;Node21</title>
<g id="a_edge48_Node000029_Node000021"><a xlink:title=" ">
<path fill="none" stroke="#63b8ff" d="M1797.9,-208.58C1789.29,-208.53 1780.59,-208.48 1772.11,-208.43"/>
<polygon fill="#63b8ff" stroke="#63b8ff" points="1797.91,-212.08 1807.93,-208.63 1797.95,-205.08 1797.91,-212.08"/>
</a>
</g>
</g>
<!-- Node30&#45;&gt;Node21 -->
<g id="edge50_Node000030_Node000021" class="edge">
<title>Node30&#45;&gt;Node21</title>
<g id="a_edge50_Node000030_Node000021"><a xlink:title=" ">
<path fill="none" stroke="#63b8ff" d="M1812.13,-178.62C1794.4,-183.36 1775.39,-188.43 1758.24,-193.01"/>
<polygon fill="#63b8ff" stroke="#63b8ff" points="1813.07,-181.99 1821.83,-176.03 1811.26,-175.23 1813.07,-181.99"/>
</a>
</g>
</g>
</g>
</svg>
