<?xml version="1.0" encoding="UTF-8" standalone="no"?>
<!DOCTYPE svg PUBLIC "-//W3C//DTD SVG 1.1//EN"
 "http://www.w3.org/Graphics/SVG/1.1/DTD/svg11.dtd">
<!-- Generated by graphviz version 2.43.0 (0)
 -->
<!-- Title: hive::models::Player::getId Pages: 1 -->
<svg width="1764pt" height="369pt"
 viewBox="0.00 0.00 1764.00 369.00" xmlns="http://www.w3.org/2000/svg" xmlns:xlink="http://www.w3.org/1999/xlink">
<g id="graph0" class="graph" transform="scale(1 1) rotate(0) translate(4 365)">
<title>hive::models::Player::getId</title>
<!-- Node1 -->
<g id="Node000001" class="node">
<title>Node1</title>
<g id="a_Node000001"><a xlink:title="Retrieves the player&#39;s unique identifier.">
<polygon fill="#999999" stroke="#666666" points="1756,-309.5 1640,-309.5 1640,-279.5 1756,-279.5 1756,-309.5"/>
<text text-anchor="start" x="1648" y="-297.5" font-family="Helvetica,sans-Serif" font-size="10.00">hive::models::Player</text>
<text text-anchor="middle" x="1698" y="-286.5" font-family="Helvetica,sans-Serif" font-size="10.00">::getId</text>
</a>
</g>
</g>
<!-- Node2 -->
<g id="Node000002" class="node">
<title>Node2</title>
<g id="a_Node000002"><a xlink:href="classGameWindow.html#ab2f97f7781012c179cbb1b1454eb5294" target="_top" xlink:title=" ">
<polygon fill="white" stroke="#666666" points="1604,-233.5 1416,-233.5 1416,-203.5 1604,-203.5 1604,-233.5"/>
<text text-anchor="start" x="1424" y="-221.5" font-family="Helvetica,sans-Serif" font-size="10.00">GameWindow::createPieceCreation</text>
<text text-anchor="middle" x="1510" y="-210.5" font-family="Helvetica,sans-Serif" font-size="10.00">GroupBox</text>
</a>
</g>
</g>
<!-- Node1&#45;&gt;Node2 -->
<g id="edge1_Node000001_Node000002" class="edge">
<title>Node1&#45;&gt;Node2</title>
<g id="a_edge1_Node000001_Node000002"><a xlink:title=" ">
<path fill="none" stroke="#63b8ff" d="M1650.75,-275.6C1619.03,-262.64 1577.51,-245.68 1547.99,-233.61"/>
<polygon fill="#63b8ff" stroke="#63b8ff" points="1649.67,-278.94 1660.25,-279.48 1652.32,-272.46 1649.67,-278.94"/>
</a>
</g>
</g>
<!-- Node8 -->
<g id="Node000008" class="node">
<title>Node8</title>
<g id="a_Node000008"><a xlink:href="classGameWindow.html#a379160a41f8d7e154cde54cec0c13393" target="_top" xlink:title=" ">
<polygon fill="white" stroke="#666666" points="935,-209 792,-209 792,-190 935,-190 935,-209"/>
<text text-anchor="middle" x="863.5" y="-197" font-family="Helvetica,sans-Serif" font-size="10.00">GameWindow::placePiece</text>
</a>
</g>
</g>
<!-- Node1&#45;&gt;Node8 -->
<g id="edge23_Node000001_Node000008" class="edge">
<title>Node1&#45;&gt;Node8</title>
<g id="a_edge23_Node000001_Node000008"><a xlink:title=" ">
<path fill="none" stroke="#63b8ff" d="M1629.69,-293.88C1501.88,-291.61 1215.75,-281.36 980,-235.5 948.25,-229.32 912.9,-217.55 889.77,-209.15"/>
<polygon fill="#63b8ff" stroke="#63b8ff" points="1629.66,-297.38 1639.72,-294.04 1629.78,-290.38 1629.66,-297.38"/>
</a>
</g>
</g>
<!-- Node15 -->
<g id="Node000015" class="node">
<title>Node15</title>
<g id="a_Node000015"><a xlink:href="classhive_1_1utils_1_1Serializer.html#a257aca9f5c1f02150ae7aa18446865b0" target="_top" xlink:title="Saves the current game state to a file.">
<polygon fill="white" stroke="#666666" points="1568,-133.5 1452,-133.5 1452,-103.5 1568,-103.5 1568,-133.5"/>
<text text-anchor="start" x="1460" y="-121.5" font-family="Helvetica,sans-Serif" font-size="10.00">hive::utils::Serializer</text>
<text text-anchor="middle" x="1510" y="-110.5" font-family="Helvetica,sans-Serif" font-size="10.00">::saveGame</text>
</a>
</g>
</g>
<!-- Node1&#45;&gt;Node15 -->
<g id="edge24_Node000001_Node000015" class="edge">
<title>Node1&#45;&gt;Node15</title>
<g id="a_edge24_Node000001_Node000015"><a xlink:title=" ">
<path fill="none" stroke="#63b8ff" d="M1677.33,-271.62C1659.06,-250.79 1630.72,-219.56 1604,-194.5 1580.12,-172.1 1550.55,-148.59 1531.26,-133.76"/>
<polygon fill="#63b8ff" stroke="#63b8ff" points="1674.84,-274.09 1684.05,-279.33 1680.12,-269.49 1674.84,-274.09"/>
</a>
</g>
</g>
<!-- Node17 -->
<g id="Node000017" class="node">
<title>Node17</title>
<g id="a_Node000017"><a xlink:href="classGameWindow.html#aa43f3cf42f2971b92ad2f9873412f422" target="_top" xlink:title=" ">
<polygon fill="white" stroke="#666666" points="1139.5,-361 993.5,-361 993.5,-342 1139.5,-342 1139.5,-361"/>
<text text-anchor="middle" x="1066.5" y="-349" font-family="Helvetica,sans-Serif" font-size="10.00">GameWindow::selectPiece</text>
</a>
</g>
</g>
<!-- Node1&#45;&gt;Node17 -->
<g id="edge27_Node000001_Node000017" class="edge">
<title>Node1&#45;&gt;Node17</title>
<g id="a_edge27_Node000001_Node000017"><a xlink:title=" ">
<path fill="none" stroke="#63b8ff" d="M1652.72,-313.23C1637.54,-318.83 1620.28,-324.32 1604,-327.5 1440.43,-359.44 1243.72,-358.48 1139.89,-354.99"/>
<polygon fill="#63b8ff" stroke="#63b8ff" points="1654.26,-316.38 1662.36,-309.55 1651.77,-309.84 1654.26,-316.38"/>
</a>
</g>
</g>
<!-- Node3 -->
<g id="Node000003" class="node">
<title>Node3</title>
<g id="a_Node000003"><a xlink:href="classGameWindow.html#a06b02213154df24f36631be44bbaa27f" target="_top" xlink:title=" ">
<polygon fill="white" stroke="#666666" points="1380,-195.5 1189,-195.5 1189,-165.5 1380,-165.5 1380,-195.5"/>
<text text-anchor="start" x="1197" y="-183.5" font-family="Helvetica,sans-Serif" font-size="10.00">GameWindow::updatePieceCreation</text>
<text text-anchor="middle" x="1284.5" y="-172.5" font-family="Helvetica,sans-Serif" font-size="10.00">Buttons</text>
</a>
</g>
</g>
<!-- Node2&#45;&gt;Node3 -->
<g id="edge2_Node000002_Node000003" class="edge">
<title>Node2&#45;&gt;Node3</title>
<g id="a_edge2_Node000002_Node000003"><a xlink:title=" ">
<path fill="none" stroke="#63b8ff" d="M1410.5,-201.75C1398.33,-199.68 1385.94,-197.58 1373.92,-195.53"/>
<polygon fill="#63b8ff" stroke="#63b8ff" points="1410.22,-205.26 1420.67,-203.48 1411.4,-198.35 1410.22,-205.26"/>
</a>
</g>
</g>
<!-- Node4 -->
<g id="Node000004" class="node">
<title>Node4</title>
<g id="a_Node000004"><a xlink:href="classGameWindow.html#ac53fea4b030b13de4f300ee04ced1c89" target="_top" xlink:title=" ">
<polygon fill="white" stroke="#666666" points="552.5,-273.5 398.5,-273.5 398.5,-243.5 552.5,-243.5 552.5,-273.5"/>
<text text-anchor="start" x="406.5" y="-261.5" font-family="Helvetica,sans-Serif" font-size="10.00">GameWindow::createDefaut</text>
<text text-anchor="middle" x="475.5" y="-250.5" font-family="Helvetica,sans-Serif" font-size="10.00">Config</text>
</a>
</g>
</g>
<!-- Node3&#45;&gt;Node4 -->
<g id="edge3_Node000003_Node000004" class="edge">
<title>Node3&#45;&gt;Node4</title>
<g id="a_edge3_Node000003_Node000004"><a xlink:title=" ">
<path fill="none" stroke="#63b8ff" d="M1247.03,-200.13C1221.49,-212.79 1186.15,-228.21 1153,-235.5 939.52,-282.44 679.13,-273.31 552.7,-264.81"/>
<polygon fill="#63b8ff" stroke="#63b8ff" points="1248.62,-203.24 1255.97,-195.61 1245.47,-197 1248.62,-203.24"/>
</a>
</g>
</g>
<!-- Node7 -->
<g id="Node000007" class="node">
<title>Node7</title>
<g id="a_Node000007"><a xlink:href="classGameWindow.html#a5674a14afc834df5cbf11c7d3a52d8d2" target="_top" xlink:title=" ">
<polygon fill="white" stroke="#666666" points="1153,-209 980,-209 980,-190 1153,-190 1153,-209"/>
<text text-anchor="middle" x="1066.5" y="-197" font-family="Helvetica,sans-Serif" font-size="10.00">GameWindow::enableAllButtons</text>
</a>
</g>
</g>
<!-- Node3&#45;&gt;Node7 -->
<g id="edge6_Node000003_Node000007" class="edge">
<title>Node3&#45;&gt;Node7</title>
<g id="a_edge6_Node000003_Node000007"><a xlink:title=" ">
<path fill="none" stroke="#63b8ff" d="M1178.77,-189.71C1170.25,-190.46 1161.69,-191.21 1153.32,-191.95"/>
<polygon fill="#63b8ff" stroke="#63b8ff" points="1179.1,-193.2 1188.76,-188.83 1178.49,-186.22 1179.1,-193.2"/>
</a>
</g>
</g>
<!-- Node3&#45;&gt;Node8 -->
<g id="edge21_Node000003_Node000008" class="edge">
<title>Node3&#45;&gt;Node8</title>
<g id="a_edge21_Node000003_Node000008"><a xlink:title=" ">
<path fill="none" stroke="#63b8ff" d="M1232.29,-198.56C1208.51,-206.03 1179.65,-213.79 1153,-217.5 1076.84,-228.09 1056.66,-223.44 980,-217.5 958.45,-215.83 934.84,-212.44 914.62,-209.04"/>
<polygon fill="#63b8ff" stroke="#63b8ff" points="1233.36,-201.89 1241.82,-195.5 1231.22,-195.23 1233.36,-201.89"/>
</a>
</g>
</g>
<!-- Node10 -->
<g id="Node000010" class="node">
<title>Node10</title>
<g id="a_Node000010"><a xlink:href="classGameWindow.html#a56419355dbf68fa9e8240bf4f630352e" target="_top" xlink:title=" ">
<polygon fill="white" stroke="#666666" points="547.5,-209 403.5,-209 403.5,-190 547.5,-190 547.5,-209"/>
<text text-anchor="middle" x="475.5" y="-197" font-family="Helvetica,sans-Serif" font-size="10.00">GameWindow::movePiece</text>
</a>
</g>
</g>
<!-- Node3&#45;&gt;Node10 -->
<g id="edge18_Node000003_Node000010" class="edge">
<title>Node3&#45;&gt;Node10</title>
<g id="a_edge18_Node000003_Node000010"><a xlink:title=" ">
<path fill="none" stroke="#63b8ff" d="M1178.56,-175.24C1043.04,-169.66 800,-163.73 593,-180.5 570.12,-182.35 544.96,-186.22 523.9,-189.99"/>
<polygon fill="#63b8ff" stroke="#63b8ff" points="1178.79,-178.75 1188.93,-175.68 1179.08,-171.76 1178.79,-178.75"/>
</a>
</g>
</g>
<!-- Node11 -->
<g id="Node000011" class="node">
<title>Node11</title>
<g id="a_Node000011"><a xlink:href="classGameWindow.html#a3d2d2afbc20fe6f9c494556bfbf39d5b" target="_top" xlink:title=" ">
<polygon fill="white" stroke="#666666" points="556.5,-95 394.5,-95 394.5,-76 556.5,-76 556.5,-95"/>
<text text-anchor="middle" x="475.5" y="-83" font-family="Helvetica,sans-Serif" font-size="10.00">GameWindow::onRedoClicked</text>
</a>
</g>
</g>
<!-- Node3&#45;&gt;Node11 -->
<g id="edge19_Node000003_Node000011" class="edge">
<title>Node3&#45;&gt;Node11</title>
<g id="a_edge19_Node000003_Node000011"><a xlink:title=" ">
<path fill="none" stroke="#63b8ff" d="M1215.4,-163.08C1195.4,-158.45 1173.42,-153.81 1153,-150.5 939,-115.77 683.67,-97.41 556.6,-89.81"/>
<polygon fill="#63b8ff" stroke="#63b8ff" points="1214.82,-166.54 1225.35,-165.43 1216.42,-159.73 1214.82,-166.54"/>
</a>
</g>
</g>
<!-- Node12 -->
<g id="Node000012" class="node">
<title>Node12</title>
<g id="a_Node000012"><a xlink:href="classGameWindow.html#a5b3bcfd2cd2b6f07f0be351f114119db" target="_top" xlink:title=" ">
<polygon fill="white" stroke="#666666" points="340,-76 212,-76 212,-57 340,-57 340,-76"/>
<text text-anchor="middle" x="276" y="-64" font-family="Helvetica,sans-Serif" font-size="10.00">GameWindow::setupUI</text>
</a>
</g>
</g>
<!-- Node3&#45;&gt;Node12 -->
<g id="edge22_Node000003_Node000012" class="edge">
<title>Node3&#45;&gt;Node12</title>
<g id="a_edge22_Node000003_Node000012"><a xlink:title=" ">
<path fill="none" stroke="#63b8ff" d="M1246.98,-160.49C1175.69,-123.34 1012.04,-47.5 864.5,-47.5 864.5,-47.5 864.5,-47.5 669,-47.5 552.83,-47.5 417.52,-55.93 340.1,-61.56"/>
<polygon fill="#63b8ff" stroke="#63b8ff" points="1245.54,-163.68 1256.01,-165.24 1248.8,-157.49 1245.54,-163.68"/>
</a>
</g>
</g>
<!-- Node14 -->
<g id="Node000014" class="node">
<title>Node14</title>
<g id="a_Node000014"><a xlink:href="classGameWindow.html#a3f8581191baa90b0e963a80102c87be7" target="_top" xlink:title=" ">
<polygon fill="white" stroke="#666666" points="557,-133 394,-133 394,-114 557,-114 557,-133"/>
<text text-anchor="middle" x="475.5" y="-121" font-family="Helvetica,sans-Serif" font-size="10.00">GameWindow::onUndoClicked</text>
</a>
</g>
</g>
<!-- Node3&#45;&gt;Node14 -->
<g id="edge20_Node000003_Node000014" class="edge">
<title>Node3&#45;&gt;Node14</title>
<g id="a_edge20_Node000003_Node000014"><a xlink:title=" ">
<path fill="none" stroke="#63b8ff" d="M1178.59,-168.84C1169.94,-168 1161.32,-167.21 1153,-166.5 937.98,-148.14 683.89,-134.02 557.03,-127.49"/>
<polygon fill="#63b8ff" stroke="#63b8ff" points="1178.45,-172.35 1188.75,-169.85 1179.14,-165.38 1178.45,-172.35"/>
</a>
</g>
</g>
<!-- Node5 -->
<g id="Node000005" class="node">
<title>Node5</title>
<g id="a_Node000005"><a xlink:href="classMenu.html#ad623fdc5e77ed481a1611abfdf3c3129" target="_top" xlink:title=" ">
<polygon fill="white" stroke="#666666" points="358,-268 194,-268 194,-249 358,-249 358,-268"/>
<text text-anchor="middle" x="276" y="-256" font-family="Helvetica,sans-Serif" font-size="10.00">Menu::onStartTwoPlayerGame</text>
</a>
</g>
</g>
<!-- Node4&#45;&gt;Node5 -->
<g id="edge4_Node000004_Node000005" class="edge">
<title>Node4&#45;&gt;Node5</title>
<g id="a_edge4_Node000004_Node000005"><a xlink:title=" ">
<path fill="none" stroke="#63b8ff" d="M388.16,-258.5C378.23,-258.5 368.14,-258.5 358.28,-258.5"/>
<polygon fill="#63b8ff" stroke="#63b8ff" points="388.42,-262 398.42,-258.5 388.42,-255 388.42,-262"/>
</a>
</g>
</g>
<!-- Node6 -->
<g id="Node000006" class="node">
<title>Node6</title>
<g id="a_Node000006"><a xlink:href="classMenu.html#a81e517b62384dc184425757e6dba87d3" target="_top" xlink:title=" ">
<polygon fill="white" stroke="#666666" points="117.5,-268 40.5,-268 40.5,-249 117.5,-249 117.5,-268"/>
<text text-anchor="middle" x="79" y="-256" font-family="Helvetica,sans-Serif" font-size="10.00">Menu::Menu</text>
</a>
</g>
</g>
<!-- Node5&#45;&gt;Node6 -->
<g id="edge5_Node000005_Node000006" class="edge">
<title>Node5&#45;&gt;Node6</title>
<g id="a_edge5_Node000005_Node000006"><a xlink:title=" ">
<path fill="none" stroke="#63b8ff" d="M183.69,-258.5C160.37,-258.5 136.58,-258.5 117.68,-258.5"/>
<polygon fill="#63b8ff" stroke="#63b8ff" points="184,-262 194,-258.5 184,-255 184,-262"/>
</a>
</g>
</g>
<!-- Node7&#45;&gt;Node8 -->
<g id="edge7_Node000007_Node000008" class="edge">
<title>Node7&#45;&gt;Node8</title>
<g id="a_edge7_Node000007_Node000008"><a xlink:title=" ">
<path fill="none" stroke="#63b8ff" d="M969.75,-199.5C958.07,-199.5 946.31,-199.5 935.1,-199.5"/>
<polygon fill="#63b8ff" stroke="#63b8ff" points="969.97,-203 979.97,-199.5 969.97,-196 969.97,-203"/>
</a>
</g>
</g>
<!-- Node9 -->
<g id="Node000009" class="node">
<title>Node9</title>
<g id="a_Node000009"><a xlink:href="classGameWindow.html#ada8c32048b32506944bd7f10bca9d232" target="_top" xlink:title=" ">
<polygon fill="white" stroke="#666666" points="747,-209 593,-209 593,-190 747,-190 747,-209"/>
<text text-anchor="middle" x="670" y="-197" font-family="Helvetica,sans-Serif" font-size="10.00">GameWindow::displayBoard</text>
</a>
</g>
</g>
<!-- Node8&#45;&gt;Node9 -->
<g id="edge8_Node000008_Node000009" class="edge">
<title>Node8&#45;&gt;Node9</title>
<g id="a_edge8_Node000008_Node000009"><a xlink:title=" ">
<path fill="none" stroke="#63b8ff" d="M781.43,-192.82C770.1,-192.71 758.5,-192.73 747.26,-192.88"/>
<polygon fill="#63b8ff" stroke="#63b8ff" points="781.69,-196.32 791.74,-192.96 781.78,-189.33 781.69,-196.32"/>
</a>
</g>
</g>
<!-- Node9&#45;&gt;Node4 -->
<g id="edge9_Node000009_Node000004" class="edge">
<title>Node9&#45;&gt;Node4</title>
<g id="a_edge9_Node000009_Node000004"><a xlink:title=" ">
<path fill="none" stroke="#63b8ff" d="M627.92,-212.09C597.95,-221.28 557.21,-233.76 525.53,-243.47"/>
<polygon fill="#63b8ff" stroke="#63b8ff" points="629.11,-215.39 637.64,-209.11 627.06,-208.69 629.11,-215.39"/>
</a>
</g>
</g>
<!-- Node9&#45;&gt;Node8 -->
<g id="edge17_Node000009_Node000008" class="edge">
<title>Node9&#45;&gt;Node8</title>
<g id="a_edge17_Node000009_Node000008"><a xlink:title=" ">
<path fill="none" stroke="#63b8ff" d="M757.32,-206.22C768.83,-206.29 780.53,-206.23 791.74,-206.04"/>
<polygon fill="#63b8ff" stroke="#63b8ff" points="757.3,-202.72 747.26,-206.12 757.23,-209.72 757.3,-202.72"/>
</a>
</g>
</g>
<!-- Node9&#45;&gt;Node10 -->
<g id="edge10_Node000009_Node000010" class="edge">
<title>Node9&#45;&gt;Node10</title>
<g id="a_edge10_Node000009_Node000010"><a xlink:title=" ">
<path fill="none" stroke="#63b8ff" d="M582.69,-192.78C570.97,-192.71 559.05,-192.76 547.64,-192.96"/>
<polygon fill="#63b8ff" stroke="#63b8ff" points="582.88,-196.28 592.92,-192.88 582.95,-189.28 582.88,-196.28"/>
</a>
</g>
</g>
<!-- Node9&#45;&gt;Node11 -->
<g id="edge12_Node000009_Node000011" class="edge">
<title>Node9&#45;&gt;Node11</title>
<g id="a_edge12_Node000009_Node000011"><a xlink:title=" ">
<path fill="none" stroke="#63b8ff" d="M653.7,-182.25C633.64,-160.74 596.35,-124.37 557,-104.5 549.31,-100.62 540.8,-97.51 532.28,-95.03"/>
<polygon fill="#63b8ff" stroke="#63b8ff" points="651.18,-184.69 660.51,-189.71 656.35,-179.96 651.18,-184.69"/>
</a>
</g>
</g>
<!-- Node9&#45;&gt;Node14 -->
<g id="edge15_Node000009_Node000014" class="edge">
<title>Node9&#45;&gt;Node14</title>
<g id="a_edge15_Node000009_Node000014"><a xlink:title=" ">
<path fill="none" stroke="#63b8ff" d="M634.88,-186.03C596.33,-170.81 534.56,-146.42 500.68,-133.05"/>
<polygon fill="#63b8ff" stroke="#63b8ff" points="634.03,-189.46 644.62,-189.87 636.6,-182.95 634.03,-189.46"/>
</a>
</g>
</g>
<!-- Node10&#45;&gt;Node9 -->
<g id="edge11_Node000010_Node000009" class="edge">
<title>Node10&#45;&gt;Node9</title>
<g id="a_edge11_Node000010_Node000009"><a xlink:title=" ">
<path fill="none" stroke="#63b8ff" d="M557.78,-206.18C569.43,-206.29 581.38,-206.27 592.92,-206.12"/>
<polygon fill="#63b8ff" stroke="#63b8ff" points="557.69,-202.68 547.64,-206.04 557.59,-209.67 557.69,-202.68"/>
</a>
</g>
</g>
<!-- Node11&#45;&gt;Node12 -->
<g id="edge13_Node000011_Node000012" class="edge">
<title>Node11&#45;&gt;Node12</title>
<g id="a_edge13_Node000011_Node000012"><a xlink:title=" ">
<path fill="none" stroke="#63b8ff" d="M384.21,-76.81C369.34,-75.38 354.21,-73.93 340.18,-72.58"/>
<polygon fill="#63b8ff" stroke="#63b8ff" points="384.16,-80.33 394.45,-77.8 384.84,-73.36 384.16,-80.33"/>
</a>
</g>
</g>
<!-- Node13 -->
<g id="Node000013" class="node">
<title>Node13</title>
<g id="a_Node000013"><a xlink:href="classGameWindow.html#aba82e451e3ca31cb27b36faefeee8d6c" target="_top" xlink:title=" ">
<polygon fill="white" stroke="#666666" points="158,-76 0,-76 0,-57 158,-57 158,-76"/>
<text text-anchor="middle" x="79" y="-64" font-family="Helvetica,sans-Serif" font-size="10.00">GameWindow::GameWindow</text>
</a>
</g>
</g>
<!-- Node12&#45;&gt;Node13 -->
<g id="edge14_Node000012_Node000013" class="edge">
<title>Node12&#45;&gt;Node13</title>
<g id="a_edge14_Node000012_Node000013"><a xlink:title=" ">
<path fill="none" stroke="#63b8ff" d="M201.75,-66.5C187.53,-66.5 172.57,-66.5 158.19,-66.5"/>
<polygon fill="#63b8ff" stroke="#63b8ff" points="201.96,-70 211.96,-66.5 201.96,-63 201.96,-70"/>
</a>
</g>
</g>
<!-- Node14&#45;&gt;Node12 -->
<g id="edge16_Node000014_Node000012" class="edge">
<title>Node14&#45;&gt;Node12</title>
<g id="a_edge16_Node000014_Node000012"><a xlink:title=" ">
<path fill="none" stroke="#63b8ff" d="M424.02,-111.47C414.04,-108.95 403.67,-106.23 394,-103.5 363.65,-94.94 329.29,-83.91 305.7,-76.13"/>
<polygon fill="#63b8ff" stroke="#63b8ff" points="423.28,-114.9 433.83,-113.92 424.97,-108.1 423.28,-114.9"/>
</a>
</g>
</g>
<!-- Node16 -->
<g id="Node000016" class="node">
<title>Node16</title>
<g id="a_Node000016"><a xlink:href="classGameWindow.html#a9931dfa33915f6b56508ba24a8350337" target="_top" xlink:title=" ">
<polygon fill="white" stroke="#666666" points="944,-19 783,-19 783,0 944,0 944,-19"/>
<text text-anchor="middle" x="863.5" y="-7" font-family="Helvetica,sans-Serif" font-size="10.00">GameWindow::onSaveClicked</text>
</a>
</g>
</g>
<!-- Node15&#45;&gt;Node16 -->
<g id="edge25_Node000015_Node000016" class="edge">
<title>Node15&#45;&gt;Node16</title>
<g id="a_edge25_Node000015_Node000016"><a xlink:title=" ">
<path fill="none" stroke="#63b8ff" d="M1446.97,-100.66C1376.38,-81.08 1257.36,-50.2 1153,-33.5 1082.9,-22.28 1002.33,-16.14 944.18,-12.88"/>
<polygon fill="#63b8ff" stroke="#63b8ff" points="1446.45,-104.15 1457.02,-103.47 1448.33,-97.41 1446.45,-104.15"/>
</a>
</g>
</g>
<!-- Node16&#45;&gt;Node12 -->
<g id="edge26_Node000016_Node000012" class="edge">
<title>Node16&#45;&gt;Node12</title>
<g id="a_edge26_Node000016_Node000012"><a xlink:title=" ">
<path fill="none" stroke="#63b8ff" d="M772.64,-8.17C677.85,-8.15 524.46,-12.04 394,-33.5 362.76,-38.64 327.96,-49.09 304.5,-56.86"/>
<polygon fill="#63b8ff" stroke="#63b8ff" points="772.75,-11.67 782.76,-8.19 772.76,-4.67 772.75,-11.67"/>
</a>
</g>
</g>
<!-- Node17&#45;&gt;Node9 -->
<g id="edge28_Node000017_Node000009" class="edge">
<title>Node17&#45;&gt;Node9</title>
<g id="a_edge28_Node000017_Node000009"><a xlink:title=" ">
<path fill="none" stroke="#63b8ff" d="M1017.99,-339.25C1005.54,-335.74 992.19,-331.72 980,-327.5 869.16,-289.14 740.85,-231.62 691.65,-209.06"/>
<polygon fill="#63b8ff" stroke="#63b8ff" points="1017.17,-342.65 1027.74,-341.94 1019.04,-335.91 1017.17,-342.65"/>
</a>
</g>
</g>
</g>
</svg>
