<?xml version="1.0" encoding="UTF-8" standalone="no"?>
<!DOCTYPE svg PUBLIC "-//W3C//DTD SVG 1.1//EN"
 "http://www.w3.org/Graphics/SVG/1.1/DTD/svg11.dtd">
<!-- Generated by graphviz version 2.43.0 (0)
 -->
<!-- Title: hive::models::strategies::LadybugMoveStrategy Pages: 1 -->
<svg width="170pt" height="651pt"
 viewBox="0.00 0.00 170.00 651.00" xmlns="http://www.w3.org/2000/svg" xmlns:xlink="http://www.w3.org/1999/xlink">
<g id="graph0" class="graph" transform="scale(1 1) rotate(0) translate(4 647)">
<title>hive::models::strategies::LadybugMoveStrategy</title>
<!-- Node1 -->
<g id="Node000001" class="node">
<title>Node1</title>
<g id="a_Node000001"><a xlink:title="Movement strategy for the Ladybug piece in the Hive game.">
<polygon fill="#999999" stroke="transparent" points="154.5,-105 7.5,-105 7.5,0 154.5,0 154.5,-105"/>
<text text-anchor="start" x="22.5" y="-92.5" font-family="Helvetica,sans-Serif" font-size="10.00">hive::models::strategies</text>
<text text-anchor="start" x="23.5" y="-81.5" font-family="Helvetica,sans-Serif" font-size="10.00">::LadybugMoveStrategy</text>
<text text-anchor="start" x="79.5" y="-66.5" font-family="Helvetica,sans-Serif" font-size="10.00"> </text>
<text text-anchor="start" x="12" y="-51.5" font-family="Helvetica,sans-Serif" font-size="10.00">+</text>
<text text-anchor="start" x="25" y="-51.5" font-family="Helvetica,sans-Serif" font-size="10.00">LadybugMoveStrategy()</text>
<text text-anchor="start" x="12" y="-36.5" font-family="Helvetica,sans-Serif" font-size="10.00">+</text>
<text text-anchor="start" x="25" y="-36.5" font-family="Helvetica,sans-Serif" font-size="10.00">~LadybugMoveStrategy()</text>
<text text-anchor="start" x="12" y="-21.5" font-family="Helvetica,sans-Serif" font-size="10.00">+</text>
<text text-anchor="start" x="25" y="-21.5" font-family="Helvetica,sans-Serif" font-size="10.00">getPossibleMoves()</text>
<text text-anchor="start" x="12" y="-6.5" font-family="Helvetica,sans-Serif" font-size="10.00">+</text>
<text text-anchor="start" x="25" y="-6.5" font-family="Helvetica,sans-Serif" font-size="10.00">getPossibleMoves()</text>
<polygon fill="#666666" stroke="#666666" points="8,-76.5 8,-76.5 155,-76.5 155,-76.5 8,-76.5"/>
<polygon fill="#666666" stroke="#666666" points="8,-61.5 8,-61.5 155,-61.5 155,-61.5 8,-61.5"/>
<polygon fill="none" stroke="#666666" points="7.5,0 7.5,-105 154.5,-105 154.5,0 7.5,0"/>
</a>
</g>
</g>
<!-- Node2 -->
<g id="Node000002" class="node">
<title>Node2</title>
<g id="a_Node000002"><a xlink:href="classhive_1_1models_1_1strategies_1_1MoveStrategy.html" target="_top" xlink:title="Abstract class defining the movement strategy for game pieces.">
<polygon fill="white" stroke="transparent" points="162,-307 0,-307 0,-142 162,-142 162,-307"/>
<text text-anchor="start" x="22" y="-294.5" font-family="Helvetica,sans-Serif" font-size="10.00">hive::models::strategies</text>
<text text-anchor="start" x="43.5" y="-283.5" font-family="Helvetica,sans-Serif" font-size="10.00">::MoveStrategy</text>
<text text-anchor="start" x="79" y="-268.5" font-family="Helvetica,sans-Serif" font-size="10.00"> </text>
<text text-anchor="start" x="4" y="-253.5" font-family="Helvetica,sans-Serif" font-size="10.00">+</text>
<text text-anchor="start" x="17" y="-253.5" font-family="Helvetica,sans-Serif" font-size="10.00">MoveStrategy()</text>
<text text-anchor="start" x="4" y="-238.5" font-family="Helvetica,sans-Serif" font-size="10.00">+</text>
<text text-anchor="start" x="17" y="-238.5" font-family="Helvetica,sans-Serif" font-size="10.00">~MoveStrategy()</text>
<text text-anchor="start" x="4" y="-223.5" font-family="Helvetica,sans-Serif" font-size="10.00">+</text>
<text text-anchor="start" x="17" y="-223.5" font-family="Helvetica,sans-Serif" font-size="10.00">getPossibleMoves()</text>
<text text-anchor="start" x="4" y="-208.5" font-family="Helvetica,sans-Serif" font-size="10.00">+</text>
<text text-anchor="start" x="17" y="-208.5" font-family="Helvetica,sans-Serif" font-size="10.00">getPossibleMoves()</text>
<text text-anchor="start" x="4" y="-193.5" font-family="Helvetica,sans-Serif" font-size="10.00">+</text>
<text text-anchor="start" x="17" y="-193.5" font-family="Helvetica,sans-Serif" font-size="10.00">hasPiece()</text>
<text text-anchor="start" x="4" y="-178.5" font-family="Helvetica,sans-Serif" font-size="10.00">+</text>
<text text-anchor="start" x="17" y="-178.5" font-family="Helvetica,sans-Serif" font-size="10.00">getPiece()</text>
<text text-anchor="start" x="4" y="-163.5" font-family="Helvetica,sans-Serif" font-size="10.00">+</text>
<text text-anchor="start" x="17" y="-163.5" font-family="Helvetica,sans-Serif" font-size="10.00">validatePieceOwnership()</text>
<text text-anchor="start" x="4" y="-148.5" font-family="Helvetica,sans-Serif" font-size="10.00">#</text>
<text text-anchor="start" x="17" y="-148.5" font-family="Helvetica,sans-Serif" font-size="10.00">isHiveConnectedAfterMove()</text>
<polygon fill="#666666" stroke="#666666" points="0,-278.5 0,-278.5 162,-278.5 162,-278.5 0,-278.5"/>
<polygon fill="#666666" stroke="#666666" points="0,-263.5 0,-263.5 162,-263.5 162,-263.5 0,-263.5"/>
<polygon fill="none" stroke="#666666" points="0,-142 0,-307 162,-307 162,-142 0,-142"/>
</a>
</g>
</g>
<!-- Node2&#45;&gt;Node1 -->
<g id="edge1_Node000001_Node000002" class="edge">
<title>Node2&#45;&gt;Node1</title>
<g id="a_edge1_Node000001_Node000002"><a xlink:title=" ">
<path fill="none" stroke="#63b8ff" d="M81,-131.78C81,-122.76 81,-113.84 81,-105.43"/>
<polygon fill="none" stroke="#63b8ff" points="77.5,-131.99 81,-141.99 84.5,-131.99 77.5,-131.99"/>
</a>
</g>
</g>
<!-- Node3 -->
<g id="Node000003" class="node">
<title>Node3</title>
<g id="a_Node000003"><a xlink:href="classhive_1_1models_1_1Piece.html" target="_top" xlink:title="Base class representing a generic game piece in the Hive game.">
<polygon fill="white" stroke="transparent" points="137.5,-643 24.5,-643 24.5,-354 137.5,-354 137.5,-643"/>
<text text-anchor="start" x="33.5" y="-630.5" font-family="Helvetica,sans-Serif" font-size="10.00">hive::models::Piece</text>
<text text-anchor="start" x="29" y="-615.5" font-family="Helvetica,sans-Serif" font-size="10.00">#</text>
<text text-anchor="start" x="42" y="-615.5" font-family="Helvetica,sans-Serif" font-size="10.00">id</text>
<text text-anchor="start" x="29" y="-600.5" font-family="Helvetica,sans-Serif" font-size="10.00">#</text>
<text text-anchor="start" x="42" y="-600.5" font-family="Helvetica,sans-Serif" font-size="10.00">type</text>
<text text-anchor="start" x="29" y="-585.5" font-family="Helvetica,sans-Serif" font-size="10.00">#</text>
<text text-anchor="start" x="42" y="-585.5" font-family="Helvetica,sans-Serif" font-size="10.00">moveStrategy</text>
<text text-anchor="start" x="29" y="-570.5" font-family="Helvetica,sans-Serif" font-size="10.00">#</text>
<text text-anchor="start" x="42" y="-570.5" font-family="Helvetica,sans-Serif" font-size="10.00">owner</text>
<text text-anchor="start" x="29" y="-555.5" font-family="Helvetica,sans-Serif" font-size="10.00">#</text>
<text text-anchor="start" x="42" y="-555.5" font-family="Helvetica,sans-Serif" font-size="10.00">position</text>
<text text-anchor="start" x="29" y="-540.5" font-family="Helvetica,sans-Serif" font-size="10.00">#</text>
<text text-anchor="start" x="42" y="-540.5" font-family="Helvetica,sans-Serif" font-size="10.00">pieceNextId</text>
<text text-anchor="start" x="29" y="-525.5" font-family="Helvetica,sans-Serif" font-size="10.00">+</text>
<text text-anchor="start" x="42" y="-525.5" font-family="Helvetica,sans-Serif" font-size="10.00">~Piece()</text>
<text text-anchor="start" x="29" y="-510.5" font-family="Helvetica,sans-Serif" font-size="10.00">+</text>
<text text-anchor="start" x="42" y="-510.5" font-family="Helvetica,sans-Serif" font-size="10.00">Piece()</text>
<text text-anchor="start" x="29" y="-495.5" font-family="Helvetica,sans-Serif" font-size="10.00">+</text>
<text text-anchor="start" x="42" y="-495.5" font-family="Helvetica,sans-Serif" font-size="10.00">operator=()</text>
<text text-anchor="start" x="29" y="-480.5" font-family="Helvetica,sans-Serif" font-size="10.00">+</text>
<text text-anchor="start" x="42" y="-480.5" font-family="Helvetica,sans-Serif" font-size="10.00">Piece()</text>
<text text-anchor="start" x="29" y="-465.5" font-family="Helvetica,sans-Serif" font-size="10.00">+</text>
<text text-anchor="start" x="42" y="-465.5" font-family="Helvetica,sans-Serif" font-size="10.00">operator=()</text>
<text text-anchor="start" x="29" y="-450.5" font-family="Helvetica,sans-Serif" font-size="10.00">+</text>
<text text-anchor="start" x="42" y="-450.5" font-family="Helvetica,sans-Serif" font-size="10.00">getId()</text>
<text text-anchor="start" x="29" y="-435.5" font-family="Helvetica,sans-Serif" font-size="10.00">+</text>
<text text-anchor="start" x="42" y="-435.5" font-family="Helvetica,sans-Serif" font-size="10.00">getType()</text>
<text text-anchor="start" x="29" y="-420.5" font-family="Helvetica,sans-Serif" font-size="10.00">+</text>
<text text-anchor="start" x="42" y="-420.5" font-family="Helvetica,sans-Serif" font-size="10.00">getMoveStrategy()</text>
<text text-anchor="start" x="29" y="-405.5" font-family="Helvetica,sans-Serif" font-size="10.00">+</text>
<text text-anchor="start" x="42" y="-405.5" font-family="Helvetica,sans-Serif" font-size="10.00">getOwner()</text>
<text text-anchor="start" x="29" y="-390.5" font-family="Helvetica,sans-Serif" font-size="10.00">+</text>
<text text-anchor="start" x="42" y="-390.5" font-family="Helvetica,sans-Serif" font-size="10.00">getPosition()</text>
<text text-anchor="start" x="42" y="-375.5" font-family="Helvetica,sans-Serif" font-size="10.00">and 9 more...</text>
<text text-anchor="start" x="29" y="-360.5" font-family="Helvetica,sans-Serif" font-size="10.00">#</text>
<text text-anchor="start" x="42" y="-360.5" font-family="Helvetica,sans-Serif" font-size="10.00">Piece()</text>
<polygon fill="#666666" stroke="#666666" points="25,-625.5 25,-625.5 138,-625.5 138,-625.5 25,-625.5"/>
<polygon fill="#666666" stroke="#666666" points="25,-535.5 25,-535.5 40,-535.5 40,-535.5 25,-535.5"/>
<polygon fill="#666666" stroke="#666666" points="40,-535.5 40,-535.5 138,-535.5 138,-535.5 40,-535.5"/>
<polygon fill="none" stroke="#666666" points="24.5,-354 24.5,-643 137.5,-643 137.5,-354 24.5,-354"/>
</a>
</g>
</g>
<!-- Node3&#45;&gt;Node2 -->
<g id="edge2_Node000002_Node000003" class="edge">
<title>Node3&#45;&gt;Node2</title>
<g id="a_edge2_Node000002_Node000003"><a xlink:title=" ">
<path fill="none" stroke="#63b8ff" d="M81,-353.93C81,-342.33 81,-330.81 81,-319.7"/>
<polygon fill="none" stroke="#63b8ff" points="81,-319.34 77,-313.34 81,-307.34 85,-313.34 81,-319.34"/>
</a>
</g>
<text text-anchor="middle" x="100" y="-328" font-family="Helvetica,sans-Serif" font-size="10.00" fill="grey"> #piece</text>
</g>
</g>
</svg>
