<?xml version="1.0" encoding="UTF-8" standalone="no"?>
<!DOCTYPE svg PUBLIC "-//W3C//DTD SVG 1.1//EN"
 "http://www.w3.org/Graphics/SVG/1.1/DTD/svg11.dtd">
<!-- Generated by graphviz version 2.43.0 (0)
 -->
<!-- Title: hive::utils::Serializer::saveGame Pages: 1 -->
<svg width="276pt" height="182pt"
 viewBox="0.00 0.00 276.00 182.00" xmlns="http://www.w3.org/2000/svg" xmlns:xlink="http://www.w3.org/1999/xlink">
<g id="graph0" class="graph" transform="scale(1 1) rotate(0) translate(4 178)">
<title>hive::utils::Serializer::saveGame</title>
<!-- Node1 -->
<g id="Node000001" class="node">
<title>Node1</title>
<g id="a_Node000001"><a xlink:title="Saves the current game state to a file.">
<polygon fill="#999999" stroke="#666666" points="116,-102 0,-102 0,-72 116,-72 116,-102"/>
<text text-anchor="start" x="8" y="-90" font-family="Helvetica,sans-Serif" font-size="10.00">hive::utils::Serializer</text>
<text text-anchor="middle" x="58" y="-79" font-family="Helvetica,sans-Serif" font-size="10.00">::saveGame</text>
</a>
</g>
</g>
<!-- Node2 -->
<g id="Node000002" class="node">
<title>Node2</title>
<g id="a_Node000002"><a xlink:href="classhive_1_1models_1_1Player.html#a34550c540f2ced691b6b0746089bb1c4" target="_top" xlink:title="Retrieves the player&#39;s unique identifier.">
<polygon fill="white" stroke="#666666" points="268,-174 152,-174 152,-144 268,-144 268,-174"/>
<text text-anchor="start" x="160" y="-162" font-family="Helvetica,sans-Serif" font-size="10.00">hive::models::Player</text>
<text text-anchor="middle" x="210" y="-151" font-family="Helvetica,sans-Serif" font-size="10.00">::getId</text>
</a>
</g>
</g>
<!-- Node1&#45;&gt;Node2 -->
<g id="edge1_Node000001_Node000002" class="edge">
<title>Node1&#45;&gt;Node2</title>
<g id="a_edge1_Node000001_Node000002"><a xlink:title=" ">
<path fill="none" stroke="#63b8ff" d="M86.8,-102.07C105.13,-111.83 129.78,-124.61 152,-135 155.51,-136.64 159.16,-138.3 162.85,-139.93"/>
<polygon fill="#63b8ff" stroke="#63b8ff" points="161.45,-143.14 172.02,-143.92 164.25,-136.72 161.45,-143.14"/>
</a>
</g>
</g>
<!-- Node3 -->
<g id="Node000003" class="node">
<title>Node3</title>
<g id="a_Node000003"><a xlink:href="classhive_1_1models_1_1Game.html#a56a9152901e8cafc9a4525c60ba7568d" target="_top" xlink:title="Gets the player by index.">
<polygon fill="white" stroke="#666666" points="267.5,-126 152.5,-126 152.5,-96 267.5,-96 267.5,-126"/>
<text text-anchor="start" x="160.5" y="-114" font-family="Helvetica,sans-Serif" font-size="10.00">hive::models::Game</text>
<text text-anchor="middle" x="210" y="-103" font-family="Helvetica,sans-Serif" font-size="10.00">::getPlayer</text>
</a>
</g>
</g>
<!-- Node1&#45;&gt;Node3 -->
<g id="edge2_Node000001_Node000003" class="edge">
<title>Node1&#45;&gt;Node3</title>
<g id="a_edge2_Node000001_Node000003"><a xlink:title=" ">
<path fill="none" stroke="#63b8ff" d="M116.14,-96.14C124.59,-97.49 133.36,-98.9 141.99,-100.28"/>
<polygon fill="#63b8ff" stroke="#63b8ff" points="141.59,-103.76 152.02,-101.88 142.7,-96.85 141.59,-103.76"/>
</a>
</g>
</g>
<!-- Node4 -->
<g id="Node000004" class="node">
<title>Node4</title>
<g id="a_Node000004"><a xlink:href="classhive_1_1models_1_1Game.html#aa0eb571c5102f2f04afc77d7318476a8" target="_top" xlink:title="Gets the redo stack.">
<polygon fill="white" stroke="#666666" points="267.5,-78 152.5,-78 152.5,-48 267.5,-48 267.5,-78"/>
<text text-anchor="start" x="160.5" y="-66" font-family="Helvetica,sans-Serif" font-size="10.00">hive::models::Game</text>
<text text-anchor="middle" x="210" y="-55" font-family="Helvetica,sans-Serif" font-size="10.00">::getRedoStack</text>
</a>
</g>
</g>
<!-- Node1&#45;&gt;Node4 -->
<g id="edge3_Node000001_Node000004" class="edge">
<title>Node1&#45;&gt;Node4</title>
<g id="a_edge3_Node000001_Node000004"><a xlink:title=" ">
<path fill="none" stroke="#63b8ff" d="M116.14,-77.86C124.59,-76.51 133.36,-75.1 141.99,-73.72"/>
<polygon fill="#63b8ff" stroke="#63b8ff" points="142.7,-77.15 152.02,-72.12 141.59,-70.24 142.7,-77.15"/>
</a>
</g>
</g>
<!-- Node5 -->
<g id="Node000005" class="node">
<title>Node5</title>
<g id="a_Node000005"><a xlink:href="classhive_1_1models_1_1Game.html#aa1857cf3fb038d3924801ac414e16ae6" target="_top" xlink:title="Gets the undo stack.">
<polygon fill="white" stroke="#666666" points="267.5,-30 152.5,-30 152.5,0 267.5,0 267.5,-30"/>
<text text-anchor="start" x="160.5" y="-18" font-family="Helvetica,sans-Serif" font-size="10.00">hive::models::Game</text>
<text text-anchor="middle" x="210" y="-7" font-family="Helvetica,sans-Serif" font-size="10.00">::getUndoStack</text>
</a>
</g>
</g>
<!-- Node1&#45;&gt;Node5 -->
<g id="edge4_Node000001_Node000005" class="edge">
<title>Node1&#45;&gt;Node5</title>
<g id="a_edge4_Node000001_Node000005"><a xlink:title=" ">
<path fill="none" stroke="#63b8ff" d="M86.8,-71.93C105.13,-62.17 129.78,-49.39 152,-39 155.51,-37.36 159.16,-35.7 162.85,-34.07"/>
<polygon fill="#63b8ff" stroke="#63b8ff" points="164.25,-37.28 172.02,-30.08 161.45,-30.86 164.25,-37.28"/>
</a>
</g>
</g>
</g>
</svg>
