<?xml version="1.0" encoding="UTF-8" standalone="no"?>
<!DOCTYPE svg PUBLIC "-//W3C//DTD SVG 1.1//EN"
 "http://www.w3.org/Graphics/SVG/1.1/DTD/svg11.dtd">
<!-- Generated by graphviz version 2.43.0 (0)
 -->
<!-- Title: hive::models::Board::addPiece Pages: 1 -->
<svg width="638pt" height="182pt"
 viewBox="0.00 0.00 638.00 182.09" xmlns="http://www.w3.org/2000/svg" xmlns:xlink="http://www.w3.org/1999/xlink">
<g id="graph0" class="graph" transform="scale(1 1) rotate(0) translate(4 178.09)">
<title>hive::models::Board::addPiece</title>
<!-- Node1 -->
<g id="Node000001" class="node">
<title>Node1</title>
<g id="a_Node000001"><a xlink:title="Adds a piece to a specific hex location on the board.">
<polygon fill="#999999" stroke="#666666" points="114,-93.09 0,-93.09 0,-63.09 114,-63.09 114,-93.09"/>
<text text-anchor="start" x="8" y="-81.09" font-family="Helvetica,sans-Serif" font-size="10.00">hive::models::Board</text>
<text text-anchor="middle" x="57" y="-70.09" font-family="Helvetica,sans-Serif" font-size="10.00">::addPiece</text>
</a>
</g>
</g>
<!-- Node2 -->
<g id="Node000002" class="node">
<title>Node2</title>
<g id="a_Node000002"><a xlink:href="classhive_1_1models_1_1Board.html#a663c09a5e9ed6333ecb0c706464b6159" target="_top" xlink:title="Generates hexes surrounding a given hex location.">
<polygon fill="white" stroke="#666666" points="305,-93.09 150,-93.09 150,-63.09 305,-63.09 305,-93.09"/>
<text text-anchor="start" x="158" y="-81.09" font-family="Helvetica,sans-Serif" font-size="10.00">hive::models::Board</text>
<text text-anchor="middle" x="227.5" y="-70.09" font-family="Helvetica,sans-Serif" font-size="10.00">::generateSurroundingHexes</text>
</a>
</g>
</g>
<!-- Node1&#45;&gt;Node2 -->
<g id="edge1_Node000001_Node000002" class="edge">
<title>Node1&#45;&gt;Node2</title>
<g id="a_edge1_Node000001_Node000002"><a xlink:title=" ">
<path fill="none" stroke="#63b8ff" d="M114.11,-78.09C122.37,-78.09 131.03,-78.09 139.73,-78.09"/>
<polygon fill="#63b8ff" stroke="#63b8ff" points="139.94,-81.59 149.94,-78.09 139.94,-74.59 139.94,-81.59"/>
</a>
</g>
</g>
<!-- Node3 -->
<g id="Node000003" class="node">
<title>Node3</title>
<g id="a_Node000003"><a xlink:href="namespacehive_1_1models_1_1enums.html#a43af89b8a126e31344db8c8cafc8cf3f" target="_top" xlink:title="Retrieves all possible directions in an array.">
<polygon fill="white" stroke="#666666" points="460,-174.09 341,-174.09 341,-144.09 460,-144.09 460,-174.09"/>
<text text-anchor="start" x="349" y="-162.09" font-family="Helvetica,sans-Serif" font-size="10.00">hive::models::enums</text>
<text text-anchor="middle" x="400.5" y="-151.09" font-family="Helvetica,sans-Serif" font-size="10.00">::getAllDirections</text>
</a>
</g>
</g>
<!-- Node2&#45;&gt;Node3 -->
<g id="edge2_Node000002_Node000003" class="edge">
<title>Node2&#45;&gt;Node3</title>
<g id="a_edge2_Node000002_Node000003"><a xlink:title=" ">
<path fill="none" stroke="#63b8ff" d="M260.26,-93.14C287.89,-106.23 328.11,-125.28 358.22,-139.54"/>
<polygon fill="#63b8ff" stroke="#63b8ff" points="357.08,-142.87 367.62,-143.99 360.08,-136.55 357.08,-142.87"/>
</a>
</g>
</g>
<!-- Node4 -->
<g id="Node000004" class="node">
<title>Node4</title>
<g id="a_Node000004"><a xlink:href="classhive_1_1models_1_1Hex.html#a94e250128565af8fbae3c988af319bbf" target="_top" xlink:title="Retrieves the x&#45;coordinate of the hex cell.">
<polygon fill="white" stroke="#666666" points="630,-113.59 496,-113.59 496,-94.59 630,-94.59 630,-113.59"/>
<text text-anchor="middle" x="563" y="-101.59" font-family="Helvetica,sans-Serif" font-size="10.00">hive::models::Hex::getX</text>
</a>
</g>
</g>
<!-- Node2&#45;&gt;Node4 -->
<g id="edge3_Node000002_Node000004" class="edge">
<title>Node2&#45;&gt;Node4</title>
<g id="a_edge3_Node000002_Node000004"><a xlink:title=" ">
<path fill="none" stroke="#63b8ff" d="M305.01,-84.06C359.21,-88.28 431.61,-93.93 485.75,-98.15"/>
<polygon fill="#63b8ff" stroke="#63b8ff" points="485.74,-101.66 495.98,-98.95 486.28,-94.68 485.74,-101.66"/>
</a>
</g>
</g>
<!-- Node5 -->
<g id="Node000005" class="node">
<title>Node5</title>
<g id="a_Node000005"><a xlink:href="classhive_1_1models_1_1Hex.html#a18c77d5b702f072962352f4d84ccca4d" target="_top" xlink:title="Retrieves the y&#45;coordinate of the hex cell.">
<polygon fill="white" stroke="#666666" points="629.5,-64.59 496.5,-64.59 496.5,-45.59 629.5,-45.59 629.5,-64.59"/>
<text text-anchor="middle" x="563" y="-52.59" font-family="Helvetica,sans-Serif" font-size="10.00">hive::models::Hex::getY</text>
</a>
</g>
</g>
<!-- Node2&#45;&gt;Node5 -->
<g id="edge4_Node000002_Node000005" class="edge">
<title>Node2&#45;&gt;Node5</title>
<g id="a_edge4_Node000002_Node000005"><a xlink:title=" ">
<path fill="none" stroke="#63b8ff" d="M305.01,-72.82C359.3,-69.07 431.85,-64.07 486.02,-60.33"/>
<polygon fill="#63b8ff" stroke="#63b8ff" points="486.52,-63.81 496.26,-59.63 486.04,-56.82 486.52,-63.81"/>
</a>
</g>
</g>
<!-- Node6 -->
<g id="Node000006" class="node">
<title>Node6</title>
<g id="a_Node000006"><a xlink:href="classhive_1_1models_1_1Hex.html#a6fb2c3680c7bddfddaeff4e356650552" target="_top" xlink:title="Retrieves the z&#45;coordinate of the hex cell.">
<polygon fill="white" stroke="#666666" points="630,-24.59 496,-24.59 496,-5.59 630,-5.59 630,-24.59"/>
<text text-anchor="middle" x="563" y="-12.59" font-family="Helvetica,sans-Serif" font-size="10.00">hive::models::Hex::getZ</text>
</a>
</g>
</g>
<!-- Node2&#45;&gt;Node6 -->
<g id="edge5_Node000002_Node000006" class="edge">
<title>Node2&#45;&gt;Node6</title>
<g id="a_edge5_Node000002_Node000006"><a xlink:title=" ">
<path fill="none" stroke="#63b8ff" d="M246.57,-63.08C267.68,-46.61 304.4,-21.17 341,-11.09 391.97,2.93 452.09,0.71 496.74,-4.35"/>
<polygon fill="#63b8ff" stroke="#63b8ff" points="496.54,-7.85 506.88,-5.57 497.38,-0.9 496.54,-7.85"/>
</a>
</g>
</g>
<!-- Node7 -->
<g id="Node000007" class="node">
<title>Node7</title>
<g id="a_Node000007"><a xlink:href="classhive_1_1models_1_1Board.html#adb2633e6c0842bf0ed582c81015e7cb4" target="_top" xlink:title="Retrieves the neighboring hex in the given direction.">
<polygon fill="white" stroke="#666666" points="457.5,-50.09 343.5,-50.09 343.5,-20.09 457.5,-20.09 457.5,-50.09"/>
<text text-anchor="start" x="351.5" y="-38.09" font-family="Helvetica,sans-Serif" font-size="10.00">hive::models::Board</text>
<text text-anchor="middle" x="400.5" y="-27.09" font-family="Helvetica,sans-Serif" font-size="10.00">::neighbor</text>
</a>
</g>
</g>
<!-- Node2&#45;&gt;Node7 -->
<g id="edge6_Node000002_Node000007" class="edge">
<title>Node2&#45;&gt;Node7</title>
<g id="a_edge6_Node000002_Node000007"><a xlink:title=" ">
<path fill="none" stroke="#63b8ff" d="M288.31,-63.05C302.86,-59.39 318.51,-55.46 333.34,-51.73"/>
<polygon fill="#63b8ff" stroke="#63b8ff" points="334.61,-55.02 343.46,-49.19 332.9,-48.23 334.61,-55.02"/>
</a>
</g>
</g>
<!-- Node7&#45;&gt;Node4 -->
<g id="edge7_Node000007_Node000004" class="edge">
<title>Node7&#45;&gt;Node4</title>
<g id="a_edge7_Node000007_Node000004"><a xlink:title=" ">
<path fill="none" stroke="#63b8ff" d="M436.72,-50.24C464.67,-62.25 503.38,-78.89 530.34,-90.49"/>
<polygon fill="#63b8ff" stroke="#63b8ff" points="529.14,-93.78 539.71,-94.51 531.9,-87.35 529.14,-93.78"/>
</a>
</g>
</g>
<!-- Node7&#45;&gt;Node5 -->
<g id="edge8_Node000007_Node000005" class="edge">
<title>Node7&#45;&gt;Node5</title>
<g id="a_edge8_Node000007_Node000005"><a xlink:title=" ">
<path fill="none" stroke="#63b8ff" d="M457.64,-42.09C466.89,-43.24 476.62,-44.46 486.27,-45.66"/>
<polygon fill="#63b8ff" stroke="#63b8ff" points="485.91,-49.14 496.26,-46.9 486.77,-42.19 485.91,-49.14"/>
</a>
</g>
</g>
<!-- Node7&#45;&gt;Node6 -->
<g id="edge9_Node000007_Node000006" class="edge">
<title>Node7&#45;&gt;Node6</title>
<g id="a_edge9_Node000007_Node000006"><a xlink:title=" ">
<path fill="none" stroke="#63b8ff" d="M457.64,-28.1C466.83,-26.95 476.48,-25.75 486.06,-24.56"/>
<polygon fill="#63b8ff" stroke="#63b8ff" points="486.49,-28.03 495.98,-23.32 485.63,-21.08 486.49,-28.03"/>
</a>
</g>
</g>
</g>
</svg>
