<?xml version="1.0" encoding="UTF-8" standalone="no"?>
<!DOCTYPE svg PUBLIC "-//W3C//DTD SVG 1.1//EN"
 "http://www.w3.org/Graphics/SVG/1.1/DTD/svg11.dtd">
<!-- Generated by graphviz version 2.43.0 (0)
 -->
<!-- Title: hive::models::Game::getPlayerPtr Pages: 1 -->
<svg width="1945pt" height="573pt"
 viewBox="0.00 0.00 1945.00 573.31" xmlns="http://www.w3.org/2000/svg" xmlns:xlink="http://www.w3.org/1999/xlink">
<g id="graph0" class="graph" transform="scale(1 1) rotate(0) translate(4 569.31)">
<title>hive::models::Game::getPlayerPtr</title>
<!-- Node1 -->
<g id="Node000001" class="node">
<title>Node1</title>
<g id="a_Node000001"><a xlink:title="Gets the player corresponding to the given index, or the current player if no index is provided.">
<polygon fill="#999999" stroke="#666666" points="1937,-227.31 1822,-227.31 1822,-197.31 1937,-197.31 1937,-227.31"/>
<text text-anchor="start" x="1830" y="-215.31" font-family="Helvetica,sans-Serif" font-size="10.00">hive::models::Game</text>
<text text-anchor="middle" x="1879.5" y="-204.31" font-family="Helvetica,sans-Serif" font-size="10.00">::getPlayerPtr</text>
</a>
</g>
</g>
<!-- Node2 -->
<g id="Node000002" class="node">
<title>Node2</title>
<g id="a_Node000002"><a xlink:href="classGameWindow.html#ab2f97f7781012c179cbb1b1454eb5294" target="_top" xlink:title=" ">
<polygon fill="white" stroke="#666666" points="1589,-395.31 1401,-395.31 1401,-365.31 1589,-365.31 1589,-395.31"/>
<text text-anchor="start" x="1409" y="-383.31" font-family="Helvetica,sans-Serif" font-size="10.00">GameWindow::createPieceCreation</text>
<text text-anchor="middle" x="1495" y="-372.31" font-family="Helvetica,sans-Serif" font-size="10.00">GroupBox</text>
</a>
</g>
</g>
<!-- Node1&#45;&gt;Node2 -->
<g id="edge1_Node000001_Node000002" class="edge">
<title>Node1&#45;&gt;Node2</title>
<g id="a_edge1_Node000001_Node000002"><a xlink:title=" ">
<path fill="none" stroke="#63b8ff" d="M1863.25,-235.96C1846.95,-259.26 1818.96,-294.08 1786,-313.31 1767.48,-324.11 1651.04,-349.08 1571.46,-365.29"/>
<polygon fill="#63b8ff" stroke="#63b8ff" points="1866.17,-237.89 1868.91,-227.65 1860.38,-233.95 1866.17,-237.89"/>
</a>
</g>
</g>
<!-- Node5 -->
<g id="Node000005" class="node">
<title>Node5</title>
<g id="a_Node000005"><a xlink:href="classMenu.html#ad623fdc5e77ed481a1611abfdf3c3129" target="_top" xlink:title=" ">
<polygon fill="white" stroke="#666666" points="358,-141.81 194,-141.81 194,-122.81 358,-122.81 358,-141.81"/>
<text text-anchor="middle" x="276" y="-129.81" font-family="Helvetica,sans-Serif" font-size="10.00">Menu::onStartTwoPlayerGame</text>
</a>
</g>
</g>
<!-- Node1&#45;&gt;Node5 -->
<g id="edge36_Node000001_Node000005" class="edge">
<title>Node1&#45;&gt;Node5</title>
<g id="a_edge36_Node000001_Node000005"><a xlink:title=" ">
<path fill="none" stroke="#63b8ff" d="M1873.42,-187.39C1863.91,-147.9 1839.36,-71.89 1786,-37.31 1677.6,32.94 1625.17,-18.31 1496,-18.31 1496,-18.31 1496,-18.31 669,-18.31 519.81,-18.31 350.93,-95.39 295.61,-122.78"/>
<polygon fill="#63b8ff" stroke="#63b8ff" points="1870.03,-188.3 1875.67,-197.27 1876.86,-186.74 1870.03,-188.3"/>
</a>
</g>
</g>
<!-- Node8 -->
<g id="Node000008" class="node">
<title>Node8</title>
<g id="a_Node000008"><a xlink:href="classGameWindow.html#a379160a41f8d7e154cde54cec0c13393" target="_top" xlink:title=" ">
<polygon fill="white" stroke="#666666" points="927.5,-341.81 784.5,-341.81 784.5,-322.81 927.5,-322.81 927.5,-341.81"/>
<text text-anchor="middle" x="856" y="-329.81" font-family="Helvetica,sans-Serif" font-size="10.00">GameWindow::placePiece</text>
</a>
</g>
</g>
<!-- Node1&#45;&gt;Node8 -->
<g id="edge39_Node000001_Node000008" class="edge">
<title>Node1&#45;&gt;Node8</title>
<g id="a_edge39_Node000001_Node000008"><a xlink:title=" ">
<path fill="none" stroke="#63b8ff" d="M1849.36,-233.09C1831.84,-244.52 1808.6,-257.85 1786,-265.31 1662.76,-305.95 1625.77,-299.31 1496,-299.31 1496,-299.31 1496,-299.31 1268.5,-299.31 1133.35,-299.31 1099.53,-305.39 965,-318.31 952.01,-319.55 938.18,-321.15 924.9,-322.81"/>
<polygon fill="#63b8ff" stroke="#63b8ff" points="1851.61,-235.79 1857.98,-227.33 1847.72,-229.98 1851.61,-235.79"/>
</a>
</g>
</g>
<!-- Node10 -->
<g id="Node000010" class="node">
<title>Node10</title>
<g id="a_Node000010"><a xlink:href="classGameWindow.html#a56419355dbf68fa9e8240bf4f630352e" target="_top" xlink:title=" ">
<polygon fill="white" stroke="#666666" points="547.5,-320.81 403.5,-320.81 403.5,-301.81 547.5,-301.81 547.5,-320.81"/>
<text text-anchor="middle" x="475.5" y="-308.81" font-family="Helvetica,sans-Serif" font-size="10.00">GameWindow::movePiece</text>
</a>
</g>
</g>
<!-- Node1&#45;&gt;Node10 -->
<g id="edge33_Node000001_Node000010" class="edge">
<title>Node1&#45;&gt;Node10</title>
<g id="a_edge33_Node000001_Node000010"><a xlink:title=" ">
<path fill="none" stroke="#63b8ff" d="M1869.67,-187.38C1856.8,-155.19 1829.57,-100.32 1786,-75.31 1673.98,-11 1625.17,-56.31 1496,-56.31 1496,-56.31 1496,-56.31 855,-56.31 675.93,-56.31 518.04,-255.04 483.5,-301.62"/>
<polygon fill="#63b8ff" stroke="#63b8ff" points="1866.5,-188.89 1873.35,-196.97 1873.04,-186.38 1866.5,-188.89"/>
</a>
</g>
</g>
<!-- Node15 -->
<g id="Node000015" class="node">
<title>Node15</title>
<g id="a_Node000015"><a xlink:href="classhive_1_1utils_1_1Serializer.html#aacb397dc8b6469f10d261f8f66b1cb38" target="_top" xlink:title="Loads a game state from a file.">
<polygon fill="white" stroke="#666666" points="1763.5,-114.31 1647.5,-114.31 1647.5,-84.31 1763.5,-84.31 1763.5,-114.31"/>
<text text-anchor="start" x="1655.5" y="-102.31" font-family="Helvetica,sans-Serif" font-size="10.00">hive::utils::Serializer</text>
<text text-anchor="middle" x="1705.5" y="-91.31" font-family="Helvetica,sans-Serif" font-size="10.00">::loadGame</text>
</a>
</g>
</g>
<!-- Node1&#45;&gt;Node15 -->
<g id="edge23_Node000001_Node000015" class="edge">
<title>Node1&#45;&gt;Node15</title>
<g id="a_edge23_Node000001_Node000015"><a xlink:title=" ">
<path fill="none" stroke="#63b8ff" d="M1860.19,-189.36C1843.01,-169.26 1815.58,-140.63 1786,-123.31 1779.16,-119.3 1771.58,-115.91 1763.91,-113.05"/>
<polygon fill="#63b8ff" stroke="#63b8ff" points="1857.59,-191.71 1866.69,-197.13 1862.96,-187.22 1857.59,-191.71"/>
</a>
</g>
</g>
<!-- Node19 -->
<g id="Node000019" class="node">
<title>Node19</title>
<g id="a_Node000019"><a xlink:href="classhive_1_1controllers_1_1cli_1_1CLIController.html#afddc0cdff435f4c4379eda9707aec1e2" target="_top" xlink:title=" ">
<polygon fill="white" stroke="#666666" points="1757,-173.81 1654,-173.81 1654,-132.81 1757,-132.81 1757,-173.81"/>
<text text-anchor="start" x="1662" y="-161.81" font-family="Helvetica,sans-Serif" font-size="10.00">hive::controllers::</text>
<text text-anchor="start" x="1662" y="-150.81" font-family="Helvetica,sans-Serif" font-size="10.00">cli::CLIController::</text>
<text text-anchor="middle" x="1705.5" y="-139.81" font-family="Helvetica,sans-Serif" font-size="10.00">movePiece</text>
</a>
</g>
</g>
<!-- Node1&#45;&gt;Node19 -->
<g id="edge28_Node000001_Node000019" class="edge">
<title>Node1&#45;&gt;Node19</title>
<g id="a_edge28_Node000001_Node000019"><a xlink:title=" ">
<path fill="none" stroke="#63b8ff" d="M1824.98,-193.95C1803.39,-186.54 1778.59,-178.04 1757.28,-170.73"/>
<polygon fill="#63b8ff" stroke="#63b8ff" points="1824.06,-197.33 1834.65,-197.27 1826.33,-190.71 1824.06,-197.33"/>
</a>
</g>
</g>
<!-- Node23 -->
<g id="Node000023" class="node">
<title>Node23</title>
<g id="a_Node000023"><a xlink:href="classGameWindow.html#ad53954b7070a2f98fc8e4335e8ddeeed" target="_top" xlink:title=" ">
<polygon fill="white" stroke="#666666" points="1786,-395.31 1625,-395.31 1625,-365.31 1786,-365.31 1786,-395.31"/>
<text text-anchor="start" x="1633" y="-383.31" font-family="Helvetica,sans-Serif" font-size="10.00">GameWindow::onCreatePiece</text>
<text text-anchor="middle" x="1705.5" y="-372.31" font-family="Helvetica,sans-Serif" font-size="10.00">ButtonClicked</text>
</a>
</g>
</g>
<!-- Node1&#45;&gt;Node23 -->
<g id="edge34_Node000001_Node000023" class="edge">
<title>Node1&#45;&gt;Node23</title>
<g id="a_edge34_Node000001_Node000023"><a xlink:title=" ">
<path fill="none" stroke="#63b8ff" d="M1868.12,-236.75C1853.88,-267.57 1825.47,-320.25 1786,-351.31 1778.84,-356.94 1770.49,-361.55 1761.94,-365.29"/>
<polygon fill="#63b8ff" stroke="#63b8ff" points="1871.34,-238.13 1872.25,-227.57 1864.96,-235.26 1871.34,-238.13"/>
</a>
</g>
</g>
<!-- Node24 -->
<g id="Node000024" class="node">
<title>Node24</title>
<g id="a_Node000024"><a xlink:href="classhive_1_1controllers_1_1cli_1_1CLIController.html#a10a8cd7f81a293a29f121c62cb42044f" target="_top" xlink:title=" ">
<polygon fill="white" stroke="#666666" points="1757,-232.81 1654,-232.81 1654,-191.81 1757,-191.81 1757,-232.81"/>
<text text-anchor="start" x="1662" y="-220.81" font-family="Helvetica,sans-Serif" font-size="10.00">hive::controllers::</text>
<text text-anchor="start" x="1662" y="-209.81" font-family="Helvetica,sans-Serif" font-size="10.00">cli::CLIController::</text>
<text text-anchor="middle" x="1705.5" y="-198.81" font-family="Helvetica,sans-Serif" font-size="10.00">placePiece</text>
</a>
</g>
</g>
<!-- Node1&#45;&gt;Node24 -->
<g id="edge37_Node000001_Node000024" class="edge">
<title>Node1&#45;&gt;Node24</title>
<g id="a_edge37_Node000001_Node000024"><a xlink:title=" ">
<path fill="none" stroke="#63b8ff" d="M1811.51,-212.31C1793.44,-212.31 1774.18,-212.31 1757.15,-212.31"/>
<polygon fill="#63b8ff" stroke="#63b8ff" points="1811.7,-215.81 1821.7,-212.31 1811.7,-208.81 1811.7,-215.81"/>
</a>
</g>
</g>
<!-- Node25 -->
<g id="Node000025" class="node">
<title>Node25</title>
<g id="a_Node000025"><a xlink:href="classGameWindow.html#a58e3b3ba09f1304cf4ff22a797146482" target="_top" xlink:title=" ">
<polygon fill="white" stroke="#666666" points="1359.5,-270.81 1179.5,-270.81 1179.5,-251.81 1359.5,-251.81 1359.5,-270.81"/>
<text text-anchor="middle" x="1269.5" y="-258.81" font-family="Helvetica,sans-Serif" font-size="10.00">GameWindow::updateValidMoves</text>
</a>
</g>
</g>
<!-- Node1&#45;&gt;Node25 -->
<g id="edge40_Node000001_Node000025" class="edge">
<title>Node1&#45;&gt;Node25</title>
<g id="a_edge40_Node000001_Node000025"><a xlink:title=" ">
<path fill="none" stroke="#63b8ff" d="M1828.83,-230.53C1815.13,-234.82 1800.15,-238.86 1786,-241.31 1638.18,-266.88 1463.11,-267.55 1359.73,-264.96"/>
<polygon fill="#63b8ff" stroke="#63b8ff" points="1830.12,-233.79 1838.55,-227.38 1827.96,-227.14 1830.12,-233.79"/>
</a>
</g>
</g>
<!-- Node3 -->
<g id="Node000003" class="node">
<title>Node3</title>
<g id="a_Node000003"><a xlink:href="classGameWindow.html#a06b02213154df24f36631be44bbaa27f" target="_top" xlink:title=" ">
<polygon fill="white" stroke="#666666" points="1365,-447.31 1174,-447.31 1174,-417.31 1365,-417.31 1365,-447.31"/>
<text text-anchor="start" x="1182" y="-435.31" font-family="Helvetica,sans-Serif" font-size="10.00">GameWindow::updatePieceCreation</text>
<text text-anchor="middle" x="1269.5" y="-424.31" font-family="Helvetica,sans-Serif" font-size="10.00">Buttons</text>
</a>
</g>
</g>
<!-- Node2&#45;&gt;Node3 -->
<g id="edge2_Node000002_Node000003" class="edge">
<title>Node2&#45;&gt;Node3</title>
<g id="a_edge2_Node000002_Node000003"><a xlink:title=" ">
<path fill="none" stroke="#63b8ff" d="M1419.44,-397.65C1392.1,-404.02 1361.39,-411.16 1335,-417.3"/>
<polygon fill="#63b8ff" stroke="#63b8ff" points="1420.41,-401.02 1429.35,-395.35 1418.82,-394.21 1420.41,-401.02"/>
</a>
</g>
</g>
<!-- Node4 -->
<g id="Node000004" class="node">
<title>Node4</title>
<g id="a_Node000004"><a xlink:href="classGameWindow.html#ac53fea4b030b13de4f300ee04ced1c89" target="_top" xlink:title=" ">
<polygon fill="white" stroke="#666666" points="552.5,-369.31 398.5,-369.31 398.5,-339.31 552.5,-339.31 552.5,-369.31"/>
<text text-anchor="start" x="406.5" y="-357.31" font-family="Helvetica,sans-Serif" font-size="10.00">GameWindow::createDefaut</text>
<text text-anchor="middle" x="475.5" y="-346.31" font-family="Helvetica,sans-Serif" font-size="10.00">Config</text>
</a>
</g>
</g>
<!-- Node3&#45;&gt;Node4 -->
<g id="edge3_Node000003_Node000004" class="edge">
<title>Node3&#45;&gt;Node4</title>
<g id="a_edge3_Node000003_Node000004"><a xlink:title=" ">
<path fill="none" stroke="#63b8ff" d="M1165.21,-448.68C1030.48,-466.2 788.88,-484.39 593,-427.31 553.82,-415.89 515,-387.15 493.54,-369.33"/>
<polygon fill="#63b8ff" stroke="#63b8ff" points="1166.06,-452.1 1175.52,-447.31 1165.14,-445.16 1166.06,-452.1"/>
</a>
</g>
</g>
<!-- Node7 -->
<g id="Node000007" class="node">
<title>Node7</title>
<g id="a_Node000007"><a xlink:href="classGameWindow.html#a5674a14afc834df5cbf11c7d3a52d8d2" target="_top" xlink:title=" ">
<polygon fill="white" stroke="#666666" points="1138,-346.81 965,-346.81 965,-327.81 1138,-327.81 1138,-346.81"/>
<text text-anchor="middle" x="1051.5" y="-334.81" font-family="Helvetica,sans-Serif" font-size="10.00">GameWindow::enableAllButtons</text>
</a>
</g>
</g>
<!-- Node3&#45;&gt;Node7 -->
<g id="edge6_Node000003_Node000007" class="edge">
<title>Node3&#45;&gt;Node7</title>
<g id="a_edge6_Node000003_Node000007"><a xlink:title=" ">
<path fill="none" stroke="#63b8ff" d="M1236.14,-412.04C1210.33,-396.53 1172.84,-375.47 1138,-361.31 1123.86,-355.56 1107.87,-350.67 1093.57,-346.83"/>
<polygon fill="#63b8ff" stroke="#63b8ff" points="1234.4,-415.07 1244.77,-417.27 1238.03,-409.09 1234.4,-415.07"/>
</a>
</g>
</g>
<!-- Node3&#45;&gt;Node8 -->
<g id="edge21_Node000003_Node000008" class="edge">
<title>Node3&#45;&gt;Node8</title>
<g id="a_edge21_Node000003_Node000008"><a xlink:title=" ">
<path fill="none" stroke="#63b8ff" d="M1199.83,-414.76C1179.9,-409.71 1158.09,-404.24 1138,-399.31 1052.77,-378.37 952.75,-354.75 897.99,-341.9"/>
<polygon fill="#63b8ff" stroke="#63b8ff" points="1199.2,-418.21 1209.75,-417.27 1200.92,-411.42 1199.2,-418.21"/>
</a>
</g>
</g>
<!-- Node3&#45;&gt;Node10 -->
<g id="edge18_Node000003_Node000010" class="edge">
<title>Node3&#45;&gt;Node10</title>
<g id="a_edge18_Node000003_Node000010"><a xlink:title=" ">
<path fill="none" stroke="#63b8ff" d="M1163.38,-431.95C1028.19,-428.72 787.65,-413.51 593,-350.31 575.59,-344.66 574.07,-336.92 557,-330.31 547.36,-326.57 536.77,-323.44 526.54,-320.86"/>
<polygon fill="#63b8ff" stroke="#63b8ff" points="1163.65,-435.46 1173.73,-432.18 1163.81,-428.46 1163.65,-435.46"/>
</a>
</g>
</g>
<!-- Node11 -->
<g id="Node000011" class="node">
<title>Node11</title>
<g id="a_Node000011"><a xlink:href="classGameWindow.html#a3d2d2afbc20fe6f9c494556bfbf39d5b" target="_top" xlink:title=" ">
<polygon fill="white" stroke="#666666" points="556.5,-535.81 394.5,-535.81 394.5,-516.81 556.5,-516.81 556.5,-535.81"/>
<text text-anchor="middle" x="475.5" y="-523.81" font-family="Helvetica,sans-Serif" font-size="10.00">GameWindow::onRedoClicked</text>
</a>
</g>
</g>
<!-- Node3&#45;&gt;Node11 -->
<g id="edge19_Node000003_Node000011" class="edge">
<title>Node3&#45;&gt;Node11</title>
<g id="a_edge19_Node000003_Node000011"><a xlink:title=" ">
<path fill="none" stroke="#63b8ff" d="M1231.1,-451.94C1205.6,-464.36 1170.65,-479.48 1138,-487.31 932.99,-536.45 682.53,-535.22 556.73,-530.55"/>
<polygon fill="#63b8ff" stroke="#63b8ff" points="1232.99,-454.92 1240.39,-447.34 1229.88,-448.65 1232.99,-454.92"/>
</a>
</g>
</g>
<!-- Node12 -->
<g id="Node000012" class="node">
<title>Node12</title>
<g id="a_Node000012"><a xlink:href="classGameWindow.html#a5b3bcfd2cd2b6f07f0be351f114119db" target="_top" xlink:title=" ">
<polygon fill="white" stroke="#666666" points="340,-535.81 212,-535.81 212,-516.81 340,-516.81 340,-535.81"/>
<text text-anchor="middle" x="276" y="-523.81" font-family="Helvetica,sans-Serif" font-size="10.00">GameWindow::setupUI</text>
</a>
</g>
</g>
<!-- Node3&#45;&gt;Node12 -->
<g id="edge22_Node000003_Node000012" class="edge">
<title>Node3&#45;&gt;Node12</title>
<g id="a_edge22_Node000003_Node000012"><a xlink:title=" ">
<path fill="none" stroke="#63b8ff" d="M1241.91,-453.66C1216.66,-472.81 1176.89,-500.17 1138,-515.31 1019.79,-561.33 983.85,-565.31 857,-565.31 857,-565.31 857,-565.31 669,-565.31 546.45,-565.31 515.71,-559.59 394,-545.31 372.74,-542.81 349.45,-539.21 329.28,-535.81"/>
<polygon fill="#63b8ff" stroke="#63b8ff" points="1244.11,-456.39 1249.89,-447.51 1239.83,-450.84 1244.11,-456.39"/>
</a>
</g>
</g>
<!-- Node14 -->
<g id="Node000014" class="node">
<title>Node14</title>
<g id="a_Node000014"><a xlink:href="classGameWindow.html#a3f8581191baa90b0e963a80102c87be7" target="_top" xlink:title=" ">
<polygon fill="white" stroke="#666666" points="557,-498.81 394,-498.81 394,-479.81 557,-479.81 557,-498.81"/>
<text text-anchor="middle" x="475.5" y="-486.81" font-family="Helvetica,sans-Serif" font-size="10.00">GameWindow::onUndoClicked</text>
</a>
</g>
</g>
<!-- Node3&#45;&gt;Node14 -->
<g id="edge20_Node000003_Node000014" class="edge">
<title>Node3&#45;&gt;Node14</title>
<g id="a_edge20_Node000003_Node000014"><a xlink:title=" ">
<path fill="none" stroke="#63b8ff" d="M1209.47,-450.05C1187.27,-455.97 1161.67,-461.92 1138,-465.31 930.24,-495 682.26,-494.54 557.17,-491.84"/>
<polygon fill="#63b8ff" stroke="#63b8ff" points="1210.69,-453.34 1219.42,-447.34 1208.85,-446.59 1210.69,-453.34"/>
</a>
</g>
</g>
<!-- Node4&#45;&gt;Node5 -->
<g id="edge4_Node000004_Node000005" class="edge">
<title>Node4&#45;&gt;Node5</title>
<g id="a_edge4_Node000004_Node000005"><a xlink:title=" ">
<path fill="none" stroke="#63b8ff" d="M401.31,-334.4C398.77,-332.83 396.32,-331.13 394,-329.31 327.17,-276.58 290.31,-174.34 280.02,-142.22"/>
<polygon fill="#63b8ff" stroke="#63b8ff" points="399.85,-337.59 410.31,-339.28 403.19,-331.44 399.85,-337.59"/>
</a>
</g>
</g>
<!-- Node6 -->
<g id="Node000006" class="node">
<title>Node6</title>
<g id="a_Node000006"><a xlink:href="classMenu.html#a81e517b62384dc184425757e6dba87d3" target="_top" xlink:title=" ">
<polygon fill="white" stroke="#666666" points="117.5,-122.81 40.5,-122.81 40.5,-103.81 117.5,-103.81 117.5,-122.81"/>
<text text-anchor="middle" x="79" y="-110.81" font-family="Helvetica,sans-Serif" font-size="10.00">Menu::Menu</text>
</a>
</g>
</g>
<!-- Node5&#45;&gt;Node6 -->
<g id="edge5_Node000005_Node000006" class="edge">
<title>Node5&#45;&gt;Node6</title>
<g id="a_edge5_Node000005_Node000006"><a xlink:title=" ">
<path fill="none" stroke="#63b8ff" d="M184.01,-123.44C160.59,-121.16 136.66,-118.83 117.68,-116.98"/>
<polygon fill="#63b8ff" stroke="#63b8ff" points="183.7,-126.93 194,-124.42 184.38,-119.96 183.7,-126.93"/>
</a>
</g>
</g>
<!-- Node7&#45;&gt;Node8 -->
<g id="edge7_Node000007_Node000008" class="edge">
<title>Node7&#45;&gt;Node8</title>
<g id="a_edge7_Node000007_Node000008"><a xlink:title=" ">
<path fill="none" stroke="#63b8ff" d="M954.55,-334.83C945.46,-334.59 936.36,-334.36 927.58,-334.13"/>
<polygon fill="#63b8ff" stroke="#63b8ff" points="954.7,-338.33 964.78,-335.09 954.88,-331.34 954.7,-338.33"/>
</a>
</g>
</g>
<!-- Node9 -->
<g id="Node000009" class="node">
<title>Node9</title>
<g id="a_Node000009"><a xlink:href="classGameWindow.html#ada8c32048b32506944bd7f10bca9d232" target="_top" xlink:title=" ">
<polygon fill="white" stroke="#666666" points="747,-341.81 593,-341.81 593,-322.81 747,-322.81 747,-341.81"/>
<text text-anchor="middle" x="670" y="-329.81" font-family="Helvetica,sans-Serif" font-size="10.00">GameWindow::displayBoard</text>
</a>
</g>
</g>
<!-- Node8&#45;&gt;Node9 -->
<g id="edge8_Node000008_Node000009" class="edge">
<title>Node8&#45;&gt;Node9</title>
<g id="a_edge8_Node000008_Node000009"><a xlink:title=" ">
<path fill="none" stroke="#63b8ff" d="M774.31,-325.6C765.32,-325.53 756.17,-325.54 747.23,-325.65"/>
<polygon fill="#63b8ff" stroke="#63b8ff" points="774.35,-329.1 784.39,-325.72 774.43,-322.1 774.35,-329.1"/>
</a>
</g>
</g>
<!-- Node9&#45;&gt;Node4 -->
<g id="edge9_Node000009_Node000004" class="edge">
<title>Node9&#45;&gt;Node4</title>
<g id="a_edge9_Node000009_Node000004"><a xlink:title=" ">
<path fill="none" stroke="#63b8ff" d="M582.9,-342.15C572.82,-343.3 562.59,-344.47 552.66,-345.6"/>
<polygon fill="#63b8ff" stroke="#63b8ff" points="583.38,-345.62 592.92,-341 582.59,-338.66 583.38,-345.62"/>
</a>
</g>
</g>
<!-- Node9&#45;&gt;Node8 -->
<g id="edge17_Node000009_Node000008" class="edge">
<title>Node9&#45;&gt;Node8</title>
<g id="a_edge17_Node000009_Node000008"><a xlink:title=" ">
<path fill="none" stroke="#63b8ff" d="M757.39,-339.05C766.44,-339.08 775.55,-339.03 784.39,-338.89"/>
<polygon fill="#63b8ff" stroke="#63b8ff" points="757.26,-335.55 747.23,-338.97 757.21,-342.55 757.26,-335.55"/>
</a>
</g>
</g>
<!-- Node9&#45;&gt;Node10 -->
<g id="edge10_Node000009_Node000010" class="edge">
<title>Node9&#45;&gt;Node10</title>
<g id="a_edge10_Node000009_Node000010"><a xlink:title=" ">
<path fill="none" stroke="#63b8ff" d="M621.7,-321.24C599.46,-317.97 572.46,-314.82 547.8,-312.54"/>
<polygon fill="#63b8ff" stroke="#63b8ff" points="621.47,-324.75 631.88,-322.8 622.53,-317.83 621.47,-324.75"/>
</a>
</g>
</g>
<!-- Node9&#45;&gt;Node11 -->
<g id="edge12_Node000009_Node000011" class="edge">
<title>Node9&#45;&gt;Node11</title>
<g id="a_edge12_Node000009_Node000011"><a xlink:title=" ">
<path fill="none" stroke="#63b8ff" d="M662.37,-351.77C648.8,-388.55 614.2,-468.16 557,-508.31 552.19,-511.68 546.86,-514.44 541.3,-516.68"/>
<polygon fill="#63b8ff" stroke="#63b8ff" points="665.72,-352.8 665.78,-342.21 659.13,-350.45 665.72,-352.8"/>
</a>
</g>
</g>
<!-- Node9&#45;&gt;Node14 -->
<g id="edge15_Node000009_Node000014" class="edge">
<title>Node9&#45;&gt;Node14</title>
<g id="a_edge15_Node000009_Node000014"><a xlink:title=" ">
<path fill="none" stroke="#63b8ff" d="M649.09,-348.54C609.27,-381.02 520.86,-453.13 488.59,-479.45"/>
<polygon fill="#63b8ff" stroke="#63b8ff" points="651.71,-350.93 657.25,-341.89 647.29,-345.5 651.71,-350.93"/>
</a>
</g>
</g>
<!-- Node10&#45;&gt;Node9 -->
<g id="edge11_Node000010_Node000009" class="edge">
<title>Node10&#45;&gt;Node9</title>
<g id="a_edge11_Node000010_Node000009"><a xlink:title=" ">
<path fill="none" stroke="#63b8ff" d="M523.91,-322.39C544.7,-325.44 569.63,-328.4 592.92,-330.62"/>
<polygon fill="#63b8ff" stroke="#63b8ff" points="524.16,-318.89 513.75,-320.84 523.1,-325.81 524.16,-318.89"/>
</a>
</g>
</g>
<!-- Node11&#45;&gt;Node12 -->
<g id="edge13_Node000011_Node000012" class="edge">
<title>Node11&#45;&gt;Node12</title>
<g id="a_edge13_Node000011_Node000012"><a xlink:title=" ">
<path fill="none" stroke="#63b8ff" d="M384.21,-526.31C369.34,-526.31 354.21,-526.31 340.18,-526.31"/>
<polygon fill="#63b8ff" stroke="#63b8ff" points="384.45,-529.81 394.45,-526.31 384.45,-522.81 384.45,-529.81"/>
</a>
</g>
</g>
<!-- Node13 -->
<g id="Node000013" class="node">
<title>Node13</title>
<g id="a_Node000013"><a xlink:href="classGameWindow.html#aba82e451e3ca31cb27b36faefeee8d6c" target="_top" xlink:title=" ">
<polygon fill="white" stroke="#666666" points="158,-535.81 0,-535.81 0,-516.81 158,-516.81 158,-535.81"/>
<text text-anchor="middle" x="79" y="-523.81" font-family="Helvetica,sans-Serif" font-size="10.00">GameWindow::GameWindow</text>
</a>
</g>
</g>
<!-- Node12&#45;&gt;Node13 -->
<g id="edge14_Node000012_Node000013" class="edge">
<title>Node12&#45;&gt;Node13</title>
<g id="a_edge14_Node000012_Node000013"><a xlink:title=" ">
<path fill="none" stroke="#63b8ff" d="M201.75,-526.31C187.53,-526.31 172.57,-526.31 158.19,-526.31"/>
<polygon fill="#63b8ff" stroke="#63b8ff" points="201.96,-529.81 211.96,-526.31 201.96,-522.81 201.96,-529.81"/>
</a>
</g>
</g>
<!-- Node14&#45;&gt;Node12 -->
<g id="edge16_Node000014_Node000012" class="edge">
<title>Node14&#45;&gt;Node12</title>
<g id="a_edge16_Node000014_Node000012"><a xlink:title=" ">
<path fill="none" stroke="#63b8ff" d="M413.75,-500.69C386.3,-505.83 354.22,-511.84 328.03,-516.75"/>
<polygon fill="#63b8ff" stroke="#63b8ff" points="414.45,-504.12 423.64,-498.84 413.17,-497.24 414.45,-504.12"/>
</a>
</g>
</g>
<!-- Node16 -->
<g id="Node000016" class="node">
<title>Node16</title>
<g id="a_Node000016"><a xlink:href="classhive_1_1controllers_1_1cli_1_1CLIController.html#a433affa887a3f911ff615224e5b28b7b" target="_top" xlink:title=" ">
<polygon fill="white" stroke="#666666" points="1549.5,-163.81 1440.5,-163.81 1440.5,-122.81 1549.5,-122.81 1549.5,-163.81"/>
<text text-anchor="start" x="1448.5" y="-151.81" font-family="Helvetica,sans-Serif" font-size="10.00">hive::controllers::</text>
<text text-anchor="start" x="1448.5" y="-140.81" font-family="Helvetica,sans-Serif" font-size="10.00">cli::CLIController::</text>
<text text-anchor="middle" x="1495" y="-129.81" font-family="Helvetica,sans-Serif" font-size="10.00">loadGameFromFile</text>
</a>
</g>
</g>
<!-- Node15&#45;&gt;Node16 -->
<g id="edge24_Node000015_Node000016" class="edge">
<title>Node15&#45;&gt;Node16</title>
<g id="a_edge24_Node000015_Node000016"><a xlink:title=" ">
<path fill="none" stroke="#63b8ff" d="M1637.39,-113.47C1608.97,-119.47 1576.31,-126.36 1549.54,-132.01"/>
<polygon fill="#63b8ff" stroke="#63b8ff" points="1638.19,-116.88 1647.25,-111.39 1636.74,-110.03 1638.19,-116.88"/>
</a>
</g>
</g>
<!-- Node18 -->
<g id="Node000018" class="node">
<title>Node18</title>
<g id="a_Node000018"><a xlink:href="classMenu.html#a39dfdaa3104de72e7ac6800258facdee" target="_top" xlink:title=" ">
<polygon fill="white" stroke="#666666" points="917.5,-103.81 794.5,-103.81 794.5,-84.81 917.5,-84.81 917.5,-103.81"/>
<text text-anchor="middle" x="856" y="-91.81" font-family="Helvetica,sans-Serif" font-size="10.00">Menu::onImportGame</text>
</a>
</g>
</g>
<!-- Node15&#45;&gt;Node18 -->
<g id="edge26_Node000015_Node000018" class="edge">
<title>Node15&#45;&gt;Node18</title>
<g id="a_edge26_Node000015_Node000018"><a xlink:title=" ">
<path fill="none" stroke="#63b8ff" d="M1637,-98.91C1475.97,-97.96 1071.31,-95.57 917.56,-94.66"/>
<polygon fill="#63b8ff" stroke="#63b8ff" points="1637.23,-102.41 1647.25,-98.97 1637.27,-95.41 1637.23,-102.41"/>
</a>
</g>
</g>
<!-- Node17 -->
<g id="Node000017" class="node">
<title>Node17</title>
<g id="a_Node000017"><a xlink:href="classhive_1_1controllers_1_1cli_1_1CLIController.html#a477d6c1bf15f3024dde28b75d642753c" target="_top" xlink:title=" ">
<polygon fill="white" stroke="#666666" points="1329,-161.31 1210,-161.31 1210,-131.31 1329,-131.31 1329,-161.31"/>
<text text-anchor="start" x="1218" y="-149.31" font-family="Helvetica,sans-Serif" font-size="10.00">hive::controllers::</text>
<text text-anchor="middle" x="1269.5" y="-138.31" font-family="Helvetica,sans-Serif" font-size="10.00">cli::CLIController::run</text>
</a>
</g>
</g>
<!-- Node16&#45;&gt;Node17 -->
<g id="edge25_Node000016_Node000017" class="edge">
<title>Node16&#45;&gt;Node17</title>
<g id="a_edge25_Node000016_Node000017"><a xlink:title=" ">
<path fill="none" stroke="#63b8ff" d="M1430.37,-144.16C1398.52,-144.59 1360.22,-145.1 1329.09,-145.52"/>
<polygon fill="#63b8ff" stroke="#63b8ff" points="1430.51,-147.66 1440.47,-144.03 1430.42,-140.66 1430.51,-147.66"/>
</a>
</g>
</g>
<!-- Node18&#45;&gt;Node6 -->
<g id="edge27_Node000018_Node000006" class="edge">
<title>Node18&#45;&gt;Node6</title>
<g id="a_edge27_Node000018_Node000006"><a xlink:title=" ">
<path fill="none" stroke="#63b8ff" d="M783.97,-96.05C623.92,-99.97 239.55,-109.4 117.72,-112.38"/>
<polygon fill="#63b8ff" stroke="#63b8ff" points="784.28,-99.54 794.19,-95.8 784.1,-92.54 784.28,-99.54"/>
</a>
</g>
</g>
<!-- Node20 -->
<g id="Node000020" class="node">
<title>Node20</title>
<g id="a_Node000020"><a xlink:href="classhive_1_1controllers_1_1cli_1_1CLIController.html#abdc584083fcdee33df53409497cac430" target="_top" xlink:title=" ">
<polygon fill="white" stroke="#666666" points="1546.5,-222.81 1443.5,-222.81 1443.5,-181.81 1546.5,-181.81 1546.5,-222.81"/>
<text text-anchor="start" x="1451.5" y="-210.81" font-family="Helvetica,sans-Serif" font-size="10.00">hive::controllers::</text>
<text text-anchor="start" x="1451.5" y="-199.81" font-family="Helvetica,sans-Serif" font-size="10.00">cli::CLIController::</text>
<text text-anchor="middle" x="1495" y="-188.81" font-family="Helvetica,sans-Serif" font-size="10.00">handleCommand</text>
</a>
</g>
</g>
<!-- Node19&#45;&gt;Node20 -->
<g id="edge29_Node000019_Node000020" class="edge">
<title>Node19&#45;&gt;Node20</title>
<g id="a_edge29_Node000019_Node000020"><a xlink:title=" ">
<path fill="none" stroke="#63b8ff" d="M1643.97,-167.53C1613.09,-174.79 1575.95,-183.52 1546.6,-190.42"/>
<polygon fill="#63b8ff" stroke="#63b8ff" points="1644.83,-170.93 1653.76,-165.23 1643.23,-164.11 1644.83,-170.93"/>
</a>
</g>
</g>
<!-- Node20&#45;&gt;Node17 -->
<g id="edge32_Node000020_Node000017" class="edge">
<title>Node20&#45;&gt;Node17</title>
<g id="a_edge32_Node000020_Node000017"><a xlink:title=" ">
<path fill="none" stroke="#63b8ff" d="M1433.49,-187.15C1401.12,-179.04 1361.43,-169.09 1329.32,-161.04"/>
<polygon fill="#63b8ff" stroke="#63b8ff" points="1432.73,-190.56 1443.28,-189.6 1434.43,-183.77 1432.73,-190.56"/>
</a>
</g>
</g>
<!-- Node21 -->
<g id="Node000021" class="node">
<title>Node21</title>
<g id="a_Node000021"><a xlink:href="classhive_1_1controllers_1_1cli_1_1CLIController.html#af90a649a6748372a139ad3fd0957dadb" target="_top" xlink:title=" ">
<polygon fill="white" stroke="#666666" points="1329,-214.31 1210,-214.31 1210,-184.31 1329,-184.31 1329,-214.31"/>
<text text-anchor="start" x="1218" y="-202.31" font-family="Helvetica,sans-Serif" font-size="10.00">hive::controllers::</text>
<text text-anchor="middle" x="1269.5" y="-191.31" font-family="Helvetica,sans-Serif" font-size="10.00">cli::CLIController::run</text>
</a>
</g>
</g>
<!-- Node20&#45;&gt;Node21 -->
<g id="edge30_Node000020_Node000021" class="edge">
<title>Node20&#45;&gt;Node21</title>
<g id="a_edge30_Node000020_Node000021"><a xlink:title=" ">
<path fill="none" stroke="#63b8ff" d="M1433.07,-201.49C1400.78,-201.06 1361.29,-200.53 1329.32,-200.1"/>
<polygon fill="#63b8ff" stroke="#63b8ff" points="1433.24,-204.99 1443.28,-201.63 1433.33,-197.99 1433.24,-204.99"/>
</a>
</g>
</g>
<!-- Node22 -->
<g id="Node000022" class="node">
<title>Node22</title>
<g id="a_Node000022"><a xlink:href="main__cli_8cpp.html#a7114aa2dd6837734db57667a298dfcc4" target="_top" xlink:title=" ">
<polygon fill="white" stroke="#666666" points="1072,-195.81 1031,-195.81 1031,-176.81 1072,-176.81 1072,-195.81"/>
<text text-anchor="middle" x="1051.5" y="-183.81" font-family="Helvetica,sans-Serif" font-size="10.00">main</text>
</a>
</g>
</g>
<!-- Node21&#45;&gt;Node22 -->
<g id="edge31_Node000021_Node000022" class="edge">
<title>Node21&#45;&gt;Node22</title>
<g id="a_edge31_Node000021_Node000022"><a xlink:title=" ">
<path fill="none" stroke="#63b8ff" d="M1199.6,-195.16C1155.27,-192.49 1100.77,-189.21 1072.16,-187.49"/>
<polygon fill="#63b8ff" stroke="#63b8ff" points="1199.57,-198.67 1209.76,-195.77 1199.99,-191.68 1199.57,-198.67"/>
</a>
</g>
</g>
<!-- Node23&#45;&gt;Node2 -->
<g id="edge35_Node000023_Node000002" class="edge">
<title>Node23&#45;&gt;Node2</title>
<g id="a_edge35_Node000023_Node000002"><a xlink:title=" ">
<path fill="none" stroke="#63b8ff" d="M1614.62,-380.31C1606.23,-380.31 1597.7,-380.31 1589.28,-380.31"/>
<polygon fill="#63b8ff" stroke="#63b8ff" points="1614.78,-383.81 1624.78,-380.31 1614.78,-376.81 1614.78,-383.81"/>
</a>
</g>
</g>
<!-- Node24&#45;&gt;Node20 -->
<g id="edge38_Node000024_Node000020" class="edge">
<title>Node24&#45;&gt;Node20</title>
<g id="a_edge38_Node000024_Node000020"><a xlink:title=" ">
<path fill="none" stroke="#63b8ff" d="M1643.57,-209.39C1612.76,-207.91 1575.82,-206.14 1546.6,-204.73"/>
<polygon fill="#63b8ff" stroke="#63b8ff" points="1643.61,-212.89 1653.76,-209.87 1643.94,-205.9 1643.61,-212.89"/>
</a>
</g>
</g>
<!-- Node26 -->
<g id="Node000026" class="node">
<title>Node26</title>
<g id="a_Node000026"><a xlink:href="classGameWindow.html#aa43f3cf42f2971b92ad2f9873412f422" target="_top" xlink:title=" ">
<polygon fill="white" stroke="#666666" points="929,-294.81 783,-294.81 783,-275.81 929,-275.81 929,-294.81"/>
<text text-anchor="middle" x="856" y="-282.81" font-family="Helvetica,sans-Serif" font-size="10.00">GameWindow::selectPiece</text>
</a>
</g>
</g>
<!-- Node25&#45;&gt;Node26 -->
<g id="edge41_Node000025_Node000026" class="edge">
<title>Node25&#45;&gt;Node26</title>
<g id="a_edge41_Node000025_Node000026"><a xlink:title=" ">
<path fill="none" stroke="#63b8ff" d="M1169.19,-267.1C1095.12,-271.42 995.66,-277.22 929.09,-281.1"/>
<polygon fill="#63b8ff" stroke="#63b8ff" points="1169.68,-270.58 1179.46,-266.5 1169.28,-263.59 1169.68,-270.58"/>
</a>
</g>
</g>
<!-- Node27 -->
<g id="Node000027" class="node">
<title>Node27</title>
<g id="a_Node000027"><a xlink:href="classGameWindow.html#adb55bf4d481961522203420bd111df94" target="_top" xlink:title=" ">
<polygon fill="white" stroke="#666666" points="1130.5,-232.81 972.5,-232.81 972.5,-213.81 1130.5,-213.81 1130.5,-232.81"/>
<text text-anchor="middle" x="1051.5" y="-220.81" font-family="Helvetica,sans-Serif" font-size="10.00">GameWindow::unselectPiece</text>
</a>
</g>
</g>
<!-- Node25&#45;&gt;Node27 -->
<g id="edge43_Node000025_Node000027" class="edge">
<title>Node25&#45;&gt;Node27</title>
<g id="a_edge43_Node000025_Node000027"><a xlink:title=" ">
<path fill="none" stroke="#63b8ff" d="M1204.41,-250.03C1173.33,-244.56 1136.41,-238.07 1106.75,-232.85"/>
<polygon fill="#63b8ff" stroke="#63b8ff" points="1203.82,-253.48 1214.27,-251.77 1205.03,-246.59 1203.82,-253.48"/>
</a>
</g>
</g>
<!-- Node26&#45;&gt;Node9 -->
<g id="edge42_Node000026_Node000009" class="edge">
<title>Node26&#45;&gt;Node9</title>
<g id="a_edge42_Node000026_Node000009"><a xlink:title=" ">
<path fill="none" stroke="#63b8ff" d="M808.08,-297.29C777.18,-305.19 737.27,-315.38 708.5,-322.73"/>
<polygon fill="#63b8ff" stroke="#63b8ff" points="808.94,-300.68 817.76,-294.82 807.21,-293.9 808.94,-300.68"/>
</a>
</g>
</g>
<!-- Node27&#45;&gt;Node8 -->
<g id="edge45_Node000027_Node000008" class="edge">
<title>Node27&#45;&gt;Node8</title>
<g id="a_edge45_Node000027_Node000008"><a xlink:title=" ">
<path fill="none" stroke="#63b8ff" d="M1029.7,-238.86C1006.11,-256.05 966.1,-283.87 929,-303.31 914.68,-310.81 897.96,-317.65 884.24,-322.8"/>
<polygon fill="#63b8ff" stroke="#63b8ff" points="1031.91,-241.58 1037.9,-232.83 1027.77,-235.94 1031.91,-241.58"/>
</a>
</g>
</g>
<!-- Node27&#45;&gt;Node10 -->
<g id="edge44_Node000027_Node000010" class="edge">
<title>Node27&#45;&gt;Node10</title>
<g id="a_edge44_Node000027_Node000010"><a xlink:title=" ">
<path fill="none" stroke="#63b8ff" d="M978.53,-234.34C864.9,-251.76 645.84,-285.35 538.65,-301.78"/>
<polygon fill="#63b8ff" stroke="#63b8ff" points="979.17,-237.78 988.53,-232.81 978.11,-230.86 979.17,-237.78"/>
</a>
</g>
</g>
</g>
</svg>
