<?xml version="1.0" encoding="UTF-8" standalone="no"?>
<!DOCTYPE svg PUBLIC "-//W3C//DTD SVG 1.1//EN"
 "http://www.w3.org/Graphics/SVG/1.1/DTD/svg11.dtd">
<!-- Generated by graphviz version 2.43.0 (0)
 -->
<!-- Title: Graphical Class Hierarchy Pages: 1 -->
<svg width="234pt" height="101pt"
 viewBox="0.00 0.00 234.00 101.00" xmlns="http://www.w3.org/2000/svg" xmlns:xlink="http://www.w3.org/1999/xlink">
<g id="graph0" class="graph" transform="scale(1 1) rotate(0) translate(4 97)">
<title>Graphical Class Hierarchy</title>
<!-- Node0 -->
<g id="Node000000" class="node">
<title>Node0</title>
<g id="a_Node000000"><a xlink:title=" ">
<polygon fill="#e0e0e0" stroke="#999999" points="59,-56 0,-56 0,-37 59,-37 59,-56"/>
<text text-anchor="middle" x="29.5" y="-44" font-family="Helvetica,sans-Serif" font-size="10.00">QWidget</text>
</a>
</g>
</g>
<!-- Node1 -->
<g id="Node000001" class="node">
<title>Node1</title>
<g id="a_Node000001"><a xlink:href="classMenu.html" target="_top" xlink:title=" ">
<polygon fill="white" stroke="#666666" points="182.5,-93 138.5,-93 138.5,-74 182.5,-74 182.5,-93"/>
<text text-anchor="middle" x="160.5" y="-81" font-family="Helvetica,sans-Serif" font-size="10.00">Menu</text>
</a>
</g>
</g>
<!-- Node0&#45;&gt;Node1 -->
<g id="edge21_Node000000_Node000001" class="edge">
<title>Node0&#45;&gt;Node1</title>
<g id="a_edge21_Node000000_Node000001"><a xlink:title=" ">
<path fill="none" stroke="#63b8ff" d="M68.85,-57.9C77.45,-60.42 86.53,-63.07 95,-65.5 109.42,-69.63 125.68,-74.17 138.27,-77.66"/>
<polygon fill="#63b8ff" stroke="#63b8ff" points="69.63,-54.48 59.05,-55.01 67.65,-61.19 69.63,-54.48"/>
</a>
</g>
</g>
<!-- Node2 -->
<g id="Node000002" class="node">
<title>Node2</title>
<g id="a_Node000002"><a xlink:href="classhive_1_1views_1_1BoardView.html" target="_top" xlink:title=" ">
<polygon fill="white" stroke="#666666" points="226,-56 95,-56 95,-37 226,-37 226,-56"/>
<text text-anchor="middle" x="160.5" y="-44" font-family="Helvetica,sans-Serif" font-size="10.00">hive::views::BoardView</text>
</a>
</g>
</g>
<!-- Node0&#45;&gt;Node2 -->
<g id="edge22_Node000000_Node000002" class="edge">
<title>Node0&#45;&gt;Node2</title>
<g id="a_edge22_Node000000_Node000002"><a xlink:title=" ">
<path fill="none" stroke="#63b8ff" d="M69.31,-46.5C77.37,-46.5 86.08,-46.5 94.78,-46.5"/>
<polygon fill="#63b8ff" stroke="#63b8ff" points="69.13,-43 59.13,-46.5 69.13,-50 69.13,-43"/>
</a>
</g>
</g>
<!-- Node3 -->
<g id="Node000003" class="node">
<title>Node3</title>
<g id="a_Node000003"><a xlink:href="classhive_1_1views_1_1HexView.html" target="_top" xlink:title=" ">
<polygon fill="white" stroke="#666666" points="221.5,-19 99.5,-19 99.5,0 221.5,0 221.5,-19"/>
<text text-anchor="middle" x="160.5" y="-7" font-family="Helvetica,sans-Serif" font-size="10.00">hive::views::HexView</text>
</a>
</g>
</g>
<!-- Node0&#45;&gt;Node3 -->
<g id="edge23_Node000000_Node000003" class="edge">
<title>Node0&#45;&gt;Node3</title>
<g id="a_edge23_Node000000_Node000003"><a xlink:title=" ">
<path fill="none" stroke="#63b8ff" d="M68.82,-35.51C86.96,-30.31 108.43,-24.15 125.93,-19.13"/>
<polygon fill="#63b8ff" stroke="#63b8ff" points="67.78,-32.17 59.13,-38.29 69.71,-38.9 67.78,-32.17"/>
</a>
</g>
</g>
</g>
</svg>
